{
.formatVersion = 3;
date = "2011-07-28 17:19:00 +0000";
familyName = Abel;
fontMaster = (
{
customParameters = (
{
name = typoAscender;
value = 2006;
},
{
name = typoDescender;
value = -604;
},
{
name = typoLineGap;
value = 0;
},
{
name = winAscent;
value = 2006;
},
{
name = winDescent;
value = 604;
},
{
name = hheaAscender;
value = 2006;
},
{
name = hheaDescender;
value = -604;
},
{
name = hheaLineGap;
value = 0;
}
);
id = "ac52443d-76b6-4d6b-8b4e-667b68a021e3";
metricValues = (
{
},
{
pos = -328;
},
{
pos = 82;
},
{
pos = 1638;
},
{
pos = -410;
},
{
pos = 1434;
},
{
pos = 1331;
},
{
},
{
pos = 287;
},
{
pos = 1434;
},
{
pos = 1331;
},
{
},
{
pos = 977;
},
{
pos = 102;
},
{
pos = 512;
}
);
name = Regular;
visible = 1;
}
);
glyphs = (
{
glyphname = exclam;
layers = (
{
layerId = "ac52443d-76b6-4d6b-8b4e-667b68a021e3";
name = Fore;
shapes = (
{
closed = 1;
nodes = (
(178,434,l),
(123,1434,l),
(305,1434,l),
(250,434,l)
);
},
{
closed = 1;
nodes = (
(137,154,l),
(291,154,l),
(291,0,l),
(137,0,l)
);
}
);
width = 428;
}
);
unicode = 33;
},
{
glyphname = quotedbl;
layers = (
{
layerId = "ac52443d-76b6-4d6b-8b4e-667b68a021e3";
name = Fore;
shapes = (
{
closed = 1;
nodes = (
(174,993,l),
(123,1434,l),
(276,1434,l),
(225,993,l)
);
},
{
closed = 1;
nodes = (
(420,993,l),
(369,1434,l),
(522,1434,l),
(471,993,l)
);
}
);
width = 645;
}
);
unicode = 34;
},
{
glyphname = numbersign;
layers = (
{
layerId = "ac52443d-76b6-4d6b-8b4e-667b68a021e3";
name = Fore;
shapes = (
{
closed = 1;
nodes = (
(399,1069,l),
(430,1434,l),
(551,1434,l),
(520,1069,l),
(852,1069,l),
(883,1434,l),
(1004,1434,l),
(973,1069,l),
(1188,1069,l),
(1188,967,l),
(963,967,l),
(922,467,l),
(1147,467,l),
(1147,365,l),
(911,365,l),
(881,0,l),
(760,0,l),
(791,365,l),
(459,365,l),
(428,0,l),
(307,0,l),
(338,365,l),
(123,365,l),
(123,467,l),
(348,467,l),
(389,967,l),
(164,967,l),
(164,1069,l)
);
},
{
closed = 1;
nodes = (
(801,467,l),
(842,967,l),
(510,967,l),
(469,467,l)
);
}
);
width = 1311;
}
);
unicode = 35;
},
{
glyphname = dollar;
layers = (
{
layerId = "ac52443d-76b6-4d6b-8b4e-667b68a021e3";
name = Fore;
shapes = (
{
closed = 1;
nodes = (
(492,-20,l),
(420,-19,o),
(356,8.5,q),
(292,36,o),
(245,83.5,q),
(198,131,o),
(170.5,195,q),
(143,259,o),
(143,332,q),
(143,389,l),
(272,410,l),
(272,332,l),
(272,285,o),
(289,244,q),
(306,203,o),
(336,172,q),
(366,141,o),
(406,122.5,q),
(446,104,o),
(492,102,q),
(492,684,l),
(426,708,o),
(363.5,736.5,q),
(301,765,o),
(252,809,q),
(203,853,o),
(173,917,q),
(143,981,o),
(143,1075,q),
(143,1102,l),
(143,1174,o),
(170.5,1237.5,q),
(198,1301,o),
(245,1349,q),
(292,1397,o),
(356,1425,q),
(420,1453,o),
(492,1454,q),
(492,1638,l),
(594,1638,l),
(594,1454,l),
(665,1453,o),
(728,1424.5,q),
(791,1396,o),
(838,1348.5,q),
(885,1301,o),
(912.5,1237.5,q),
(940,1174,o),
(940,1102,q),
(940,1065,l),
(811,1044,l),
(811,1102,l),
(811,1148,o),
(794,1189,q),
(777,1230,o),
(748,1260.5,q),
(719,1291,o),
(679,1310,q),
(639,1329,o),
(594,1331,q),
(594,776,l),
(659,751,o),
(723,721,q),
(787,691,o),
(837.5,646,q),
(888,601,o),
(919,535.5,q),
(950,470,o),
(950,375,q),
(950,332,l),
(950,259,o),
(922.5,195,q),
(895,131,o),
(847,83,q),
(799,35,o),
(735,7.5,q),
(671,-20,o),
(598,-20,q),
(594,-20,l),
(594,-246,l),
(492,-246,l)
);
},
{
closed = 1;
nodes = (
(821,432,o),
(803,474.5,q),
(785,517,o),
(754.5,548.5,q),
(724,580,o),
(682.5,603,q),
(641,626,o),
(594,645,q),
(594,102,l),
(641,102,o),
(682.5,120,q),
(724,138,o),
(754.5,169.5,q),
(785,201,o),
(803,242.5,q),
(821,284,o),
(821,332,q),
(821,375,l),
(821,375,l)
);
},
{
closed = 1;
nodes = (
(272,1022,o),
(289,982.5,q),
(306,943,o),
(336,913,q),
(366,883,o),
(406,860,q),
(446,837,o),
(492,817,q),
(492,1331,l),
(446,1329,o),
(406,1310,q),
(366,1291,o),
(336,1260.5,q),
(306,1230,o),
(289,1189,q),
(272,1148,o),
(272,1102,q),
(272,1075,l),
(272,1075,l)
);
}
);
width = 1063;
}
);
unicode = 36;
},
{
glyphname = percent;
layers = (
{
layerId = "ac52443d-76b6-4d6b-8b4e-667b68a021e3";
name = Fore;
shapes = (
{
closed = 1;
nodes = (
(528,879,o),
(514.5,846.5,q),
(501,814,o),
(477,790,q),
(453,766,o),
(420.5,751.5,q),
(388,737,o),
(350,737,q),
(322,737,l),
(284,737,o),
(251.5,751.5,q),
(219,766,o),
(195,790,q),
(171,814,o),
(157,846.5,q),
(143,879,o),
(143,915,q),
(143,1264,l),
(143,1300,o),
(157,1332.5,q),
(171,1365,o),
(195,1389,q),
(219,1413,o),
(251.5,1427.5,q),
(284,1442,o),
(322,1442,q),
(350,1442,l),
(388,1442,o),
(420.5,1427.5,q),
(453,1413,o),
(477,1389,q),
(501,1365,o),
(514.5,1332.5,q),
(528,1300,o),
(528,1264,q),
(528,915,l),
(528,915,l)
);
},
{
closed = 1;
nodes = (
(430,1281,o),
(423.5,1296,q),
(417,1311,o),
(405.5,1322,q),
(394,1333,o),
(379,1339.5,q),
(364,1346,o),
(346,1346,q),
(326,1346,l),
(308,1346,o),
(293,1339.5,q),
(278,1333,o),
(266.5,1322,q),
(255,1311,o),
(248.5,1296,q),
(242,1281,o),
(242,1264,q),
(242,915,l),
(242,881,o),
(266.5,857.5,q),
(291,834,o),
(326,834,q),
(346,834,l),
(381,834,o),
(405.5,857.5,q),
(430,881,o),
(430,915,q),
(430,1264,l)
);
},
{
closed = 1;
nodes = (
(1239,134,o),
(1225.5,101.5,q),
(1212,69,o),
(1188,45,q),
(1164,21,o),
(1131.5,6.5,q),
(1099,-8,o),
(1061,-8,q),
(1032,-8,l),
(995,-8,o),
(962.5,6.5,q),
(930,21,o),
(906,45,q),
(882,69,o),
(868,101.5,q),
(854,134,o),
(854,170,q),
(854,518,l),
(854,554,o),
(868,586.5,q),
(882,619,o),
(906,643,q),
(930,667,o),
(962.5,681.5,q),
(995,696,o),
(1032,696,q),
(1061,696,l),
(1099,696,o),
(1131.5,681.5,q),
(1164,667,o),
(1188,643,q),
(1212,619,o),
(1225.5,586.5,q),
(1239,554,o),
(1239,518,q),
(1239,170,l),
(1239,170,l)
);
},
{
closed = 1;
nodes = (
(1141,535,o),
(1134.5,550,q),
(1128,565,o),
(1116.5,576,q),
(1105,587,o),
(1090,593.5,q),
(1075,600,o),
(1057,600,q),
(1036,600,l),
(1018,600,o),
(1003,593.5,q),
(988,587,o),
(976.5,576,q),
(965,565,o),
(958.5,550,q),
(952,535,o),
(952,518,q),
(952,170,l),
(952,153,o),
(958.5,138,q),
(965,123,o),
(976.5,112,q),
(988,101,o),
(1003,94.5,q),
(1018,88,o),
(1036,88,q),
(1057,88,l),
(1075,88,o),
(1090,94.5,q),
(1105,101,o),
(1116.5,112,q),
(1128,123,o),
(1134.5,138,q),
(1141,153,o),
(1141,170,q),
(1141,518,l)
);
},
{
closed = 1;
nodes = (
(1042,1434,l),
(1157,1434,l),
(340,0,l),
(225,0,l)
);
}
);
width = 1382;
}
);
unicode = 37;
},
{
glyphname = ampersand;
layers = (
{
layerId = "ac52443d-76b6-4d6b-8b4e-667b68a021e3";
name = Fore;
shapes = (
{
closed = 1;
nodes = (
(1005,-20,o),
(940.5,17,q),
(876,54,o),
(838,117,q),
(788,54,o),
(715,17,q),
(642,-20,o),
(557,-20,q),
(496,-20,l),
(423,-20,o),
(358.5,7.5,q),
(294,35,o),
(246,83,q),
(198,131,o),
(170.5,195,q),
(143,259,o),
(143,332,q),
(143,410,l),
(143,461,o),
(156.5,507.5,q),
(170,554,o),
(195,594,q),
(220,634,o),
(254,666.5,q),
(288,699,o),
(330,721,q),
(288,743,o),
(254,775.5,q),
(220,808,o),
(195,848,q),
(170,888,o),
(156.5,934.5,q),
(143,981,o),
(143,1032,q),
(143,1102,l),
(143,1175,o),
(170.5,1239,q),
(198,1303,o),
(246,1351,q),
(294,1399,o),
(358.5,1426.5,q),
(423,1454,o),
(496,1454,q),
(557,1454,l),
(630,1454,o),
(694,1426.5,q),
(758,1399,o),
(806,1351,q),
(854,1303,o),
(881.5,1239,q),
(909,1175,o),
(909,1102,q),
(909,1092,l),
(780,1071,l),
(780,1102,l),
(780,1150,o),
(762,1191.5,q),
(744,1233,o),
(713,1264,q),
(682,1295,o),
(640.5,1313,q),
(599,1331,o),
(551,1331,q),
(502,1331,l),
(454,1331,o),
(412.5,1313,q),
(371,1295,o),
(339.5,1264,q),
(308,1233,o),
(290,1191.5,q),
(272,1150,o),
(272,1102,q),
(272,1012,l),
(272,964,o),
(290,922.5,q),
(308,881,o),
(339.5,849.5,q),
(371,818,o),
(412.5,800,q),
(454,782,o),
(502,782,q),
(780,782,l),
(780,913,l),
(909,934,l),
(909,784,l),
(1108,784,l),
(1108,662,l),
(909,662,l),
(909,317,l),
(911,272,o),
(923,233,q),
(935,194,o),
(958.5,164.5,q),
(982,135,o),
(1017,118.5,q),
(1052,102,o),
(1098,102,q),
(1128,102,l),
(1110,-20,l),
(1092,-20,l)
);
},
{
closed = 1;
nodes = (
(597,102,o),
(638,119,q),
(679,136,o),
(709.5,166,q),
(740,196,o),
(759,236,q),
(778,276,o),
(780,322,q),
(780,659,l),
(502,659,l),
(454,659,o),
(412.5,641,q),
(371,623,o),
(339.5,592,q),
(308,561,o),
(290,519.5,q),
(272,478,o),
(272,430,q),
(272,332,l),
(272,284,o),
(290,242.5,q),
(308,201,o),
(339.5,169.5,q),
(371,138,o),
(412.5,120,q),
(454,102,o),
(502,102,q),
(551,102,l),
(551,102,l)
);
}
);
width = 1272;
}
);
unicode = 38;
},
{
glyphname = quotesingle;
layers = (
{
layerId = "ac52443d-76b6-4d6b-8b4e-667b68a021e3";
name = Fore;
shapes = (
{
closed = 1;
nodes = (
(143,993,l),
(143,1434,l),
(297,1434,l),
(195,993,l)
);
}
);
width = 399;
}
);
unicode = 39;
},
{
glyphname = parenleft;
layers = (
{
layerId = "ac52443d-76b6-4d6b-8b4e-667b68a021e3";
name = Fore;
shapes = (
{
closed = 1;
nodes = (
(123,765,o),
(155,909,q),
(187,1053,o),
(244,1177.5,q),
(301,1302,o),
(379.5,1408.5,q),
(458,1515,o),
(551,1606,q),
(623,1534,l),
(541,1449,o),
(471.5,1346,q),
(402,1243,o),
(352,1124.5,q),
(302,1006,o),
(274,874,q),
(246,742,o),
(246,598,q),
(246,454,o),
(274,322,q),
(302,190,o),
(352,71.5,q),
(402,-47,o),
(471.5,-150,q),
(541,-253,o),
(623,-338,q),
(551,-410,l),
(458,-319,o),
(379.5,-212.5,q),
(301,-106,o),
(244,19,q),
(187,144,o),
(155,288,q),
(123,432,o),
(123,598,q)
);
}
);
width = 684;
}
);
unicode = 40;
},
{
glyphname = parenright;
layers = (
{
layerId = "ac52443d-76b6-4d6b-8b4e-667b68a021e3";
name = Fore;
shapes = (
{
closed = 1;
nodes = (
(561,432,o),
(529,288,q),
(497,144,o),
(440,19,q),
(383,-106,o),
(304.5,-212.5,q),
(226,-319,o),
(133,-410,q),
(61,-338,l),
(144,-253,o),
(213,-150,q),
(282,-47,o),
(332,71.5,q),
(382,190,o),
(410,322,q),
(438,454,o),
(438,598,q),
(438,742,o),
(410,874,q),
(382,1006,o),
(332,1124.5,q),
(282,1243,o),
(213,1346,q),
(144,1449,o),
(61,1534,q),
(133,1606,l),
(226,1515,o),
(304.5,1408.5,q),
(383,1302,o),
(440,1177.5,q),
(497,1053,o),
(529,909,q),
(561,765,o),
(561,598,q)
);
}
);
width = 684;
}
);
unicode = 41;
},
{
glyphname = asterisk;
layers = (
{
layerId = "ac52443d-76b6-4d6b-8b4e-667b68a021e3";
name = Fore;
shapes = (
{
closed = 1;
nodes = (
(326,686,l),
(207,772,l),
(428,1022,l),
(102,1096,l),
(147,1233,l),
(455,1102,l),
(424,1434,l),
(569,1434,l),
(539,1102,l),
(846,1233,l),
(891,1096,l),
(565,1022,l),
(786,772,l),
(668,686,l),
(498,973,l)
);
}
);
width = 993;
}
);
unicode = 42;
},
{
glyphname = plus;
layers = (
{
layerId = "ac52443d-76b6-4d6b-8b4e-667b68a021e3";
name = Fore;
shapes = (
{
closed = 1;
nodes = (
(528,782,l),
(528,1229,l),
(657,1229,l),
(657,782,l),
(1106,782,l),
(1106,653,l),
(657,653,l),
(657,205,l),
(528,205,l),
(528,653,l),
(82,653,l),
(82,782,l)
);
}
);
width = 1188;
}
);
unicode = 43;
},
{
glyphname = comma;
layers = (
{
layerId = "ac52443d-76b6-4d6b-8b4e-667b68a021e3";
name = Fore;
shapes = (
{
closed = 1;
nodes = (
(143,-287,l),
(143,154,l),
(297,154,l),
(195,-287,l)
);
}
);
width = 440;
}
);
unicode = 44;
},
{
glyphname = hyphen;
layers = (
{
layerId = "ac52443d-76b6-4d6b-8b4e-667b68a021e3";
name = Fore;
shapes = (
{
closed = 1;
nodes = (
(102,743,l),
(485,743,l),
(485,627,l),
(102,627,l)
);
}
);
width = 588;
}
);
unicode = 45;
},
{
glyphname = period;
layers = (
{
layerId = "ac52443d-76b6-4d6b-8b4e-667b68a021e3";
name = Fore;
shapes = (
{
closed = 1;
nodes = (
(143,154,l),
(297,154,l),
(297,0,l),
(143,0,l)
);
}
);
width = 440;
}
);
unicode = 46;
},
{
glyphname = slash;
layers = (
{
layerId = "ac52443d-76b6-4d6b-8b4e-667b68a021e3";
name = Fore;
shapes = (
{
closed = 1;
nodes = (
(612,1556,l),
(741,1556,l),
(170,-123,l),
(41,-123,l)
);
}
);
width = 782;
}
);
unicode = 47;
},
{
glyphname = zero;
layers = (
{
layerId = "ac52443d-76b6-4d6b-8b4e-667b68a021e3";
name = Fore;
shapes = (
{
closed = 1;
nodes = (
(909,259,o),
(881.5,195,q),
(854,131,o),
(806,83,q),
(758,35,o),
(694,7.5,q),
(630,-20,o),
(557,-20,q),
(496,-20,l),
(423,-20,o),
(358.5,7.5,q),
(294,35,o),
(246,83,q),
(198,131,o),
(170.5,195,q),
(143,259,o),
(143,332,q),
(143,1102,l),
(143,1175,o),
(170.5,1239,q),
(198,1303,o),
(246,1351,q),
(294,1399,o),
(358.5,1426.5,q),
(423,1454,o),
(496,1454,q),
(557,1454,l),
(630,1454,o),
(694,1426.5,q),
(758,1399,o),
(806,1351,q),
(854,1303,o),
(881.5,1239,q),
(909,1175,o),
(909,1102,q),
(909,332,l),
(909,332,l)
);
},
{
closed = 1;
nodes = (
(780,1150,o),
(762,1191.5,q),
(744,1233,o),
(713,1264,q),
(682,1295,o),
(640.5,1313,q),
(599,1331,o),
(551,1331,q),
(502,1331,l),
(454,1331,o),
(412.5,1313,q),
(371,1295,o),
(339.5,1264,q),
(308,1233,o),
(290,1191.5,q),
(272,1150,o),
(272,1102,q),
(272,332,l),
(272,284,o),
(290,242.5,q),
(308,201,o),
(339.5,169.5,q),
(371,138,o),
(412.5,120,q),
(454,102,o),
(502,102,q),
(551,102,l),
(599,102,o),
(640.5,120,q),
(682,138,o),
(713,169.5,q),
(744,201,o),
(762,242.5,q),
(780,284,o),
(780,332,q),
(780,1102,l)
);
}
);
width = 1053;
}
);
unicode = 48;
},
{
glyphname = one;
layers = (
{
layerId = "ac52443d-76b6-4d6b-8b4e-667b68a021e3";
name = Fore;
shapes = (
{
closed = 1;
nodes = (
(164,123,l),
(506,123,l),
(506,1311,l),
(164,1167,l),
(164,1290,l),
(506,1434,l),
(635,1434,l),
(635,123,l),
(977,123,l),
(977,0,l),
(164,0,l)
);
}
);
width = 1059;
}
);
unicode = 49;
},
{
glyphname = two;
layers = (
{
layerId = "ac52443d-76b6-4d6b-8b4e-667b68a021e3";
name = Fore;
shapes = (
{
closed = 1;
nodes = (
(423,1331,o),
(381.5,1313,q),
(340,1295,o),
(309,1264,q),
(278,1233,o),
(260,1191.5,q),
(242,1150,o),
(242,1102,q),
(242,1044,l),
(113,1065,l),
(113,1102,l),
(113,1175,o),
(140.5,1239,q),
(168,1303,o),
(216,1351,q),
(264,1399,o),
(328,1426.5,q),
(392,1454,o),
(465,1454,q),
(526,1454,l),
(599,1454,o),
(663.5,1428,q),
(728,1402,o),
(776,1353,q),
(824,1304,o),
(851.5,1235.5,q),
(879,1167,o),
(879,1081,q),
(879,996,o),
(853.5,910,q),
(828,824,o),
(786.5,741,q),
(745,658,o),
(691.5,580,q),
(638,502,o),
(582,433,q),
(451,272,o),
(285,123,q),
(889,123,l),
(889,0,l),
(82,0,l),
(82,102,l),
(269,256,o),
(416,421,q),
(479,492,o),
(539,572,q),
(599,652,o),
(646,736.5,q),
(693,821,o),
(721.5,908.5,q),
(750,996,o),
(750,1081,q),
(750,1144,o),
(731,1191,q),
(712,1238,o),
(680,1269,q),
(648,1300,o),
(606.5,1315.5,q),
(565,1331,o),
(520,1331,q),
(471,1331,l)
);
}
);
width = 1012;
}
);
unicode = 50;
},
{
glyphname = three;
layers = (
{
layerId = "ac52443d-76b6-4d6b-8b4e-667b68a021e3";
name = Fore;
shapes = (
{
closed = 1;
nodes = (
(909,259,o),
(881.5,195,q),
(854,131,o),
(806,83,q),
(758,35,o),
(694,7.5,q),
(630,-20,o),
(557,-20,q),
(496,-20,l),
(423,-20,o),
(358.5,7.5,q),
(294,35,o),
(246,83,q),
(198,131,o),
(170.5,195,q),
(143,259,o),
(143,332,q),
(143,369,l),
(272,389,l),
(272,332,l),
(272,284,o),
(290,242.5,q),
(308,201,o),
(339.5,169.5,q),
(371,138,o),
(412.5,120,q),
(454,102,o),
(502,102,q),
(551,102,l),
(599,102,o),
(640.5,120,q),
(682,138,o),
(713,169.5,q),
(744,201,o),
(762,242.5,q),
(780,284,o),
(780,332,q),
(780,451,l),
(780,499,o),
(762,540.5,q),
(744,582,o),
(713,613,q),
(682,644,o),
(640.5,662,q),
(599,680,o),
(551,680,q),
(455,680,l),
(455,803,l),
(551,803,l),
(599,803,o),
(640.5,821,q),
(682,839,o),
(713,870,q),
(744,901,o),
(762,942.5,q),
(780,984,o),
(780,1032,q),
(780,1102,l),
(780,1150,o),
(762,1191.5,q),
(744,1233,o),
(713,1264,q),
(682,1295,o),
(640.5,1313,q),
(599,1331,o),
(551,1331,q),
(502,1331,l),
(454,1331,o),
(412.5,1313,q),
(371,1295,o),
(339.5,1264,q),
(308,1233,o),
(290,1191.5,q),
(272,1150,o),
(272,1102,q),
(272,1044,l),
(143,1065,l),
(143,1102,l),
(143,1175,o),
(170.5,1239,q),
(198,1303,o),
(246,1351,q),
(294,1399,o),
(358.5,1426.5,q),
(423,1454,o),
(496,1454,q),
(557,1454,l),
(630,1454,o),
(694,1426.5,q),
(758,1399,o),
(806,1351,q),
(854,1303,o),
(881.5,1239,q),
(909,1175,o),
(909,1102,q),
(909,1053,l),
(909,1002,o),
(895.5,955.5,q),
(882,909,o),
(857.5,869,q),
(833,829,o),
(799,796.5,q),
(765,764,o),
(723,741,q),
(765,719,o),
(799,686.5,q),
(833,654,o),
(857.5,614,q),
(882,574,o),
(895.5,527.5,q),
(909,481,o),
(909,430,q),
(909,332,l),
(909,332,l)
);
}
);
width = 1053;
}
);
unicode = 51;
},
{
glyphname = four;
layers = (
{
layerId = "ac52443d-76b6-4d6b-8b4e-667b68a021e3";
name = Fore;
shapes = (
{
closed = 1;
nodes = (
(766,0,l),
(637,0,l),
(637,248,l),
(61,248,l),
(61,309,l),
(698,1434,l),
(766,1434,l),
(766,371,l),
(889,371,l),
(889,248,l),
(766,248,l)
);
},
{
closed = 1;
nodes = (
(242,371,l),
(637,371,l),
(637,1081,l)
);
}
);
width = 1032;
}
);
unicode = 52;
},
{
glyphname = five;
layers = (
{
layerId = "ac52443d-76b6-4d6b-8b4e-667b68a021e3";
name = Fore;
shapes = (
{
closed = 1;
nodes = (
(909,259,o),
(881.5,195,q),
(854,131,o),
(806,83,q),
(758,35,o),
(694,7.5,q),
(630,-20,o),
(557,-20,q),
(496,-20,l),
(423,-20,o),
(358.5,7.5,q),
(294,35,o),
(246,83,q),
(198,131,o),
(170.5,195,q),
(143,259,o),
(143,332,q),
(143,354,l),
(272,354,l),
(272,332,l),
(272,284,o),
(290,242.5,q),
(308,201,o),
(339.5,169.5,q),
(371,138,o),
(412.5,120,q),
(454,102,o),
(502,102,q),
(551,102,l),
(599,102,o),
(640.5,120,q),
(682,138,o),
(713,169.5,q),
(744,201,o),
(762,242.5,q),
(780,284,o),
(780,332,q),
(780,610,l),
(780,658,o),
(762,699.5,q),
(744,741,o),
(713,772.5,q),
(682,804,o),
(640.5,822,q),
(599,840,o),
(551,840,q),
(502,840,l),
(454,840,o),
(412.5,822,q),
(371,804,o),
(339.5,772.5,q),
(308,741,o),
(290,699.5,q),
(272,658,o),
(272,610,q),
(143,610,l),
(225,1434,l),
(838,1434,l),
(838,1311,l),
(346,1311,l),
(299,870,l),
(345,914,o),
(406,938.5,q),
(467,963,o),
(537,963,q),
(557,963,l),
(630,963,o),
(694,935.5,q),
(758,908,o),
(806,860,q),
(854,812,o),
(881.5,747.5,q),
(909,683,o),
(909,610,q),
(909,332,l),
(909,332,l)
);
}
);
width = 1053;
}
);
unicode = 53;
},
{
glyphname = six;
layers = (
{
layerId = "ac52443d-76b6-4d6b-8b4e-667b68a021e3";
name = Fore;
shapes = (
{
closed = 1;
nodes = (
(930,259,o),
(902.5,195,q),
(875,131,o),
(827,83,q),
(779,35,o),
(715,7.5,q),
(651,-20,o),
(578,-20,q),
(516,-20,l),
(443,-20,o),
(379,7.5,q),
(315,35,o),
(267,83,q),
(219,131,o),
(191.5,195,q),
(164,259,o),
(164,332,q),
(164,1102,l),
(164,1175,o),
(191.5,1239,q),
(219,1303,o),
(267,1351,q),
(315,1399,o),
(379,1426.5,q),
(443,1454,o),
(516,1454,q),
(578,1454,l),
(651,1454,o),
(715,1426.5,q),
(779,1399,o),
(827,1351,q),
(875,1303,o),
(902.5,1239,q),
(930,1175,o),
(930,1102,q),
(930,1065,l),
(801,1044,l),
(801,1102,l),
(801,1150,o),
(783,1191.5,q),
(765,1233,o),
(733.5,1264,q),
(702,1295,o),
(660.5,1313,q),
(619,1331,o),
(571,1331,q),
(522,1331,l),
(474,1331,o),
(432.5,1313,q),
(391,1295,o),
(360,1264,q),
(329,1233,o),
(311,1191.5,q),
(293,1150,o),
(293,1102,q),
(293,745,l),
(342,799,o),
(410.5,831.5,q),
(479,864,o),
(557,864,q),
(578,864,l),
(651,864,o),
(715,836.5,q),
(779,809,o),
(827,761,q),
(875,713,o),
(902.5,649,q),
(930,585,o),
(930,512,q),
(930,332,l),
(930,332,l)
);
},
{
closed = 1;
nodes = (
(801,560,o),
(783,601.5,q),
(765,643,o),
(733.5,674,q),
(702,705,o),
(660.5,723,q),
(619,741,o),
(571,741,q),
(522,741,l),
(474,741,o),
(432.5,723,q),
(391,705,o),
(360,674,q),
(329,643,o),
(311,601.5,q),
(293,560,o),
(293,512,q),
(293,332,l),
(293,284,o),
(311,242.5,q),
(329,201,o),
(360,169.5,q),
(391,138,o),
(432.5,120,q),
(474,102,o),
(522,102,q),
(571,102,l),
(619,102,o),
(660.5,120,q),
(702,138,o),
(733.5,169.5,q),
(765,201,o),
(783,242.5,q),
(801,284,o),
(801,332,q),
(801,512,l)
);
}
);
width = 1053;
}
);
unicode = 54;
},
{
glyphname = seven;
layers = (
{
layerId = "ac52443d-76b6-4d6b-8b4e-667b68a021e3";
name = Fore;
shapes = (
{
closed = 1;
nodes = (
(254,0,l),
(791,1311,l),
(293,1311,l),
(293,1120,l),
(164,1120,l),
(164,1434,l),
(950,1434,l),
(950,1372,l),
(389,0,l)
);
}
);
width = 1053;
}
);
unicode = 55;
},
{
glyphname = eight;
layers = (
{
layerId = "ac52443d-76b6-4d6b-8b4e-667b68a021e3";
name = Fore;
shapes = (
{
closed = 1;
nodes = (
(909,259,o),
(881.5,195,q),
(854,131,o),
(806,83,q),
(758,35,o),
(694,7.5,q),
(630,-20,o),
(557,-20,q),
(496,-20,l),
(423,-20,o),
(358.5,7.5,q),
(294,35,o),
(246,83,q),
(198,131,o),
(170.5,195,q),
(143,259,o),
(143,332,q),
(143,451,l),
(143,542,o),
(185.5,617.5,q),
(228,693,o),
(297,741,q),
(228,789,o),
(185.5,865,q),
(143,941,o),
(143,1032,q),
(143,1102,l),
(143,1175,o),
(170.5,1239,q),
(198,1303,o),
(246,1351,q),
(294,1399,o),
(358.5,1426.5,q),
(423,1454,o),
(496,1454,q),
(557,1454,l),
(630,1454,o),
(694,1426.5,q),
(758,1399,o),
(806,1351,q),
(854,1303,o),
(881.5,1239,q),
(909,1175,o),
(909,1102,q),
(909,1032,l),
(909,941,o),
(867,865,q),
(825,789,o),
(756,741,q),
(825,693,o),
(867,617.5,q),
(909,542,o),
(909,451,q),
(909,332,l),
(909,332,l)
);
},
{
closed = 1;
nodes = (
(780,1150,o),
(762,1191.5,q),
(744,1233,o),
(713,1264,q),
(682,1295,o),
(640.5,1313,q),
(599,1331,o),
(551,1331,q),
(502,1331,l),
(454,1331,o),
(412.5,1313,q),
(371,1295,o),
(339.5,1264,q),
(308,1233,o),
(290,1191.5,q),
(272,1150,o),
(272,1102,q),
(272,1032,l),
(272,984,o),
(290,942.5,q),
(308,901,o),
(339.5,870,q),
(371,839,o),
(412.5,821,q),
(454,803,o),
(502,803,q),
(551,803,l),
(599,803,o),
(640.5,821,q),
(682,839,o),
(713,870,q),
(744,901,o),
(762,942.5,q),
(780,984,o),
(780,1032,q),
(780,1102,l)
);
},
{
closed = 1;
nodes = (
(780,499,o),
(762,540.5,q),
(744,582,o),
(713,613,q),
(682,644,o),
(640.5,662,q),
(599,680,o),
(551,680,q),
(502,680,l),
(454,680,o),
(412.5,662,q),
(371,644,o),
(339.5,613,q),
(308,582,o),
(290,540.5,q),
(272,499,o),
(272,451,q),
(272,332,l),
(272,284,o),
(290,242.5,q),
(308,201,o),
(339.5,169.5,q),
(371,138,o),
(412.5,120,q),
(454,102,o),
(502,102,q),
(551,102,l),
(599,102,o),
(640.5,120,q),
(682,138,o),
(713,169.5,q),
(744,201,o),
(762,242.5,q),
(780,284,o),
(780,332,q),
(780,451,l)
);
}
);
width = 1053;
}
);
unicode = 56;
},
{
glyphname = nine;
layers = (
{
layerId = "ac52443d-76b6-4d6b-8b4e-667b68a021e3";
name = Fore;
shapes = (
{
closed = 1;
nodes = (
(930,259,o),
(902.5,195,q),
(875,131,o),
(827,83,q),
(779,35,o),
(715,7.5,q),
(651,-20,o),
(578,-20,q),
(516,-20,l),
(443,-20,o),
(379,7.5,q),
(315,35,o),
(267,83,q),
(219,131,o),
(191.5,195,q),
(164,259,o),
(164,332,q),
(164,369,l),
(293,389,l),
(293,332,l),
(293,284,o),
(311,242.5,q),
(329,201,o),
(360,169.5,q),
(391,138,o),
(432.5,120,q),
(474,102,o),
(522,102,q),
(571,102,l),
(619,102,o),
(660.5,120,q),
(702,138,o),
(733.5,169.5,q),
(765,201,o),
(783,242.5,q),
(801,284,o),
(801,332,q),
(801,688,l),
(751,634,o),
(683,601.5,q),
(615,569,o),
(537,569,q),
(516,569,l),
(443,569,o),
(379,596.5,q),
(315,624,o),
(267,672,q),
(219,720,o),
(191.5,784.5,q),
(164,849,o),
(164,922,q),
(164,1102,l),
(164,1175,o),
(191.5,1239,q),
(219,1303,o),
(267,1351,q),
(315,1399,o),
(379,1426.5,q),
(443,1454,o),
(516,1454,q),
(578,1454,l),
(651,1454,o),
(715,1426.5,q),
(779,1399,o),
(827,1351,q),
(875,1303,o),
(902.5,1239,q),
(930,1175,o),
(930,1102,q),
(930,332,l),
(930,332,l)
);
},
{
closed = 1;
nodes = (
(801,1150,o),
(783,1191.5,q),
(765,1233,o),
(733.5,1264,q),
(702,1295,o),
(660.5,1313,q),
(619,1331,o),
(571,1331,q),
(522,1331,l),
(474,1331,o),
(432.5,1313,q),
(391,1295,o),
(360,1264,q),
(329,1233,o),
(311,1191.5,q),
(293,1150,o),
(293,1102,q),
(293,922,l),
(293,874,o),
(311,832.5,q),
(329,791,o),
(360,759.5,q),
(391,728,o),
(432.5,710,q),
(474,692,o),
(522,692,q),
(571,692,l),
(619,692,o),
(660.5,710,q),
(702,728,o),
(733.5,759.5,q),
(765,791,o),
(783,832.5,q),
(801,874,o),
(801,922,q),
(801,1102,l)
);
}
);
width = 1053;
}
);
unicode = 57;
},
{
glyphname = colon;
layers = (
{
layerId = "ac52443d-76b6-4d6b-8b4e-667b68a021e3";
name = Fore;
shapes = (
{
closed = 1;
nodes = (
(143,1024,l),
(297,1024,l),
(297,870,l),
(143,870,l)
);
},
{
closed = 1;
nodes = (
(143,154,l),
(297,154,l),
(297,0,l),
(143,0,l)
);
}
);
width = 440;
}
);
unicode = 58;
},
{
glyphname = semicolon;
layers = (
{
layerId = "ac52443d-76b6-4d6b-8b4e-667b68a021e3";
name = Fore;
shapes = (
{
closed = 1;
nodes = (
(143,1024,l),
(297,1024,l),
(297,870,l),
(143,870,l)
);
},
{
closed = 1;
nodes = (
(143,-287,l),
(143,154,l),
(297,154,l),
(195,-287,l)
);
}
);
width = 440;
}
);
unicode = 59;
},
{
glyphname = less;
layers = (
{
layerId = "ac52443d-76b6-4d6b-8b4e-667b68a021e3";
name = Fore;
shapes = (
{
closed = 1;
nodes = (
(1126,1106,l),
(248,717,l),
(1126,330,l),
(1126,188,l),
(102,645,l),
(102,791,l),
(1126,1247,l)
);
}
);
width = 1249;
}
);
unicode = 60;
},
{
glyphname = equal;
layers = (
{
layerId = "ac52443d-76b6-4d6b-8b4e-667b68a021e3";
name = Fore;
shapes = (
{
closed = 1;
nodes = (
(1188,844,l),
(164,844,l),
(164,973,l),
(1188,973,l)
);
},
{
closed = 1;
nodes = (
(1188,463,l),
(164,463,l),
(164,592,l),
(1188,592,l)
);
}
);
width = 1352;
}
);
unicode = 61;
},
{
glyphname = greater;
layers = (
{
layerId = "ac52443d-76b6-4d6b-8b4e-667b68a021e3";
name = Fore;
shapes = (
{
closed = 1;
nodes = (
(123,1106,l),
(123,1247,l),
(1147,791,l),
(1147,645,l),
(123,188,l),
(123,330,l),
(999,717,l)
);
}
);
width = 1249;
}
);
unicode = 62;
},
{
glyphname = question;
layers = (
{
layerId = "ac52443d-76b6-4d6b-8b4e-667b68a021e3";
name = Fore;
shapes = (
{
closed = 1;
nodes = (
(332,154,l),
(485,154,l),
(485,0,l),
(332,0,l)
);
},
{
closed = 1;
nodes = (
(344,434,l),
(344,473,l),
(344,539,o),
(360,588,q),
(376,637,o),
(402.5,674,q),
(429,711,o),
(462.5,740,q),
(496,769,o),
(531.5,795.5,q),
(567,822,o),
(600.5,849,q),
(634,876,o),
(660.5,909,q),
(687,942,o),
(703,984,q),
(719,1026,o),
(719,1083,q),
(719,1102,l),
(719,1150,o),
(701,1191.5,q),
(683,1233,o),
(651.5,1264,q),
(620,1295,o),
(578.5,1313,q),
(537,1331,o),
(489,1331,q),
(461,1331,l),
(413,1331,o),
(371.5,1313,q),
(330,1295,o),
(298.5,1264,q),
(267,1233,o),
(249,1191.5,q),
(231,1150,o),
(231,1102,q),
(231,1044,l),
(102,1065,l),
(102,1102,l),
(102,1175,o),
(129.5,1239,q),
(157,1303,o),
(205,1351,q),
(253,1399,o),
(317.5,1426.5,q),
(382,1454,o),
(455,1454,q),
(496,1454,l),
(569,1454,o),
(633,1426.5,q),
(697,1399,o),
(745,1351,q),
(793,1303,o),
(820.5,1239,q),
(848,1175,o),
(848,1102,q),
(848,1083,l),
(848,1014,o),
(832,962,q),
(816,910,o),
(789.5,870,q),
(763,830,o),
(729.5,799,q),
(696,768,o),
(660.5,741,q),
(625,714,o),
(591.5,688,q),
(558,662,o),
(531.5,631,q),
(505,600,o),
(489,562,q),
(473,524,o),
(473,473,q),
(473,434,l)
);
}
);
width = 950;
}
);
unicode = 63;
},
{
glyphname = at;
layers = (
{
layerId = "ac52443d-76b6-4d6b-8b4e-667b68a021e3";
name = Fore;
shapes = (
{
closed = 1;
nodes = (
(1291,154,o),
(1330.5,106.5,q),
(1370,59,o),
(1454,59,q),
(1515,59,o),
(1573,103,q),
(1631,147,o),
(1676,225.5,q),
(1721,304,o),
(1748.5,412.5,q),
(1776,521,o),
(1776,649,q),
(1776,796,o),
(1732.5,922,q),
(1689,1048,o),
(1606.5,1139.5,q),
(1524,1231,o),
(1403.5,1283,q),
(1283,1335,o),
(1128,1335,q),
(1005,1335,o),
(894,1300,q),
(783,1265,o),
(687.5,1202,q),
(592,1139,o),
(515,1051.5,q),
(438,964,o),
(383.5,858,q),
(329,752,o),
(299.5,632,q),
(270,512,o),
(270,383,q),
(270,236,o),
(310,109,q),
(350,-18,o),
(429,-111.5,q),
(508,-205,o),
(624.5,-258,q),
(741,-311,o),
(895,-311,q),
(951,-311,o),
(1004.5,-303.5,q),
(1058,-296,o),
(1106,-284,q),
(1154,-272,o),
(1194.5,-256,q),
(1235,-240,o),
(1264,-223,q),
(1305,-317,l),
(1257,-346,o),
(1203,-367.5,q),
(1149,-389,o),
(1093.5,-403,q),
(1038,-417,o),
(983.5,-423.5,q),
(929,-430,o),
(879,-430,q),
(702,-430,o),
(565,-369,q),
(428,-308,o),
(334.5,-201,q),
(241,-94,o),
(192,51.5,q),
(143,197,o),
(143,367,q),
(143,513,o),
(178,650.5,q),
(213,788,o),
(277.5,909,q),
(342,1030,o),
(433,1130,q),
(524,1230,o),
(635,1302,q),
(746,1374,o),
(875,1414,q),
(1004,1454,o),
(1145,1454,q),
(1322,1454,o),
(1462.5,1394,q),
(1603,1334,o),
(1701,1228.5,q),
(1799,1123,o),
(1851,979,q),
(1903,835,o),
(1903,666,q),
(1903,585,o),
(1890,500.5,q),
(1877,416,o),
(1851,336,q),
(1825,256,o),
(1786,186,q),
(1747,116,o),
(1694.5,63,q),
(1642,10,o),
(1576,-20.5,q),
(1510,-51,o),
(1430,-51,q),
(1375,-51,o),
(1334,-39,q),
(1293,-27,o),
(1262.5,-6.5,q),
(1232,14,o),
(1210.5,42.5,q),
(1189,71,o),
(1174,104,q),
(1123,47,o),
(1055,13.5,q),
(987,-20,o),
(911,-20,q),
(881,-20,l),
(824,-20,o),
(776.5,0,q),
(729,20,o),
(694.5,54.5,q),
(660,89,o),
(640.5,136,q),
(621,183,o),
(621,238,q),
(621,249,o),
(621,259.5,q),
(621,270,o),
(623,281,q),
(686,743,l),
(695,805,o),
(726.5,860,q),
(758,915,o),
(805,956,q),
(852,997,o),
(910.5,1020.5,q),
(969,1044,o),
(1030,1044,q),
(1061,1044,l),
(1136,1044,o),
(1195,1010.5,q),
(1254,977,o),
(1286,920,q),
(1370,1024,l),
(1411,1024,l),
(1305,254,l)
);
},
{
closed = 1;
nodes = (
(743,268,o),
(742,262,q),
(741,256,o),
(741,250,q),
(741,217,o),
(752.5,189,q),
(764,161,o),
(785,140,q),
(806,119,o),
(834.5,107.5,q),
(863,96,o),
(897,96,q),
(979,96,l),
(1016,96,o),
(1050,110,q),
(1084,124,o),
(1111.5,148,q),
(1139,172,o),
(1157.5,204.5,q),
(1176,237,o),
(1182,274,q),
(1249,750,l),
(1251,756,o),
(1251,763,q),
(1251,770,o),
(1251,776,q),
(1251,808,o),
(1239.5,836,q),
(1228,864,o),
(1207.5,884.5,q),
(1187,905,o),
(1158.5,916.5,q),
(1130,928,o),
(1096,928,q),
(1014,928,l),
(977,928,o),
(942.5,914,q),
(908,900,o),
(880.5,876,q),
(853,852,o),
(834.5,819.5,q),
(816,787,o),
(811,750,q),
(743,274,l)
);
}
);
width = 2046;
}
);
unicode = 64;
},
{
glyphname = A;
layers = (
{
layerId = "ac52443d-76b6-4d6b-8b4e-667b68a021e3";
name = Fore;
shapes = (
{
closed = 1;
nodes = (
(248,334,l),
(154,0,l),
(20,0,l),
(440,1434,l),
(508,1434,l),
(930,0,l),
(797,0,l),
(702,334,l)
);
},
{
closed = 1;
nodes = (
(668,457,l),
(479,1118,l),
(475,1171,l),
(471,1118,l),
(283,457,l)
);
}
);
width = 950;
}
);
unicode = 65;
},
{
glyphname = B;
layers = (
{
layerId = "ac52443d-76b6-4d6b-8b4e-667b68a021e3";
name = Fore;
shapes = (
{
closed = 1;
nodes = (
(971,279,o),
(943.5,215,q),
(916,151,o),
(868,103,q),
(820,55,o),
(755.5,27.5,q),
(691,0,o),
(618,0,q),
(164,0,l),
(164,1434,l),
(618,1434,l),
(691,1434,o),
(755.5,1406.5,q),
(820,1379,o),
(868,1331,q),
(916,1283,o),
(943.5,1218.5,q),
(971,1154,o),
(971,1081,q),
(971,1067,l),
(971,1016,o),
(957.5,969.5,q),
(944,923,o),
(919,883,q),
(894,843,o),
(860,810.5,q),
(826,778,o),
(784,756,q),
(826,734,o),
(860,701.5,q),
(894,669,o),
(919,628.5,q),
(944,588,o),
(957.5,541.5,q),
(971,495,o),
(971,444,q),
(971,352,l),
(971,352,l)
);
},
{
closed = 1;
nodes = (
(842,513,o),
(824,554.5,q),
(806,596,o),
(774.5,627,q),
(743,658,o),
(701.5,676,q),
(660,694,o),
(612,694,q),
(293,694,l),
(293,123,l),
(612,123,l),
(660,123,o),
(701.5,141,q),
(743,159,o),
(774.5,190,q),
(806,221,o),
(824,262.5,q),
(842,304,o),
(842,352,q),
(842,465,l)
);
},
{
closed = 1;
nodes = (
(842,1129,o),
(824,1170.5,q),
(806,1212,o),
(774.5,1243.5,q),
(743,1275,o),
(701.5,1293,q),
(660,1311,o),
(612,1311,q),
(293,1311,l),
(293,817,l),
(612,817,l),
(660,817,o),
(701.5,835,q),
(743,853,o),
(774.5,884.5,q),
(806,916,o),
(824,957.5,q),
(842,999,o),
(842,1047,q),
(842,1081,l)
);
}
);
width = 1053;
}
);
unicode = 66;
},
{
glyphname = C;
layers = (
{
layerId = "ac52443d-76b6-4d6b-8b4e-667b68a021e3";
name = Fore;
shapes = (
{
closed = 1;
nodes = (
(950,259,o),
(922.5,195,q),
(895,131,o),
(847,83,q),
(799,35,o),
(735,7.5,q),
(671,-20,o),
(598,-20,q),
(496,-20,l),
(423,-20,o),
(358.5,7.5,q),
(294,35,o),
(246,83,q),
(198,131,o),
(170.5,195,q),
(143,259,o),
(143,332,q),
(143,1102,l),
(143,1175,o),
(170.5,1239,q),
(198,1303,o),
(246,1351,q),
(294,1399,o),
(358.5,1426.5,q),
(423,1454,o),
(496,1454,q),
(598,1454,l),
(671,1454,o),
(735,1426.5,q),
(799,1399,o),
(847,1351,q),
(895,1303,o),
(922.5,1239,q),
(950,1175,o),
(950,1102,q),
(950,1044,l),
(821,1024,l),
(821,1102,l),
(821,1150,o),
(803,1191.5,q),
(785,1233,o),
(754,1264,q),
(723,1295,o),
(681.5,1313,q),
(640,1331,o),
(592,1331,q),
(502,1331,l),
(454,1331,o),
(412.5,1313,q),
(371,1295,o),
(339.5,1264,q),
(308,1233,o),
(290,1191.5,q),
(272,1150,o),
(272,1102,q),
(272,332,l),
(272,284,o),
(290,242.5,q),
(308,201,o),
(339.5,169.5,q),
(371,138,o),
(412.5,120,q),
(454,102,o),
(502,102,q),
(592,102,l),
(640,102,o),
(681.5,120,q),
(723,138,o),
(754,169.5,q),
(785,201,o),
(803,242.5,q),
(821,284,o),
(821,332,q),
(821,410,l),
(950,389,l),
(950,332,l),
(950,332,l)
);
}
);
width = 1073;
}
);
unicode = 67;
},
{
glyphname = D;
layers = (
{
layerId = "ac52443d-76b6-4d6b-8b4e-667b68a021e3";
name = Fore;
shapes = (
{
closed = 1;
nodes = (
(971,279,o),
(943.5,215,q),
(916,151,o),
(868,103,q),
(820,55,o),
(755.5,27.5,q),
(691,0,o),
(618,0,q),
(164,0,l),
(164,1434,l),
(618,1434,l),
(691,1434,o),
(755.5,1406.5,q),
(820,1379,o),
(868,1331,q),
(916,1283,o),
(943.5,1218.5,q),
(971,1154,o),
(971,1081,q),
(971,352,l),
(971,352,l)
);
},
{
closed = 1;
nodes = (
(842,1129,o),
(824,1170.5,q),
(806,1212,o),
(774.5,1243.5,q),
(743,1275,o),
(701.5,1293,q),
(660,1311,o),
(612,1311,q),
(293,1311,l),
(293,123,l),
(612,123,l),
(660,123,o),
(701.5,141,q),
(743,159,o),
(774.5,190,q),
(806,221,o),
(824,262.5,q),
(842,304,o),
(842,352,q),
(842,1081,l)
);
}
);
width = 1114;
}
);
unicode = 68;
},
{
glyphname = E;
layers = (
{
layerId = "ac52443d-76b6-4d6b-8b4e-667b68a021e3";
name = Fore;
shapes = (
{
closed = 1;
nodes = (
(164,1434,l),
(971,1434,l),
(971,1311,l),
(293,1311,l),
(293,778,l),
(842,778,l),
(842,655,l),
(293,655,l),
(293,123,l),
(971,123,l),
(971,0,l),
(164,0,l)
);
}
);
width = 1053;
}
);
unicode = 69;
},
{
glyphname = F;
layers = (
{
layerId = "ac52443d-76b6-4d6b-8b4e-667b68a021e3";
name = Fore;
shapes = (
{
closed = 1;
nodes = (
(293,778,l),
(842,778,l),
(842,655,l),
(293,655,l),
(293,0,l),
(164,0,l),
(164,1434,l),
(971,1434,l),
(971,1311,l),
(293,1311,l)
);
}
);
width = 1012;
}
);
unicode = 70;
},
{
glyphname = G;
layers = (
{
layerId = "ac52443d-76b6-4d6b-8b4e-667b68a021e3";
name = Fore;
shapes = (
{
closed = 1;
nodes = (
(909,0,l),
(834,115,l),
(787,53,o),
(720,16.5,q),
(653,-20,o),
(571,-20,q),
(496,-20,l),
(423,-20,o),
(358.5,7.5,q),
(294,35,o),
(246,83,q),
(198,131,o),
(170.5,195,q),
(143,259,o),
(143,332,q),
(143,1102,l),
(143,1175,o),
(170.5,1239,q),
(198,1303,o),
(246,1351,q),
(294,1399,o),
(358.5,1426.5,q),
(423,1454,o),
(496,1454,q),
(598,1454,l),
(671,1454,o),
(735,1426.5,q),
(799,1399,o),
(847,1351,q),
(895,1303,o),
(922.5,1239,q),
(950,1175,o),
(950,1102,q),
(950,1044,l),
(821,1024,l),
(821,1102,l),
(821,1150,o),
(803,1191.5,q),
(785,1233,o),
(754,1264,q),
(723,1295,o),
(681.5,1313,q),
(640,1331,o),
(592,1331,q),
(502,1331,l),
(454,1331,o),
(412.5,1313,q),
(371,1295,o),
(339.5,1264,q),
(308,1233,o),
(290,1191.5,q),
(272,1150,o),
(272,1102,q),
(272,332,l),
(272,284,o),
(290,242.5,q),
(308,201,o),
(339.5,169.5,q),
(371,138,o),
(412.5,120,q),
(454,102,o),
(502,102,q),
(592,102,l),
(640,102,o),
(681.5,120,q),
(723,138,o),
(754,169.5,q),
(785,201,o),
(803,242.5,q),
(821,284,o),
(821,332,q),
(821,631,l),
(592,631,l),
(592,754,l),
(950,754,l),
(950,0,l)
);
}
);
width = 1094;
}
);
unicode = 71;
},
{
glyphname = H;
layers = (
{
layerId = "ac52443d-76b6-4d6b-8b4e-667b68a021e3";
name = Fore;
shapes = (
{
closed = 1;
nodes = (
(842,655,l),
(293,655,l),
(293,0,l),
(164,0,l),
(164,1434,l),
(293,1434,l),
(293,778,l),
(842,778,l),
(842,1434,l),
(971,1434,l),
(971,0,l),
(842,0,l)
);
}
);
width = 1135;
}
);
unicode = 72;
},
{
glyphname = I;
layers = (
{
layerId = "ac52443d-76b6-4d6b-8b4e-667b68a021e3";
name = Fore;
shapes = (
{
closed = 1;
nodes = (
(164,1434,l),
(293,1434,l),
(293,0,l),
(164,0,l)
);
}
);
width = 457;
}
);
unicode = 73;
},
{
glyphname = J;
layers = (
{
layerId = "ac52443d-76b6-4d6b-8b4e-667b68a021e3";
name = Fore;
shapes = (
{
closed = 1;
nodes = (
(807,259,o),
(779.5,195,q),
(752,131,o),
(704,83,q),
(656,35,o),
(592,7.5,q),
(528,-20,o),
(455,-20,q),
(414,-20,l),
(341,-20,o),
(276.5,7.5,q),
(212,35,o),
(164,83,q),
(116,131,o),
(88.5,195,q),
(61,259,o),
(61,332,q),
(61,389,l),
(190,410,l),
(190,332,l),
(190,284,o),
(208,242.5,q),
(226,201,o),
(257.5,169.5,q),
(289,138,o),
(330.5,120,q),
(372,102,o),
(420,102,q),
(449,102,l),
(496,102,o),
(538,120,q),
(580,138,o),
(611,169.5,q),
(642,201,o),
(660,242.5,q),
(678,284,o),
(678,332,q),
(678,1434,l),
(807,1434,l),
(807,332,l),
(807,332,l)
);
}
);
width = 930;
}
);
unicode = 74;
},
{
glyphname = K;
layers = (
{
layerId = "ac52443d-76b6-4d6b-8b4e-667b68a021e3";
name = Fore;
shapes = (
{
closed = 1;
nodes = (
(324,717,l),
(864,1434,l),
(1024,1434,l),
(473,717,l),
(1024,0,l),
(864,0,l)
);
},
{
closed = 1;
nodes = (
(164,1434,l),
(293,1434,l),
(293,0,l),
(164,0,l)
);
}
);
width = 1065;
}
);
unicode = 75;
},
{
glyphname = L;
layers = (
{
layerId = "ac52443d-76b6-4d6b-8b4e-667b68a021e3";
name = Fore;
shapes = (
{
closed = 1;
nodes = (
(143,1434,l),
(272,1434,l),
(272,123,l),
(821,123,l),
(821,0,l),
(143,0,l)
);
}
);
width = 862;
}
);
unicode = 76;
},
{
glyphname = M;
layers = (
{
layerId = "ac52443d-76b6-4d6b-8b4e-667b68a021e3";
name = Fore;
shapes = (
{
closed = 1;
nodes = (
(1047,983,l),
(1038,922,l),
(705,0,l),
(637,0,l),
(301,922,l),
(293,983,l),
(293,0,l),
(164,0,l),
(164,1434,l),
(231,1434,l),
(666,258,l),
(670,205,l),
(674,258,l),
(1108,1434,l),
(1176,1434,l),
(1176,0,l),
(1047,0,l)
);
}
);
width = 1339;
}
);
unicode = 77;
},
{
glyphname = N;
layers = (
{
layerId = "ac52443d-76b6-4d6b-8b4e-667b68a021e3";
name = Fore;
shapes = (
{
closed = 1;
nodes = (
(305,1044,l),
(293,1106,l),
(293,0,l),
(164,0,l),
(164,1434,l),
(231,1434,l),
(829,389,l),
(842,328,l),
(842,1434,l),
(971,1434,l),
(971,0,l),
(903,0,l)
);
}
);
width = 1135;
}
);
unicode = 78;
},
{
glyphname = O;
layers = (
{
layerId = "ac52443d-76b6-4d6b-8b4e-667b68a021e3";
name = Fore;
shapes = (
{
closed = 1;
nodes = (
(950,259,o),
(922.5,195,q),
(895,131,o),
(847,83,q),
(799,35,o),
(735,7.5,q),
(671,-20,o),
(598,-20,q),
(496,-20,l),
(423,-20,o),
(358.5,7.5,q),
(294,35,o),
(246,83,q),
(198,131,o),
(170.5,195,q),
(143,259,o),
(143,332,q),
(143,1102,l),
(143,1175,o),
(170.5,1239,q),
(198,1303,o),
(246,1351,q),
(294,1399,o),
(358.5,1426.5,q),
(423,1454,o),
(496,1454,q),
(598,1454,l),
(671,1454,o),
(735,1426.5,q),
(799,1399,o),
(847,1351,q),
(895,1303,o),
(922.5,1239,q),
(950,1175,o),
(950,1102,q),
(950,332,l),
(950,332,l)
);
},
{
closed = 1;
nodes = (
(821,1150,o),
(803,1191.5,q),
(785,1233,o),
(754,1264,q),
(723,1295,o),
(681.5,1313,q),
(640,1331,o),
(592,1331,q),
(502,1331,l),
(454,1331,o),
(412.5,1313,q),
(371,1295,o),
(339.5,1264,q),
(308,1233,o),
(290,1191.5,q),
(272,1150,o),
(272,1102,q),
(272,332,l),
(272,284,o),
(290,242.5,q),
(308,201,o),
(339.5,169.5,q),
(371,138,o),
(412.5,120,q),
(454,102,o),
(502,102,q),
(592,102,l),
(640,102,o),
(681.5,120,q),
(723,138,o),
(754,169.5,q),
(785,201,o),
(803,242.5,q),
(821,284,o),
(821,332,q),
(821,1102,l)
);
}
);
width = 1094;
}
);
unicode = 79;
},
{
glyphname = P;
layers = (
{
layerId = "ac52443d-76b6-4d6b-8b4e-667b68a021e3";
name = Fore;
shapes = (
{
closed = 1;
nodes = (
(971,830,o),
(943.5,766,q),
(916,702,o),
(868,654,q),
(820,606,o),
(755.5,578.5,q),
(691,551,o),
(618,551,q),
(293,551,l),
(293,0,l),
(164,0,l),
(164,1434,l),
(618,1434,l),
(691,1434,o),
(755.5,1406.5,q),
(820,1379,o),
(868,1331,q),
(916,1283,o),
(943.5,1218.5,q),
(971,1154,o),
(971,1081,q),
(971,903,l),
(971,903,l)
);
},
{
closed = 1;
nodes = (
(842,1129,o),
(824,1170.5,q),
(806,1212,o),
(774.5,1243.5,q),
(743,1275,o),
(701.5,1293,q),
(660,1311,o),
(612,1311,q),
(293,1311,l),
(293,674,l),
(612,674,l),
(660,674,o),
(701.5,692,q),
(743,710,o),
(774.5,741,q),
(806,772,o),
(824,813.5,q),
(842,855,o),
(842,903,q),
(842,1081,l)
);
}
);
width = 1053;
}
);
unicode = 80;
},
{
glyphname = Q;
layers = (
{
layerId = "ac52443d-76b6-4d6b-8b4e-667b68a021e3";
name = Fore;
shapes = (
{
closed = 1;
nodes = (
(950,262,o),
(925,200,q),
(900,138,o),
(856,91,q),
(812,44,o),
(752.5,14.5,q),
(693,-15,o),
(625,-20,q),
(756,-315,l),
(627,-315,l),
(496,-20,l),
(423,-20,o),
(358.5,7.5,q),
(294,35,o),
(246,83,q),
(198,131,o),
(170.5,195,q),
(143,259,o),
(143,332,q),
(143,1102,l),
(143,1175,o),
(170.5,1239,q),
(198,1303,o),
(246,1351,q),
(294,1399,o),
(358.5,1426.5,q),
(423,1454,o),
(496,1454,q),
(598,1454,l),
(671,1454,o),
(735,1426.5,q),
(799,1399,o),
(847,1351,q),
(895,1303,o),
(922.5,1239,q),
(950,1175,o),
(950,1102,q),
(950,332,l),
(950,332,l)
);
},
{
closed = 1;
nodes = (
(821,1150,o),
(803,1191.5,q),
(785,1233,o),
(754,1264,q),
(723,1295,o),
(681.5,1313,q),
(640,1331,o),
(592,1331,q),
(502,1331,l),
(454,1331,o),
(412.5,1313,q),
(371,1295,o),
(339.5,1264,q),
(308,1233,o),
(290,1191.5,q),
(272,1150,o),
(272,1102,q),
(272,332,l),
(272,284,o),
(290,242.5,q),
(308,201,o),
(339.5,169.5,q),
(371,138,o),
(412.5,120,q),
(454,102,o),
(502,102,q),
(592,102,l),
(640,102,o),
(681.5,120,q),
(723,138,o),
(754,169.5,q),
(785,201,o),
(803,242.5,q),
(821,284,o),
(821,332,q),
(821,1102,l)
);
}
);
width = 1094;
}
);
unicode = 81;
},
{
glyphname = R;
layers = (
{
layerId = "ac52443d-76b6-4d6b-8b4e-667b68a021e3";
name = Fore;
shapes = (
{
closed = 1;
nodes = (
(449,612,l),
(272,612,l),
(272,0,l),
(143,0,l),
(143,1434,l),
(598,1434,l),
(671,1434,o),
(735,1406.5,q),
(799,1379,o),
(847,1331,q),
(895,1283,o),
(922.5,1218.5,q),
(950,1154,o),
(950,1081,q),
(950,965,l),
(950,892,o),
(922.5,827.5,q),
(895,763,o),
(847,715,q),
(799,667,o),
(735,639.5,q),
(671,612,o),
(598,612,q),
(987,0,l),
(838,0,l)
);
},
{
closed = 1;
nodes = (
(821,1129,o),
(803,1170.5,q),
(785,1212,o),
(754,1243.5,q),
(723,1275,o),
(681.5,1293,q),
(640,1311,o),
(592,1311,q),
(272,1311,l),
(272,735,l),
(592,735,l),
(640,735,o),
(681.5,753,q),
(723,771,o),
(754,802.5,q),
(785,834,o),
(803,875.5,q),
(821,917,o),
(821,965,q),
(821,1081,l)
);
}
);
width = 1069;
}
);
unicode = 82;
},
{
glyphname = S;
layers = (
{
layerId = "ac52443d-76b6-4d6b-8b4e-667b68a021e3";
name = Fore;
shapes = (
{
closed = 1;
nodes = (
(950,259,o),
(920.5,195,q),
(891,131,o),
(841.5,83,q),
(792,35,o),
(726.5,7.5,q),
(661,-20,o),
(588,-20,q),
(485,-20,l),
(412,-20,o),
(346.5,7.5,q),
(281,35,o),
(231.5,83,q),
(182,131,o),
(152.5,195,q),
(123,259,o),
(123,332,q),
(123,389,l),
(252,410,l),
(252,332,l),
(252,284,o),
(271.5,242.5,q),
(291,201,o),
(324,169.5,q),
(357,138,o),
(400.5,120,q),
(444,102,o),
(492,102,q),
(582,102,l),
(630,102,o),
(673,120,q),
(716,138,o),
(749,169.5,q),
(782,201,o),
(801.5,242.5,q),
(821,284,o),
(821,332,q),
(821,375,l),
(821,449,o),
(792,498,q),
(763,547,o),
(715,581.5,q),
(667,616,o),
(606.5,640,q),
(546,664,o),
(482,688,q),
(418,712,o),
(357.5,741,q),
(297,770,o),
(249,813.5,q),
(201,857,o),
(172,920,q),
(143,983,o),
(143,1075,q),
(143,1102,l),
(143,1175,o),
(170.5,1239,q),
(198,1303,o),
(246,1351,q),
(294,1399,o),
(358.5,1426.5,q),
(423,1454,o),
(496,1454,q),
(588,1454,l),
(661,1454,o),
(725,1426.5,q),
(789,1399,o),
(837,1351,q),
(885,1303,o),
(912.5,1239,q),
(940,1175,o),
(940,1102,q),
(940,1065,l),
(811,1044,l),
(811,1102,l),
(811,1150,o),
(793,1191.5,q),
(775,1233,o),
(744,1264,q),
(713,1295,o),
(671.5,1313,q),
(630,1331,o),
(582,1331,q),
(502,1331,l),
(454,1331,o),
(412.5,1313,q),
(371,1295,o),
(339.5,1264,q),
(308,1233,o),
(290,1191.5,q),
(272,1150,o),
(272,1102,q),
(272,1075,l),
(272,1006,o),
(301,959,q),
(330,912,o),
(378,878.5,q),
(426,845,o),
(486.5,820.5,q),
(547,796,o),
(611,770.5,q),
(675,745,o),
(735.5,714.5,q),
(796,684,o),
(844,639.5,q),
(892,595,o),
(921,531,q),
(950,467,o),
(950,375,q),
(950,332,l)
);
}
);
width = 1063;
}
);
unicode = 83;
},
{
glyphname = T;
layers = (
{
layerId = "ac52443d-76b6-4d6b-8b4e-667b68a021e3";
name = Fore;
shapes = (
{
closed = 1;
nodes = (
(512,0,l),
(383,0,l),
(383,1311,l),
(41,1311,l),
(41,1434,l),
(854,1434,l),
(854,1311,l),
(512,1311,l)
);
}
);
width = 895;
}
);
unicode = 84;
},
{
glyphname = U;
layers = (
{
layerId = "ac52443d-76b6-4d6b-8b4e-667b68a021e3";
name = Fore;
shapes = (
{
closed = 1;
nodes = (
(950,259,o),
(922.5,195,q),
(895,131,o),
(847,83,q),
(799,35,o),
(735,7.5,q),
(671,-20,o),
(598,-20,q),
(496,-20,l),
(423,-20,o),
(358.5,7.5,q),
(294,35,o),
(246,83,q),
(198,131,o),
(170.5,195,q),
(143,259,o),
(143,332,q),
(143,1434,l),
(272,1434,l),
(272,332,l),
(272,284,o),
(290,242.5,q),
(308,201,o),
(339.5,169.5,q),
(371,138,o),
(412.5,120,q),
(454,102,o),
(502,102,q),
(592,102,l),
(640,102,o),
(681.5,120,q),
(723,138,o),
(754,169.5,q),
(785,201,o),
(803,242.5,q),
(821,284,o),
(821,332,q),
(821,1434,l),
(950,1434,l),
(950,332,l),
(950,332,l)
);
}
);
width = 1094;
}
);
unicode = 85;
},
{
glyphname = V;
layers = (
{
layerId = "ac52443d-76b6-4d6b-8b4e-667b68a021e3";
name = Fore;
shapes = (
{
closed = 1;
nodes = (
(475,262,l),
(479,315,l),
(797,1434,l),
(930,1434,l),
(508,0,l),
(440,0,l),
(20,1434,l),
(154,1434,l),
(471,315,l)
);
}
);
width = 950;
}
);
unicode = 86;
},
{
glyphname = W;
layers = (
{
layerId = "ac52443d-76b6-4d6b-8b4e-667b68a021e3";
name = Fore;
shapes = (
{
closed = 1;
nodes = (
(1055,0,l),
(776,1079,l),
(772,1135,l),
(766,1079,l),
(489,0,l),
(422,0,l),
(41,1434,l),
(170,1434,l),
(451,344,l),
(455,291,l),
(459,344,l),
(735,1434,l),
(807,1434,l),
(1083,344,l),
(1087,291,l),
(1092,344,l),
(1372,1434,l),
(1501,1434,l),
(1122,0,l)
);
}
);
width = 1542;
}
);
unicode = 87;
},
{
glyphname = X;
layers = (
{
layerId = "ac52443d-76b6-4d6b-8b4e-667b68a021e3";
name = Fore;
shapes = (
{
closed = 1;
nodes = (
(496,596,l),
(201,0,l),
(61,0,l),
(426,737,l),
(82,1434,l),
(221,1434,l),
(496,879,l),
(770,1434,l),
(909,1434,l),
(565,737,l),
(930,0,l),
(791,0,l)
);
}
);
width = 991;
}
);
unicode = 88;
},
{
glyphname = Y;
layers = (
{
layerId = "ac52443d-76b6-4d6b-8b4e-667b68a021e3";
name = Fore;
shapes = (
{
closed = 1;
nodes = (
(541,0,l),
(412,0,l),
(412,684,l),
(41,1434,l),
(180,1434,l),
(475,838,l),
(770,1434,l),
(909,1434,l),
(541,686,l)
);
}
);
width = 950;
}
);
unicode = 89;
},
{
glyphname = Z;
layers = (
{
layerId = "ac52443d-76b6-4d6b-8b4e-667b68a021e3";
name = Fore;
shapes = (
{
closed = 1;
nodes = (
(82,61,l),
(721,1311,l),
(102,1311,l),
(102,1434,l),
(889,1434,l),
(889,1372,l),
(250,123,l),
(889,123,l),
(889,0,l),
(82,0,l)
);
}
);
width = 971;
}
);
unicode = 90;
},
{
glyphname = bracketleft;
layers = (
{
layerId = "ac52443d-76b6-4d6b-8b4e-667b68a021e3";
name = Fore;
shapes = (
{
closed = 1;
nodes = (
(164,-410,l),
(164,1606,l),
(530,1606,l),
(530,1495,l),
(287,1495,l),
(287,-299,l),
(530,-299,l),
(530,-410,l)
);
}
);
width = 633;
}
);
unicode = 91;
},
{
glyphname = backslash;
layers = (
{
layerId = "ac52443d-76b6-4d6b-8b4e-667b68a021e3";
name = Fore;
shapes = (
{
closed = 1;
nodes = (
(41,1556,l),
(170,1556,l),
(741,-123,l),
(612,-123,l)
);
}
);
width = 782;
}
);
unicode = 92;
},
{
glyphname = bracketright;
layers = (
{
layerId = "ac52443d-76b6-4d6b-8b4e-667b68a021e3";
name = Fore;
shapes = (
{
closed = 1;
nodes = (
(346,-299,l),
(346,1495,l),
(102,1495,l),
(102,1606,l),
(469,1606,l),
(469,-410,l),
(102,-410,l),
(102,-299,l)
);
}
);
width = 633;
}
);
unicode = 93;
},
{
glyphname = asciicircum;
layers = (
{
layerId = "ac52443d-76b6-4d6b-8b4e-667b68a021e3";
name = Fore;
shapes = (
{
closed = 1;
nodes = (
(844,776,l),
(551,1315,l),
(260,776,l),
(123,776,l),
(483,1434,l),
(621,1434,l),
(981,776,l)
);
}
);
width = 1104;
}
);
unicode = 94;
},
{
glyphname = underscore;
layers = (
{
layerId = "ac52443d-76b6-4d6b-8b4e-667b68a021e3";
name = Fore;
shapes = (
{
closed = 1;
nodes = (
(1124,-410,l),
(-2,-410,l),
(-2,-293,l),
(1124,-293,l)
);
}
);
width = 1122;
}
);
unicode = 95;
},
{
glyphname = grave;
layers = (
{
layerId = "ac52443d-76b6-4d6b-8b4e-667b68a021e3";
name = Fore;
shapes = (
{
closed = 1;
nodes = (
(410,1434,l),
(573,1188,l),
(481,1188,l),
(205,1434,l)
);
}
);
width = 778;
}
);
unicode = 96;
},
{
glyphname = a;
layers = (
{
layerId = "ac52443d-76b6-4d6b-8b4e-667b68a021e3";
name = Fore;
shapes = (
{
closed = 1;
nodes = (
(698,102,l),
(656,47,o),
(593,13.5,q),
(530,-20,o),
(455,-20,q),
(424,-20,l),
(362,-20,o),
(307,3.5,q),
(252,27,o),
(211,68,q),
(170,109,o),
(146.5,164,q),
(123,219,o),
(123,281,q),
(123,291,l),
(123,353,o),
(146.5,408,q),
(170,463,o),
(211,504,q),
(252,545,o),
(307,568.5,q),
(362,592,o),
(424,592,q),
(684,592,l),
(684,750,l),
(684,787,o),
(670,819.5,q),
(656,852,o),
(632,876,q),
(608,900,o),
(575.5,914,q),
(543,928,o),
(506,928,q),
(434,928,l),
(397,928,o),
(364.5,914,q),
(332,900,o),
(308,876,q),
(284,852,o),
(270,819.5,q),
(256,787,o),
(256,750,q),
(256,713,l),
(133,733,l),
(133,743,l),
(133,805,o),
(156.5,860,q),
(180,915,o),
(221,956,q),
(262,997,o),
(317,1020.5,q),
(372,1044,o),
(434,1044,q),
(506,1044,l),
(568,1044,o),
(623,1020.5,q),
(678,997,o),
(719,956,q),
(760,915,o),
(783.5,860,q),
(807,805,o),
(807,743,q),
(807,0,l),
(766,0,l)
);
},
{
closed = 1;
nodes = (
(424,496,l),
(387,496,o),
(354.5,482,q),
(322,468,o),
(298,443.5,q),
(274,419,o),
(260,386.5,q),
(246,354,o),
(246,317,q),
(246,274,l),
(246,237,o),
(260,204.5,q),
(274,172,o),
(298,148,q),
(322,124,o),
(354.5,110,q),
(387,96,o),
(424,96,q),
(506,96,l),
(543,96,o),
(575.5,110,q),
(608,124,o),
(632,148,q),
(656,172,o),
(670,204.5,q),
(684,237,o),
(684,274,q),
(684,496,l)
);
}
);
width = 930;
}
);
unicode = 97;
},
{
glyphname = b;
layers = (
{
layerId = "ac52443d-76b6-4d6b-8b4e-667b68a021e3";
name = Fore;
shapes = (
{
closed = 1;
nodes = (
(807,219,o),
(783.5,164,q),
(760,109,o),
(719,68,q),
(678,27,o),
(623,3.5,q),
(568,-20,o),
(506,-20,q),
(424,-20,l),
(362,-20,o),
(307,3.5,q),
(252,27,o),
(211,68,q),
(170,109,o),
(146.5,164,q),
(123,219,o),
(123,281,q),
(123,1434,l),
(246,1434,l),
(246,938,l),
(288,988,o),
(347,1016,q),
(406,1044,o),
(475,1044,q),
(506,1044,l),
(568,1044,o),
(623,1020.5,q),
(678,997,o),
(719,956,q),
(760,915,o),
(783.5,860,q),
(807,805,o),
(807,743,q),
(807,281,l),
(807,281,l)
);
},
{
closed = 1;
nodes = (
(684,787,o),
(670,819.5,q),
(656,852,o),
(632,876,q),
(608,900,o),
(575.5,914,q),
(543,928,o),
(506,928,q),
(424,928,l),
(387,928,o),
(354.5,914,q),
(322,900,o),
(298,876,q),
(274,852,o),
(260,819.5,q),
(246,787,o),
(246,750,q),
(246,274,l),
(246,237,o),
(260,204.5,q),
(274,172,o),
(298,148,q),
(322,124,o),
(354.5,110,q),
(387,96,o),
(424,96,q),
(506,96,l),
(543,96,o),
(575.5,110,q),
(608,124,o),
(632,148,q),
(656,172,o),
(670,204.5,q),
(684,237,o),
(684,274,q),
(684,750,l)
);
}
);
width = 930;
}
);
unicode = 98;
},
{
glyphname = c;
layers = (
{
layerId = "ac52443d-76b6-4d6b-8b4e-667b68a021e3";
name = Fore;
shapes = (
{
closed = 1;
nodes = (
(807,219,o),
(783.5,164,q),
(760,109,o),
(719,68,q),
(678,27,o),
(623,3.5,q),
(568,-20,o),
(506,-20,q),
(424,-20,l),
(362,-20,o),
(307,3.5,q),
(252,27,o),
(211,68,q),
(170,109,o),
(146.5,164,q),
(123,219,o),
(123,281,q),
(123,743,l),
(123,805,o),
(146.5,860,q),
(170,915,o),
(211,956,q),
(252,997,o),
(307,1020.5,q),
(362,1044,o),
(424,1044,q),
(506,1044,l),
(568,1044,o),
(623,1020.5,q),
(678,997,o),
(719,956,q),
(760,915,o),
(783.5,860,q),
(807,805,o),
(807,743,q),
(807,702,l),
(684,682,l),
(684,750,l),
(684,787,o),
(670,819.5,q),
(656,852,o),
(632,876,q),
(608,900,o),
(575.5,914,q),
(543,928,o),
(506,928,q),
(424,928,l),
(387,928,o),
(354.5,914,q),
(322,900,o),
(298,876,q),
(274,852,o),
(260,819.5,q),
(246,787,o),
(246,750,q),
(246,274,l),
(246,237,o),
(260,204.5,q),
(274,172,o),
(298,148,q),
(322,124,o),
(354.5,110,q),
(387,96,o),
(424,96,q),
(506,96,l),
(543,96,o),
(575.5,110,q),
(608,124,o),
(632,148,q),
(656,172,o),
(670,204.5,q),
(684,237,o),
(684,274,q),
(684,342,l),
(807,322,l),
(807,281,l),
(807,281,l)
);
}
);
width = 930;
}
);
unicode = 99;
},
{
glyphname = d;
layers = (
{
layerId = "ac52443d-76b6-4d6b-8b4e-667b68a021e3";
name = Fore;
shapes = (
{
closed = 1;
nodes = (
(698,104,l),
(656,47,o),
(593,13.5,q),
(530,-20,o),
(455,-20,q),
(424,-20,l),
(362,-20,o),
(307,3.5,q),
(252,27,o),
(211,68,q),
(170,109,o),
(146.5,164,q),
(123,219,o),
(123,281,q),
(123,743,l),
(123,805,o),
(146.5,860,q),
(170,915,o),
(211,956,q),
(252,997,o),
(307,1020.5,q),
(362,1044,o),
(424,1044,q),
(455,1044,l),
(524,1044,o),
(583,1016,q),
(642,988,o),
(684,938,q),
(684,1434,l),
(807,1434,l),
(807,0,l),
(766,0,l)
);
},
{
closed = 1;
nodes = (
(684,787,o),
(670,819.5,q),
(656,852,o),
(632,876,q),
(608,900,o),
(575.5,914,q),
(543,928,o),
(506,928,q),
(424,928,l),
(387,928,o),
(354.5,914,q),
(322,900,o),
(298,876,q),
(274,852,o),
(260,819.5,q),
(246,787,o),
(246,750,q),
(246,274,l),
(246,237,o),
(260,204.5,q),
(274,172,o),
(298,148,q),
(322,124,o),
(354.5,110,q),
(387,96,o),
(424,96,q),
(506,96,l),
(543,96,o),
(575.5,110,q),
(608,124,o),
(632,148,q),
(656,172,o),
(670,204.5,q),
(684,237,o),
(684,274,q),
(684,750,l)
);
}
);
width = 930;
}
);
unicode = 100;
},
{
glyphname = e;
layers = (
{
layerId = "ac52443d-76b6-4d6b-8b4e-667b68a021e3";
name = Fore;
shapes = (
{
closed = 1;
nodes = (
(807,219,o),
(783.5,164,q),
(760,109,o),
(719,68,q),
(678,27,o),
(623,3.5,q),
(568,-20,o),
(506,-20,q),
(424,-20,l),
(362,-20,o),
(307,3.5,q),
(252,27,o),
(211,68,q),
(170,109,o),
(146.5,164,q),
(123,219,o),
(123,281,q),
(123,743,l),
(123,805,o),
(146.5,860,q),
(170,915,o),
(211,956,q),
(252,997,o),
(307,1020.5,q),
(362,1044,o),
(424,1044,q),
(506,1044,l),
(568,1044,o),
(623,1020.5,q),
(678,997,o),
(719,956,q),
(760,915,o),
(783.5,860,q),
(807,805,o),
(807,743,q),
(807,502,l),
(246,502,l),
(246,274,l),
(246,237,o),
(260,204.5,q),
(274,172,o),
(298,148,q),
(322,124,o),
(354.5,110,q),
(387,96,o),
(424,96,q),
(506,96,l),
(543,96,o),
(575.5,110,q),
(608,124,o),
(632,148,q),
(656,172,o),
(670,204.5,q),
(684,237,o),
(684,274,q),
(684,342,l),
(807,322,l),
(807,281,l),
(807,281,l)
);
},
{
closed = 1;
nodes = (
(684,787,o),
(670,819.5,q),
(656,852,o),
(632,876,q),
(608,900,o),
(575.5,914,q),
(543,928,o),
(506,928,q),
(424,928,l),
(387,928,o),
(354.5,914,q),
(322,900,o),
(298,876,q),
(274,852,o),
(260,819.5,q),
(246,787,o),
(246,750,q),
(246,598,l),
(684,598,l),
(684,750,l)
);
}
);
width = 930;
}
);
unicode = 101;
},
{
glyphname = f;
layers = (
{
layerId = "ac52443d-76b6-4d6b-8b4e-667b68a021e3";
name = Fore;
shapes = (
{
closed = 1;
nodes = (
(444,1317,o),
(417.5,1305.5,q),
(391,1294,o),
(371,1274,q),
(351,1254,o),
(339.5,1227,q),
(328,1200,o),
(328,1169,q),
(328,1024,l),
(567,1024,l),
(567,907,l),
(328,907,l),
(328,0,l),
(205,0,l),
(205,907,l),
(20,907,l),
(20,1024,l),
(205,1024,l),
(205,1163,l),
(205,1219,o),
(226,1268.5,q),
(247,1318,o),
(284,1355,q),
(321,1392,o),
(370,1413,q),
(419,1434,o),
(475,1434,q),
(588,1434,l),
(588,1317,l),
(475,1317,l)
);
}
);
width = 588;
}
);
unicode = 102;
},
{
glyphname = g;
layers = (
{
layerId = "ac52443d-76b6-4d6b-8b4e-667b68a021e3";
name = Fore;
shapes = (
{
closed = 1;
nodes = (
(817,-191,o),
(793.5,-243,q),
(770,-295,o),
(729,-332,q),
(688,-369,o),
(633,-389.5,q),
(578,-410,o),
(516,-410,q),
(465,-410,l),
(403,-410,o),
(348,-389.5,q),
(293,-369,o),
(252,-332,q),
(211,-295,o),
(187.5,-243,q),
(164,-191,o),
(164,-129,q),
(164,-125,l),
(164,-65,o),
(186,-15,q),
(208,35,o),
(246,72,q),
(198,101,o),
(169.5,150.5,q),
(141,200,o),
(141,260,q),
(141,314,o),
(164,360.5,q),
(187,407,o),
(227,436,q),
(179,478,o),
(151,537,q),
(123,596,o),
(123,666,q),
(123,743,l),
(123,805,o),
(146.5,860,q),
(170,915,o),
(211,956,q),
(252,997,o),
(307,1020.5,q),
(362,1044,o),
(424,1044,q),
(475,1044,l),
(550,1044,o),
(613.5,1010.5,q),
(677,977,o),
(719,920,q),
(786,1024,l),
(827,1024,l),
(827,666,l),
(827,604,o),
(803.5,549,q),
(780,494,o),
(739,453,q),
(698,412,o),
(643,388.5,q),
(588,365,o),
(526,365,q),
(348,365,l),
(327,365,o),
(308,356.5,q),
(289,348,o),
(274.5,334,q),
(260,320,o),
(252,300.5,q),
(244,281,o),
(244,260,q),
(244,239,o),
(252,220,q),
(260,201,o),
(274.5,186.5,q),
(289,172,o),
(308,164,q),
(327,156,o),
(348,156,q),
(516,156,l),
(578,156,o),
(633,135.5,q),
(688,115,o),
(729,78,q),
(770,41,o),
(793.5,-11,q),
(817,-63,o),
(817,-125,q),
(817,-129,l),
(817,-129,l)
);
},
{
closed = 1;
nodes = (
(705,787,o),
(691,819.5,q),
(677,852,o),
(652.5,876,q),
(628,900,o),
(595.5,914,q),
(563,928,o),
(526,928,q),
(424,928,l),
(387,928,o),
(354.5,914,q),
(322,900,o),
(298,876,q),
(274,852,o),
(260,819.5,q),
(246,787,o),
(246,750,q),
(246,659,l),
(246,622,o),
(260,589.5,q),
(274,557,o),
(298,533,q),
(322,509,o),
(354.5,495,q),
(387,481,o),
(424,481,q),
(526,481,l),
(563,481,o),
(595.5,495,q),
(628,509,o),
(652.5,533,q),
(677,557,o),
(691,589.5,q),
(705,622,o),
(705,659,q),
(705,750,l)
);
},
{
closed = 1;
nodes = (
(700,-82,o),
(686,-52.5,q),
(672,-23,o),
(648,-3,q),
(624,17,o),
(591.5,28,q),
(559,39,o),
(522,39,q),
(459,39,l),
(422,39,o),
(389.5,28,q),
(357,17,o),
(333,-3,q),
(309,-23,o),
(295,-52.5,q),
(281,-82,o),
(281,-119,q),
(281,-135,l),
(281,-172,o),
(295,-201,q),
(309,-230,o),
(333,-250.5,q),
(357,-271,o),
(389.5,-282,q),
(422,-293,o),
(459,-293,q),
(522,-293,l),
(559,-293,o),
(591.5,-282,q),
(624,-271,o),
(648,-250.5,q),
(672,-230,o),
(686,-201,q),
(700,-172,o),
(700,-135,q),
(700,-119,l)
);
}
);
width = 930;
}
);
unicode = 103;
},
{
glyphname = h;
layers = (
{
layerId = "ac52443d-76b6-4d6b-8b4e-667b68a021e3";
name = Fore;
shapes = (
{
closed = 1;
nodes = (
(684,750,l),
(684,787,o),
(670,819.5,q),
(656,852,o),
(632,876,q),
(608,900,o),
(575.5,914,q),
(543,928,o),
(506,928,q),
(424,928,l),
(387,928,o),
(354.5,914,q),
(322,900,o),
(298,876,q),
(274,852,o),
(260,819.5,q),
(246,787,o),
(246,750,q),
(246,0,l),
(123,0,l),
(123,1434,l),
(246,1434,l),
(246,938,l),
(288,988,o),
(347,1016,q),
(406,1044,o),
(475,1044,q),
(506,1044,l),
(568,1044,o),
(623,1020.5,q),
(678,997,o),
(719,956,q),
(760,915,o),
(783.5,860,q),
(807,805,o),
(807,743,q),
(807,0,l),
(684,0,l)
);
}
);
width = 930;
}
);
unicode = 104;
},
{
glyphname = i;
layers = (
{
layerId = "ac52443d-76b6-4d6b-8b4e-667b68a021e3";
name = Fore;
shapes = (
{
closed = 1;
nodes = (
(154,1434,l),
(297,1434,l),
(297,1270,l),
(154,1270,l)
);
},
{
closed = 1;
nodes = (
(164,1024,l),
(287,1024,l),
(287,0,l),
(164,0,l)
);
}
);
width = 451;
}
);
unicode = 105;
},
{
glyphname = j;
layers = (
{
layerId = "ac52443d-76b6-4d6b-8b4e-667b68a021e3";
name = Fore;
shapes = (
{
closed = 1;
nodes = (
(154,1434,l),
(297,1434,l),
(297,1270,l),
(154,1270,l)
);
},
{
closed = 1;
nodes = (
(287,-171,o),
(263.5,-225.5,q),
(240,-280,o),
(199,-321,q),
(158,-362,o),
(103,-386,q),
(48,-410,o),
(-14,-410,q),
(-14,-293,l),
(23,-293,o),
(55.5,-279,q),
(88,-265,o),
(112,-241,q),
(136,-217,o),
(150,-184.5,q),
(164,-152,o),
(164,-115,q),
(164,1024,l),
(287,1024,l),
(287,-109,l),
(287,-109,l)
);
}
);
width = 451;
}
);
unicode = 106;
},
{
glyphname = k;
layers = (
{
layerId = "ac52443d-76b6-4d6b-8b4e-667b68a021e3";
name = Fore;
shapes = (
{
closed = 1;
nodes = (
(311,512,l),
(729,1024,l),
(889,1024,l),
(461,512,l),
(889,0,l),
(729,0,l)
);
},
{
closed = 1;
nodes = (
(164,1434,l),
(287,1434,l),
(287,0,l),
(164,0,l)
);
}
);
width = 930;
}
);
unicode = 107;
},
{
glyphname = l;
layers = (
{
layerId = "ac52443d-76b6-4d6b-8b4e-667b68a021e3";
name = Fore;
shapes = (
{
closed = 1;
nodes = (
(164,1434,l),
(287,1434,l),
(287,0,l),
(164,0,l)
);
}
);
width = 451;
}
);
unicode = 108;
},
{
glyphname = m;
layers = (
{
layerId = "ac52443d-76b6-4d6b-8b4e-667b68a021e3";
name = Fore;
shapes = (
{
closed = 1;
nodes = (
(1204,750,l),
(1204,787,o),
(1190,819.5,q),
(1176,852,o),
(1152,876,q),
(1128,900,o),
(1095.5,914,q),
(1063,928,o),
(1026,928,q),
(965,928,l),
(928,928,o),
(895.5,914,q),
(863,900,o),
(838.5,876,q),
(814,852,o),
(800,819.5,q),
(786,787,o),
(786,750,q),
(786,0,l),
(664,0,l),
(664,750,l),
(664,787,o),
(650,819.5,q),
(636,852,o),
(611.5,876,q),
(587,900,o),
(554.5,914,q),
(522,928,o),
(485,928,q),
(424,928,l),
(387,928,o),
(354.5,914,q),
(322,900,o),
(298,876,q),
(274,852,o),
(260,819.5,q),
(246,787,o),
(246,750,q),
(246,0,l),
(123,0,l),
(123,1024,l),
(164,1024,l),
(231,920,l),
(273,977,o),
(336.5,1010.5,q),
(400,1044,o),
(475,1044,q),
(485,1044,l),
(572,1044,o),
(642,1001,q),
(712,958,o),
(750,887,q),
(769,922,o),
(797,951,q),
(825,980,o),
(859,1000.5,q),
(893,1021,o),
(933,1032.5,q),
(973,1044,o),
(1016,1044,q),
(1026,1044,l),
(1088,1044,o),
(1143,1020.5,q),
(1198,997,o),
(1239,956,q),
(1280,915,o),
(1303.5,860,q),
(1327,805,o),
(1327,743,q),
(1327,0,l),
(1204,0,l)
);
}
);
width = 1450;
}
);
unicode = 109;
},
{
glyphname = n;
layers = (
{
layerId = "ac52443d-76b6-4d6b-8b4e-667b68a021e3";
name = Fore;
shapes = (
{
closed = 1;
nodes = (
(684,750,l),
(684,787,o),
(670,819.5,q),
(656,852,o),
(632,876,q),
(608,900,o),
(575.5,914,q),
(543,928,o),
(506,928,q),
(424,928,l),
(387,928,o),
(354.5,914,q),
(322,900,o),
(298,876,q),
(274,852,o),
(260,819.5,q),
(246,787,o),
(246,750,q),
(246,0,l),
(123,0,l),
(123,1024,l),
(164,1024,l),
(231,920,l),
(273,977,o),
(336.5,1010.5,q),
(400,1044,o),
(475,1044,q),
(506,1044,l),
(568,1044,o),
(623,1020.5,q),
(678,997,o),
(719,956,q),
(760,915,o),
(783.5,860,q),
(807,805,o),
(807,743,q),
(807,0,l),
(684,0,l)
);
}
);
width = 930;
}
);
unicode = 110;
},
{
glyphname = o;
layers = (
{
layerId = "ac52443d-76b6-4d6b-8b4e-667b68a021e3";
name = Fore;
shapes = (
{
closed = 1;
nodes = (
(807,219,o),
(783.5,164,q),
(760,109,o),
(719,68,q),
(678,27,o),
(623,3.5,q),
(568,-20,o),
(506,-20,q),
(424,-20,l),
(362,-20,o),
(307,3.5,q),
(252,27,o),
(211,68,q),
(170,109,o),
(146.5,164,q),
(123,219,o),
(123,281,q),
(123,743,l),
(123,805,o),
(146.5,860,q),
(170,915,o),
(211,956,q),
(252,997,o),
(307,1020.5,q),
(362,1044,o),
(424,1044,q),
(506,1044,l),
(568,1044,o),
(623,1020.5,q),
(678,997,o),
(719,956,q),
(760,915,o),
(783.5,860,q),
(807,805,o),
(807,743,q),
(807,281,l),
(807,281,l)
);
},
{
closed = 1;
nodes = (
(684,787,o),
(670,819.5,q),
(656,852,o),
(632,876,q),
(608,900,o),
(575.5,914,q),
(543,928,o),
(506,928,q),
(424,928,l),
(387,928,o),
(354.5,914,q),
(322,900,o),
(298,876,q),
(274,852,o),
(260,819.5,q),
(246,787,o),
(246,750,q),
(246,274,l),
(246,237,o),
(260,204.5,q),
(274,172,o),
(298,148,q),
(322,124,o),
(354.5,110,q),
(387,96,o),
(424,96,q),
(506,96,l),
(543,96,o),
(575.5,110,q),
(608,124,o),
(632,148,q),
(656,172,o),
(670,204.5,q),
(684,237,o),
(684,274,q),
(684,750,l)
);
}
);
width = 930;
}
);
unicode = 111;
},
{
glyphname = p;
layers = (
{
layerId = "ac52443d-76b6-4d6b-8b4e-667b68a021e3";
name = Fore;
shapes = (
{
closed = 1;
nodes = (
(807,219,o),
(783.5,164,q),
(760,109,o),
(719,68,q),
(678,27,o),
(623,3.5,q),
(568,-20,o),
(506,-20,q),
(475,-20,l),
(406,-20,o),
(347,8,q),
(288,36,o),
(246,86,q),
(246,-410,l),
(123,-410,l),
(123,1024,l),
(164,1024,l),
(231,920,l),
(273,977,o),
(336.5,1010.5,q),
(400,1044,o),
(475,1044,q),
(506,1044,l),
(568,1044,o),
(623,1020.5,q),
(678,997,o),
(719,956,q),
(760,915,o),
(783.5,860,q),
(807,805,o),
(807,743,q),
(807,281,l),
(807,281,l)
);
},
{
closed = 1;
nodes = (
(684,787,o),
(670,819.5,q),
(656,852,o),
(632,876,q),
(608,900,o),
(575.5,914,q),
(543,928,o),
(506,928,q),
(424,928,l),
(387,928,o),
(354.5,914,q),
(322,900,o),
(298,876,q),
(274,852,o),
(260,819.5,q),
(246,787,o),
(246,750,q),
(246,274,l),
(246,237,o),
(260,204.5,q),
(274,172,o),
(298,148,q),
(322,124,o),
(354.5,110,q),
(387,96,o),
(424,96,q),
(506,96,l),
(543,96,o),
(575.5,110,q),
(608,124,o),
(632,148,q),
(656,172,o),
(670,204.5,q),
(684,237,o),
(684,274,q),
(684,750,l)
);
}
);
width = 930;
}
);
unicode = 112;
},
{
glyphname = q;
layers = (
{
layerId = "ac52443d-76b6-4d6b-8b4e-667b68a021e3";
name = Fore;
shapes = (
{
closed = 1;
nodes = (
(684,86,l),
(642,36,o),
(583,8,q),
(524,-20,o),
(455,-20,q),
(424,-20,l),
(362,-20,o),
(307,3.5,q),
(252,27,o),
(211,68,q),
(170,109,o),
(146.5,164,q),
(123,219,o),
(123,281,q),
(123,743,l),
(123,805,o),
(146.5,860,q),
(170,915,o),
(211,956,q),
(252,997,o),
(307,1020.5,q),
(362,1044,o),
(424,1044,q),
(455,1044,l),
(530,1044,o),
(593,1010.5,q),
(656,977,o),
(698,920,q),
(766,1024,l),
(807,1024,l),
(807,-410,l),
(684,-410,l)
);
},
{
closed = 1;
nodes = (
(684,787,o),
(670,819.5,q),
(656,852,o),
(632,876,q),
(608,900,o),
(575.5,914,q),
(543,928,o),
(506,928,q),
(424,928,l),
(387,928,o),
(354.5,914,q),
(322,900,o),
(298,876,q),
(274,852,o),
(260,819.5,q),
(246,787,o),
(246,750,q),
(246,274,l),
(246,237,o),
(260,204.5,q),
(274,172,o),
(298,148,q),
(322,124,o),
(354.5,110,q),
(387,96,o),
(424,96,q),
(506,96,l),
(543,96,o),
(575.5,110,q),
(608,124,o),
(632,148,q),
(656,172,o),
(670,204.5,q),
(684,237,o),
(684,274,q),
(684,750,l)
);
}
);
width = 930;
}
);
unicode = 113;
},
{
glyphname = r;
layers = (
{
layerId = "ac52443d-76b6-4d6b-8b4e-667b68a021e3";
name = Fore;
shapes = (
{
closed = 1;
nodes = (
(387,907,o),
(354.5,893,q),
(322,879,o),
(298,855,q),
(274,831,o),
(260,798.5,q),
(246,766,o),
(246,729,q),
(246,0,l),
(123,0,l),
(123,1024,l),
(164,1024,l),
(231,920,l),
(273,977,o),
(336.5,1010.5,q),
(400,1044,o),
(475,1044,q),
(547,1044,l),
(547,907,l),
(424,907,l)
);
}
);
width = 588;
}
);
unicode = 114;
},
{
glyphname = s;
layers = (
{
layerId = "ac52443d-76b6-4d6b-8b4e-667b68a021e3";
name = Fore;
shapes = (
{
closed = 1;
nodes = (
(827,198,o),
(802,146.5,q),
(777,95,o),
(734,58,q),
(691,21,o),
(634.5,0.5,q),
(578,-20,o),
(516,-20,q),
(434,-20,l),
(372,-20,o),
(315.5,3.5,q),
(259,27,o),
(216.5,68,q),
(174,109,o),
(148.5,164,q),
(123,219,o),
(123,281,q),
(123,322,l),
(246,342,l),
(246,274,l),
(246,237,o),
(261.5,204.5,q),
(277,172,o),
(303,148,q),
(329,124,o),
(363,110,q),
(397,96,o),
(434,96,q),
(516,96,l),
(553,96,o),
(587,107,q),
(621,118,o),
(647.5,138.5,q),
(674,159,o),
(689.5,188,q),
(705,217,o),
(705,254,q),
(705,309,o),
(681,344,q),
(657,379,o),
(617.5,402.5,q),
(578,426,o),
(527.5,441.5,q),
(477,457,o),
(424,472.5,q),
(371,488,o),
(320.5,508,q),
(270,528,o),
(230.5,560.5,q),
(191,593,o),
(167,642,q),
(143,691,o),
(143,764,q),
(143,826,o),
(167,877.5,q),
(191,929,o),
(232,966,q),
(273,1003,o),
(327.5,1023.5,q),
(382,1044,o),
(444,1044,q),
(516,1044,l),
(578,1044,o),
(633,1020.5,q),
(688,997,o),
(729,956,q),
(770,915,o),
(793.5,860,q),
(817,805,o),
(817,743,q),
(817,739,l),
(694,719,l),
(694,750,l),
(694,787,o),
(680,819.5,q),
(666,852,o),
(642,876,q),
(618,900,o),
(585.5,914,q),
(553,928,o),
(516,928,q),
(444,928,l),
(407,928,o),
(374.5,917,q),
(342,906,o),
(318,885.5,q),
(294,865,o),
(280,836,q),
(266,807,o),
(266,770,q),
(266,717,o),
(290,683.5,q),
(314,650,o),
(353.5,627,q),
(393,604,o),
(443.5,588.5,q),
(494,573,o),
(546.5,556.5,q),
(599,540,o),
(649.5,519,q),
(700,498,o),
(739.5,465,q),
(779,432,o),
(803,382.5,q),
(827,333,o),
(827,260,q)
);
}
);
width = 940;
}
);
unicode = 115;
},
{
glyphname = t;
layers = (
{
layerId = "ac52443d-76b6-4d6b-8b4e-667b68a021e3";
name = Fore;
shapes = (
{
closed = 1;
nodes = (
(440,0,o),
(390.5,21,q),
(341,42,o),
(304.5,79,q),
(268,116,o),
(246.5,165,q),
(225,214,o),
(225,270,q),
(225,907,l),
(41,907,l),
(41,1024,l),
(225,1024,l),
(225,1270,l),
(348,1290,l),
(348,1024,l),
(608,1024,l),
(608,907,l),
(348,907,l),
(348,264,l),
(348,233,o),
(359.5,206.5,q),
(371,180,o),
(391,160,q),
(411,140,o),
(438,128.5,q),
(465,117,o),
(496,117,q),
(608,117,l),
(608,0,l),
(496,0,l)
);
}
);
width = 711;
}
);
unicode = 116;
},
{
glyphname = u;
layers = (
{
layerId = "ac52443d-76b6-4d6b-8b4e-667b68a021e3";
name = Fore;
shapes = (
{
closed = 1;
nodes = (
(698,104,l),
(656,47,o),
(593,13.5,q),
(530,-20,o),
(455,-20,q),
(424,-20,l),
(362,-20,o),
(307,3.5,q),
(252,27,o),
(211,68,q),
(170,109,o),
(146.5,164,q),
(123,219,o),
(123,281,q),
(123,1024,l),
(246,1024,l),
(246,274,l),
(246,237,o),
(260,204.5,q),
(274,172,o),
(298,148,q),
(322,124,o),
(354.5,110,q),
(387,96,o),
(424,96,q),
(506,96,l),
(543,96,o),
(575.5,110,q),
(608,124,o),
(632,148,q),
(656,172,o),
(670,204.5,q),
(684,237,o),
(684,274,q),
(684,1024,l),
(807,1024,l),
(807,0,l),
(766,0,l)
);
}
);
width = 930;
}
);
unicode = 117;
},
{
glyphname = v;
layers = (
{
layerId = "ac52443d-76b6-4d6b-8b4e-667b68a021e3";
name = Fore;
shapes = (
{
closed = 1;
nodes = (
(383,0,l),
(20,1024,l),
(143,1024,l),
(410,248,l),
(414,195,l),
(418,248,l),
(684,1024,l),
(807,1024,l),
(444,0,l)
);
}
);
width = 827;
}
);
unicode = 118;
},
{
glyphname = w;
layers = (
{
layerId = "ac52443d-76b6-4d6b-8b4e-667b68a021e3";
name = Fore;
shapes = (
{
closed = 1;
nodes = (
(918,0,l),
(678,772,l),
(674,825,l),
(670,772,l),
(430,0,l),
(362,0,l),
(20,1024,l),
(145,1024,l),
(389,250,l),
(393,197,l),
(397,250,l),
(637,1024,l),
(711,1024,l),
(950,250,l),
(954,197,l),
(958,250,l),
(1202,1024,l),
(1327,1024,l),
(985,0,l)
);
}
);
width = 1348;
}
);
unicode = 119;
},
{
glyphname = x;
layers = (
{
layerId = "ac52443d-76b6-4d6b-8b4e-667b68a021e3";
name = Fore;
shapes = (
{
closed = 1;
nodes = (
(434,393,l),
(215,0,l),
(82,0,l),
(369,512,l),
(82,1024,l),
(215,1024,l),
(434,631,l),
(653,1024,l),
(786,1024,l),
(500,512,l),
(786,0,l),
(653,0,l)
);
}
);
width = 868;
}
);
unicode = 120;
},
{
glyphname = y;
layers = (
{
layerId = "ac52443d-76b6-4d6b-8b4e-667b68a021e3";
name = Fore;
shapes = (
{
closed = 1;
nodes = (
(170,-410,l),
(352,88,l),
(20,1024,l),
(143,1024,l),
(410,248,l),
(414,195,l),
(418,248,l),
(684,1024,l),
(807,1024,l),
(289,-410,l)
);
}
);
width = 807;
}
);
unicode = 121;
},
{
glyphname = z;
layers = (
{
layerId = "ac52443d-76b6-4d6b-8b4e-667b68a021e3";
name = Fore;
shapes = (
{
closed = 1;
nodes = (
(82,55,l),
(598,907,l),
(102,907,l),
(102,1024,l),
(766,1024,l),
(766,969,l),
(250,117,l),
(766,117,l),
(766,0,l),
(82,0,l)
);
}
);
width = 848;
}
);
unicode = 122;
},
{
glyphname = braceleft;
layers = (
{
layerId = "ac52443d-76b6-4d6b-8b4e-667b68a021e3";
name = Fore;
shapes = (
{
closed = 1;
nodes = (
(334,365,o),
(317,407.5,q),
(300,450,o),
(269.5,480,q),
(239,510,o),
(196.5,526.5,q),
(154,543,o),
(104,543,q),
(82,543,l),
(82,653,l),
(115,653,l),
(163,655,o),
(203,672,q),
(243,689,o),
(272,719,q),
(301,749,o),
(317.5,790.5,q),
(334,832,o),
(334,883,q),
(334,1253,l),
(334,1330,o),
(360.5,1394.5,q),
(387,1459,o),
(434.5,1506,q),
(482,1553,o),
(546.5,1579.5,q),
(611,1606,o),
(686,1606,q),
(696,1606,l),
(696,1495,l),
(686,1495,l),
(636,1495,o),
(594,1478.5,q),
(552,1462,o),
(521.5,1432,q),
(491,1402,o),
(474,1359.5,q),
(457,1317,o),
(457,1266,q),
(457,895,l),
(457,798,o),
(414.5,720,q),
(372,642,o),
(301,598,q),
(372,552,o),
(414.5,475,q),
(457,398,o),
(457,301,q),
(457,-70,l),
(457,-121,o),
(474,-163.5,q),
(491,-206,o),
(521.5,-236,q),
(552,-266,o),
(594,-282.5,q),
(636,-299,o),
(686,-299,q),
(696,-299,l),
(696,-410,l),
(686,-410,l),
(611,-410,o),
(546.5,-383.5,q),
(482,-357,o),
(434.5,-310,q),
(387,-263,o),
(360.5,-198.5,q),
(334,-134,o),
(334,-57,q),
(334,313,l)
);
}
);
width = 778;
}
);
unicode = 123;
},
{
glyphname = bar;
layers = (
{
layerId = "ac52443d-76b6-4d6b-8b4e-667b68a021e3";
name = Fore;
shapes = (
{
closed = 1;
nodes = (
(164,1606,l),
(293,1606,l),
(293,-410,l),
(164,-410,l)
);
}
);
width = 457;
}
);
unicode = 124;
},
{
glyphname = braceright;
layers = (
{
layerId = "ac52443d-76b6-4d6b-8b4e-667b68a021e3";
name = Fore;
shapes = (
{
closed = 1;
nodes = (
(444,-134,o),
(417.5,-198.5,q),
(391,-263,o),
(343.5,-310,q),
(296,-357,o),
(231.5,-383.5,q),
(167,-410,o),
(92,-410,q),
(82,-410,l),
(82,-299,l),
(92,-299,l),
(142,-299,o),
(184,-282.5,q),
(226,-266,o),
(257,-236,q),
(288,-206,o),
(305,-163.5,q),
(322,-121,o),
(322,-70,q),
(322,301,l),
(322,398,o),
(363.5,475,q),
(405,552,o),
(477,598,q),
(405,643,o),
(363.5,720.5,q),
(322,798,o),
(322,895,q),
(322,1266,l),
(322,1317,o),
(305,1359.5,q),
(288,1402,o),
(257,1432,q),
(226,1462,o),
(184,1478.5,q),
(142,1495,o),
(92,1495,q),
(82,1495,l),
(82,1606,l),
(92,1606,l),
(167,1606,o),
(231.5,1579.5,q),
(296,1553,o),
(343.5,1506,q),
(391,1459,o),
(417.5,1394.5,q),
(444,1330,o),
(444,1253,q),
(444,883,l),
(444,831,o),
(461,788.5,q),
(478,746,o),
(509,716,q),
(540,686,o),
(582,669.5,q),
(624,653,o),
(674,653,q),
(696,653,l),
(696,543,l),
(664,543,l),
(616,542,o),
(575.5,524.5,q),
(535,507,o),
(505.5,476.5,q),
(476,446,o),
(460,404.5,q),
(444,363,o),
(444,313,q),
(444,-57,l)
);
}
);
width = 778;
}
);
unicode = 125;
},
{
glyphname = asciitilde;
layers = (
{
layerId = "ac52443d-76b6-4d6b-8b4e-667b68a021e3";
name = Fore;
shapes = (
{
closed = 1;
nodes = (
(687,604,o),
(708.5,615.5,q),
(730,627,o),
(745,646.5,q),
(760,666,o),
(768,692.5,q),
(776,719,o),
(776,750,q),
(883,750,l),
(883,696,o),
(869,649,q),
(855,602,o),
(827,567,q),
(799,532,o),
(756.5,512,q),
(714,492,o),
(657,492,q),
(618,492,o),
(585.5,503,q),
(553,514,o),
(525,530,q),
(497,546,o),
(472,565.5,q),
(447,585,o),
(423,601,q),
(399,617,o),
(375.5,628,q),
(352,639,o),
(326,639,q),
(272,639,o),
(240.5,598,q),
(209,557,o),
(209,494,q),
(102,494,l),
(102,548,o),
(116,595,q),
(130,642,o),
(158.5,677,q),
(187,712,o),
(229.5,732,q),
(272,752,o),
(328,752,q),
(386,752,o),
(430.5,729,q),
(475,706,o),
(513,678,q),
(551,650,o),
(586,627,q),
(621,604,o),
(659,604,q)
);
}
);
width = 985;
}
);
unicode = 126;
},
{
glyphname = exclamdown;
layers = (
{
layerId = "ac52443d-76b6-4d6b-8b4e-667b68a021e3";
name = Fore;
shapes = (
{
closed = 1;
nodes = (
(123,-410,l),
(178,590,l),
(250,590,l),
(305,-410,l)
);
},
{
closed = 1;
nodes = (
(291,870,l),
(137,870,l),
(137,1024,l),
(291,1024,l)
);
}
);
width = 428;
}
);
unicode = 161;
},
{
glyphname = cent;
layers = (
{
layerId = "ac52443d-76b6-4d6b-8b4e-667b68a021e3";
name = Fore;
shapes = (
{
closed = 1;
nodes = (
(262,231,l),
(199,272,o),
(161,338.5,q),
(123,405,o),
(123,485,q),
(123,948,l),
(123,1010,o),
(146.5,1065,q),
(170,1120,o),
(211,1161,q),
(252,1202,o),
(307,1225.5,q),
(362,1249,o),
(424,1249,q),
(506,1249,l),
(523,1249,o),
(539.5,1247.5,q),
(556,1246,o),
(571,1241,q),
(637,1454,l),
(745,1454,l),
(668,1202,l),
(731,1162,o),
(769,1095.5,q),
(807,1029,o),
(807,948,q),
(807,907,l),
(684,887,l),
(684,954,l),
(684,992,o),
(670,1024.5,q),
(656,1057,o),
(631,1081,q),
(393,303,l),
(401,301,o),
(408.5,301,q),
(416,301,o),
(424,301,q),
(506,301,l),
(543,301,o),
(575.5,315,q),
(608,329,o),
(632,353,q),
(656,377,o),
(670,409.5,q),
(684,442,o),
(684,479,q),
(684,547,l),
(807,526,l),
(807,485,l),
(807,423,o),
(783.5,368,q),
(760,313,o),
(719,272,q),
(678,231,o),
(623,207.5,q),
(568,184,o),
(506,184,q),
(424,184,l),
(390,184,o),
(358,190,q),
(293,-20,l),
(184,-20,l)
);
},
{
closed = 1;
nodes = (
(246,442,o),
(260,409.5,q),
(274,377,o),
(299,352,q),
(537,1128,l),
(529,1130,o),
(521.5,1131.5,q),
(514,1133,o),
(506,1133,q),
(424,1133,l),
(387,1133,o),
(354.5,1119,q),
(322,1105,o),
(298,1080.5,q),
(274,1056,o),
(260,1023.5,q),
(246,991,o),
(246,954,q),
(246,479,l),
(246,479,l)
);
}
);
width = 930;
}
);
unicode = 162;
},
{
glyphname = sterling;
layers = (
{
layerId = "ac52443d-76b6-4d6b-8b4e-667b68a021e3";
name = Fore;
shapes = (
{
closed = 1;
nodes = (
(289,734,o),
(275,783.5,q),
(261,833,o),
(250,884,q),
(239,935,o),
(232,989.5,q),
(225,1044,o),
(225,1102,q),
(225,1175,o),
(252.5,1239,q),
(280,1303,o),
(328,1351,q),
(376,1399,o),
(440.5,1426.5,q),
(505,1454,o),
(578,1454,q),
(606,1454,l),
(679,1454,o),
(743,1426.5,q),
(807,1399,o),
(855,1351,q),
(903,1303,o),
(930.5,1239,q),
(958,1175,o),
(958,1102,q),
(958,1065,l),
(829,1044,l),
(829,1102,l),
(829,1150,o),
(811,1191.5,q),
(793,1233,o),
(762,1264,q),
(731,1295,o),
(689.5,1313,q),
(648,1331,o),
(600,1331,q),
(584,1331,l),
(536,1331,o),
(494.5,1313,q),
(453,1295,o),
(421.5,1264,q),
(390,1233,o),
(372,1191.5,q),
(354,1150,o),
(354,1102,q),
(354,1047,o),
(361.5,994.5,q),
(369,942,o),
(381.5,891,q),
(394,840,o),
(409.5,789,q),
(425,738,o),
(440,686,q),
(780,686,l),
(780,584,l),
(467,584,l),
(479,528,o),
(487.5,471,q),
(496,414,o),
(496,352,q),
(496,286,o),
(475.5,227.5,q),
(455,169,o),
(420,123,q),
(965,123,l),
(965,0,l),
(123,0,l),
(123,123,l),
(158,123,l),
(206,123,o),
(244.5,141,q),
(283,159,o),
(310,190,q),
(337,221,o),
(352,262.5,q),
(367,304,o),
(367,352,q),
(367,412,o),
(357.5,469.5,q),
(348,527,o),
(334,584,q),
(123,584,l),
(123,686,l),
(303,686,l)
);
}
);
width = 1108;
}
);
unicode = 163;
},
{
glyphname = currency;
layers = (
{
layerId = "ac52443d-76b6-4d6b-8b4e-667b68a021e3";
name = Fore;
shapes = (
{
closed = 1;
nodes = (
(365,1061,l),
(419,1101,o),
(482.5,1123,q),
(546,1145,o),
(618,1145,q),
(690,1145,o),
(754,1123,q),
(818,1101,o),
(870,1061,q),
(1022,1212,l),
(1112,1120,l),
(963,971,l),
(1001,917,o),
(1022.5,853.5,q),
(1044,790,o),
(1044,719,q),
(1044,648,o),
(1022.5,584,q),
(1001,520,o),
(961,467,q),
(1114,313,l),
(1022,223,l),
(868,375,l),
(816,337,o),
(753,316,q),
(690,295,o),
(618,295,q),
(547,295,o),
(483,316,q),
(419,337,o),
(367,375,q),
(215,223,l),
(123,313,l),
(276,467,l),
(236,520,o),
(215.5,584,q),
(195,648,o),
(195,719,q),
(195,790,o),
(215.5,853,q),
(236,916,o),
(274,969,q),
(125,1120,l),
(215,1212,l)
);
},
{
closed = 1;
nodes = (
(317,655,o),
(340.5,599.5,q),
(364,544,o),
(404.5,503,q),
(445,462,o),
(500,438,q),
(555,414,o),
(618,414,q),
(682,414,o),
(737.5,438,q),
(793,462,o),
(834,503,q),
(875,544,o),
(898.5,599.5,q),
(922,655,o),
(922,719,q),
(922,783,o),
(898.5,839,q),
(875,895,o),
(834,936.5,q),
(793,978,o),
(737.5,1002,q),
(682,1026,o),
(618,1026,q),
(555,1026,o),
(500,1002,q),
(445,978,o),
(404.5,936.5,q),
(364,895,o),
(340.5,839,q),
(317,783,o),
(317,719,q)
);
}
);
width = 1237;
}
);
unicode = 164;
},
{
glyphname = yen;
layers = (
{
layerId = "ac52443d-76b6-4d6b-8b4e-667b68a021e3";
name = Fore;
shapes = (
{
closed = 1;
nodes = (
(41,1434,l),
(180,1434,l),
(475,838,l),
(770,1434,l),
(909,1434,l),
(553,711,l),
(827,711,l),
(827,608,l),
(541,608,l),
(541,475,l),
(827,475,l),
(827,373,l),
(541,373,l),
(541,0,l),
(412,0,l),
(412,373,l),
(123,373,l),
(123,475,l),
(412,475,l),
(412,608,l),
(123,608,l),
(123,711,l),
(397,711,l)
);
}
);
width = 950;
}
);
unicode = 165;
},
{
glyphname = brokenbar;
layers = (
{
layerId = "ac52443d-76b6-4d6b-8b4e-667b68a021e3";
name = Fore;
shapes = (
{
closed = 1;
nodes = (
(164,496,l),
(293,496,l),
(293,-410,l),
(164,-410,l)
);
},
{
closed = 1;
nodes = (
(164,1606,l),
(293,1606,l),
(293,700,l),
(164,700,l)
);
}
);
width = 457;
}
);
unicode = 166;
},
{
glyphname = section;
layers = (
{
layerId = "ac52443d-76b6-4d6b-8b4e-667b68a021e3";
name = Fore;
shapes = (
{
closed = 1;
nodes = (
(143,1175,o),
(170.5,1239,q),
(198,1303,o),
(246,1351,q),
(294,1399,o),
(358.5,1426.5,q),
(423,1454,o),
(496,1454,q),
(588,1454,l),
(661,1454,o),
(725,1426.5,q),
(789,1399,o),
(837,1351,q),
(885,1303,o),
(912.5,1239,q),
(940,1175,o),
(940,1102,q),
(940,1065,l),
(811,1044,l),
(811,1102,l),
(811,1150,o),
(793,1191.5,q),
(775,1233,o),
(744,1264,q),
(713,1295,o),
(671.5,1313,q),
(630,1331,o),
(582,1331,q),
(502,1331,l),
(454,1331,o),
(412.5,1313,q),
(371,1295,o),
(339.5,1264,q),
(308,1233,o),
(290,1191.5,q),
(272,1150,o),
(272,1102,q),
(272,1075,l),
(272,1006,o),
(301,959,q),
(330,912,o),
(378,878.5,q),
(426,845,o),
(486.5,820.5,q),
(547,796,o),
(611,770.5,q),
(675,745,o),
(735.5,714.5,q),
(796,684,o),
(844,639.5,q),
(892,595,o),
(921,531,q),
(950,467,o),
(950,375,q),
(950,332,l),
(950,284,o),
(937,240,q),
(924,196,o),
(901,158,q),
(924,119,o),
(937,72,q),
(950,25,o),
(950,-35,q),
(950,-78,l),
(950,-151,o),
(920.5,-215,q),
(891,-279,o),
(841.5,-327,q),
(792,-375,o),
(726.5,-402.5,q),
(661,-430,o),
(588,-430,q),
(485,-430,l),
(412,-430,o),
(346.5,-402.5,q),
(281,-375,o),
(231.5,-327,q),
(182,-279,o),
(152.5,-215,q),
(123,-151,o),
(123,-78,q),
(123,-20,l),
(252,0,l),
(252,-78,l),
(252,-126,o),
(271.5,-167.5,q),
(291,-209,o),
(324,-240,q),
(357,-271,o),
(400.5,-289,q),
(444,-307,o),
(492,-307,q),
(582,-307,l),
(630,-307,o),
(673,-289,q),
(716,-271,o),
(749,-240,q),
(782,-209,o),
(801.5,-167.5,q),
(821,-126,o),
(821,-78,q),
(821,-35,l),
(821,39,o),
(792,88,q),
(763,137,o),
(715,171.5,q),
(667,206,o),
(606.5,230,q),
(546,254,o),
(482,278,q),
(418,302,o),
(357.5,331,q),
(297,360,o),
(249,403.5,q),
(201,447,o),
(172,510,q),
(143,573,o),
(143,666,q),
(143,692,l),
(143,743,o),
(156.5,789,q),
(170,835,o),
(195,877,q),
(170,915,o),
(156.5,963.5,q),
(143,1012,o),
(143,1075,q),
(143,1102,l)
);
},
{
closed = 1;
nodes = (
(821,444,o),
(795.5,491.5,q),
(770,539,o),
(727.5,572.5,q),
(685,606,o),
(630,629.5,q),
(575,653,o),
(516.5,675,q),
(458,697,o),
(399.5,721.5,q),
(341,746,o),
(291,780,q),
(272,739,o),
(272,692,q),
(272,666,l),
(272,600,o),
(298,555,q),
(324,510,o),
(366.5,477,q),
(409,444,o),
(464.5,420,q),
(520,396,o),
(579.5,372.5,q),
(639,349,o),
(698,323,q),
(757,297,o),
(807,260,q),
(813,277,o),
(817,294.5,q),
(821,312,o),
(821,332,q),
(821,375,l)
);
}
);
width = 1073;
}
);
unicode = 167;
},
{
glyphname = dieresis;
layers = (
{
layerId = "ac52443d-76b6-4d6b-8b4e-667b68a021e3";
name = Fore;
shapes = (
{
closed = 1;
nodes = (
(205,1384,l),
(358,1384,l),
(358,1231,l),
(205,1231,l)
);
},
{
closed = 1;
nodes = (
(592,1384,l),
(745,1384,l),
(745,1231,l),
(592,1231,l)
);
}
);
width = 950;
}
);
unicode = 168;
},
{
glyphname = copyright;
layers = (
{
layerId = "ac52443d-76b6-4d6b-8b4e-667b68a021e3";
name = Fore;
shapes = (
{
closed = 1;
nodes = (
(102,819,o),
(128.5,913,q),
(155,1007,o),
(203,1089,q),
(251,1171,o),
(318,1238,q),
(385,1305,o),
(467,1353,q),
(549,1401,o),
(643.5,1427.5,q),
(738,1454,o),
(840,1454,q),
(942,1454,o),
(1036,1427.5,q),
(1130,1401,o),
(1212,1353,q),
(1294,1305,o),
(1361,1238,q),
(1428,1171,o),
(1476,1089,q),
(1524,1007,o),
(1550.5,913,q),
(1577,819,o),
(1577,717,q),
(1577,615,o),
(1550.5,520.5,q),
(1524,426,o),
(1476,344.5,q),
(1428,263,o),
(1361,195.5,q),
(1294,128,o),
(1212,80.5,q),
(1130,33,o),
(1036,6.5,q),
(942,-20,o),
(840,-20,q),
(738,-20,o),
(643.5,6.5,q),
(549,33,o),
(467,80.5,q),
(385,128,o),
(318,195.5,q),
(251,263,o),
(203,344.5,q),
(155,426,o),
(128.5,520.5,q),
(102,615,o),
(102,717,q)
);
},
{
closed = 1;
nodes = (
(217,586,o),
(265,471,q),
(313,356,o),
(397,270.5,q),
(481,185,o),
(594.5,135.5,q),
(708,86,o),
(840,86,q),
(971,86,o),
(1084.5,135.5,q),
(1198,185,o),
(1282,270.5,q),
(1366,356,o),
(1414,471,q),
(1462,586,o),
(1462,717,q),
(1462,848,o),
(1414,963,q),
(1366,1078,o),
(1282,1163.5,q),
(1198,1249,o),
(1084.5,1298.5,q),
(971,1348,o),
(840,1348,q),
(708,1348,o),
(594.5,1298.5,q),
(481,1249,o),
(397,1163.5,q),
(313,1078,o),
(265,963,q),
(217,848,o),
(217,717,q)
);
},
{
closed = 1;
nodes = (
(1100,437,o),
(1082,395.5,q),
(1064,354,o),
(1032.5,323,q),
(1001,292,o),
(959.5,274,q),
(918,256,o),
(870,256,q),
(809,256,l),
(761,256,o),
(719.5,274,q),
(678,292,o),
(647,323,q),
(616,354,o),
(598,395.5,q),
(580,437,o),
(580,485,q),
(580,948,l),
(580,996,o),
(598,1037.5,q),
(616,1079,o),
(647,1110.5,q),
(678,1142,o),
(719.5,1160,q),
(761,1178,o),
(809,1178,q),
(870,1178,l),
(918,1178,o),
(959.5,1160,q),
(1001,1142,o),
(1032.5,1110.5,q),
(1064,1079,o),
(1082,1037.5,q),
(1100,996,o),
(1100,948,q),
(1100,897,l),
(985,879,l),
(985,948,l),
(985,973,o),
(975.5,994.5,q),
(966,1016,o),
(950,1032,q),
(934,1048,o),
(912.5,1057.5,q),
(891,1067,o),
(866,1067,q),
(813,1067,l),
(789,1067,o),
(767,1057.5,q),
(745,1048,o),
(729,1032,q),
(713,1016,o),
(703.5,994.5,q),
(694,973,o),
(694,948,q),
(694,485,l),
(694,461,o),
(703.5,439.5,q),
(713,418,o),
(729,402,q),
(745,386,o),
(767,376.5,q),
(789,367,o),
(813,367,q),
(866,367,l),
(891,367,o),
(912.5,376.5,q),
(934,386,o),
(950,402,q),
(966,418,o),
(975.5,439.5,q),
(985,461,o),
(985,485,q),
(985,555,l),
(1100,537,l),
(1100,485,l),
(1100,485,l)
);
}
);
width = 1679;
}
);
unicode = 169;
},
{
glyphname = ordfeminine;
layers = (
{
layerId = "ac52443d-76b6-4d6b-8b4e-667b68a021e3";
name = Fore;
shapes = (
{
closed = 1;
nodes = (
(496,848,l),
(470,820,o),
(431.5,801,q),
(393,782,o),
(352,782,q),
(334,782,l),
(294,782,o),
(259,797,q),
(224,812,o),
(198.5,838.5,q),
(173,865,o),
(158,901,q),
(143,937,o),
(143,979,q),
(143,1019,o),
(158,1053.5,q),
(173,1088,o),
(198.5,1113.5,q),
(224,1139,o),
(259,1154,q),
(294,1169,o),
(334,1169,q),
(479,1169,l),
(479,1255,l),
(479,1275,o),
(471.5,1292.5,q),
(464,1310,o),
(451,1323,q),
(438,1336,o),
(420.5,1344,q),
(403,1352,o),
(383,1352,q),
(340,1352,l),
(320,1352,o),
(302.5,1344,q),
(285,1336,o),
(272,1323,q),
(259,1310,o),
(251.5,1292.5,q),
(244,1275,o),
(244,1255,q),
(244,1219,l),
(150,1243,l),
(150,1284,o),
(164.5,1320,q),
(179,1356,o),
(204.5,1383,q),
(230,1410,o),
(265,1426,q),
(300,1442,o),
(340,1442,q),
(383,1442,l),
(423,1442,o),
(457.5,1427,q),
(492,1412,o),
(517.5,1386,q),
(543,1360,o),
(558,1325,q),
(573,1290,o),
(573,1251,q),
(573,795,l),
(532,795,l)
);
},
{
closed = 1;
nodes = (
(334,1092,l),
(294,1092,o),
(266,1064,q),
(238,1036,o),
(238,995,q),
(238,969,l),
(238,950,o),
(245.5,932.5,q),
(253,915,o),
(266,901.5,q),
(279,888,o),
(296.5,880,q),
(314,872,o),
(334,872,q),
(383,872,l),
(403,872,o),
(420.5,880,q),
(438,888,o),
(451,901.5,q),
(464,915,o),
(471.5,932.5,q),
(479,950,o),
(479,969,q),
(479,1092,l)
);
},
{
closed = 1;
nodes = (
(573,631,l),
(573,553,l),
(143,553,l),
(143,631,l)
);
}
);
width = 717;
}
);
unicode = 170;
},
{
glyphname = guillemotleft;
layers = (
{
layerId = "ac52443d-76b6-4d6b-8b4e-667b68a021e3";
name = Fore;
shapes = (
{
closed = 1;
nodes = (
(420,467,l),
(797,850,l),
(838,809,l),
(588,467,l),
(838,125,l),
(797,84,l)
);
},
{
closed = 1;
nodes = (
(82,467,l),
(459,850,l),
(500,809,l),
(250,467,l),
(500,125,l),
(459,84,l)
);
}
);
width = 961;
}
);
unicode = 171;
},
{
glyphname = logicalnot;
layers = (
{
layerId = "ac52443d-76b6-4d6b-8b4e-667b68a021e3";
name = Fore;
shapes = (
{
closed = 1;
nodes = (
(1147,309,l),
(1018,309,l),
(1018,653,l),
(123,653,l),
(123,782,l),
(1147,782,l)
);
}
);
width = 1270;
}
);
unicode = 172;
},
{
glyphname = registered;
layers = (
{
layerId = "ac52443d-76b6-4d6b-8b4e-667b68a021e3";
name = Fore;
shapes = (
{
closed = 1;
nodes = (
(102,819,o),
(128.5,913,q),
(155,1007,o),
(203,1089,q),
(251,1171,o),
(318,1238,q),
(385,1305,o),
(467,1353,q),
(549,1401,o),
(643.5,1427.5,q),
(738,1454,o),
(840,1454,q),
(942,1454,o),
(1036,1427.5,q),
(1130,1401,o),
(1212,1353,q),
(1294,1305,o),
(1361,1238,q),
(1428,1171,o),
(1476,1089,q),
(1524,1007,o),
(1550.5,913,q),
(1577,819,o),
(1577,717,q),
(1577,615,o),
(1550.5,520.5,q),
(1524,426,o),
(1476,344.5,q),
(1428,263,o),
(1361,195.5,q),
(1294,128,o),
(1212,80.5,q),
(1130,33,o),
(1036,6.5,q),
(942,-20,o),
(840,-20,q),
(738,-20,o),
(643.5,6.5,q),
(549,33,o),
(467,80.5,q),
(385,128,o),
(318,195.5,q),
(251,263,o),
(203,344.5,q),
(155,426,o),
(128.5,520.5,q),
(102,615,o),
(102,717,q)
);
},
{
closed = 1;
nodes = (
(217,586,o),
(265,471,q),
(313,356,o),
(397,270.5,q),
(481,185,o),
(594.5,135.5,q),
(708,86,o),
(840,86,q),
(971,86,o),
(1084.5,135.5,q),
(1198,185,o),
(1282,270.5,q),
(1366,356,o),
(1414,471,q),
(1462,586,o),
(1462,717,q),
(1462,848,o),
(1414,963,q),
(1366,1078,o),
(1282,1163.5,q),
(1198,1249,o),
(1084.5,1298.5,q),
(971,1348,o),
(840,1348,q),
(708,1348,o),
(594.5,1298.5,q),
(481,1249,o),
(397,1163.5,q),
(313,1078,o),
(265,963,q),
(217,848,o),
(217,717,q)
);
},
{
closed = 1;
nodes = (
(791,598,l),
(715,598,l),
(715,268,l),
(600,268,l),
(600,1165,l),
(891,1165,l),
(939,1165,o),
(980.5,1147,q),
(1022,1129,o),
(1053,1098,q),
(1084,1067,o),
(1102,1025.5,q),
(1120,984,o),
(1120,936,q),
(1120,829,l),
(1120,786,o),
(1105.5,746.5,q),
(1091,707,o),
(1065,676.5,q),
(1039,646,o),
(1003.5,625.5,q),
(968,605,o),
(926,600,q),
(950,563,o),
(977.5,519.5,q),
(1005,476,o),
(1032.5,432,q),
(1060,388,o),
(1087,345.5,q),
(1114,303,o),
(1137,268,q),
(1001,268,l)
);
},
{
closed = 1;
nodes = (
(1006,960,o),
(996.5,982,q),
(987,1004,o),
(971,1020,q),
(955,1036,o),
(933,1045.5,q),
(911,1055,o),
(887,1055,q),
(715,1055,l),
(715,709,l),
(887,709,l),
(911,709,o),
(933,718.5,q),
(955,728,o),
(971,744,q),
(987,760,o),
(996.5,782,q),
(1006,804,o),
(1006,829,q),
(1006,936,l)
);
}
);
width = 1679;
}
);
unicode = 174;
},
{
glyphname = macron;
layers = (
{
layerId = "ac52443d-76b6-4d6b-8b4e-667b68a021e3";
name = Fore;
shapes = (
{
closed = 1;
nodes = (
(805,1329,l),
(805,1231,l),
(205,1231,l),
(205,1329,l)
);
}
);
width = 1010;
}
);
unicode = 175;
},
{
glyphname = degree;
layers = (
{
layerId = "ac52443d-76b6-4d6b-8b4e-667b68a021e3";
name = Fore;
shapes = (
{
closed = 1;
nodes = (
(143,1228,o),
(165.5,1280,q),
(188,1332,o),
(226.5,1370.5,q),
(265,1409,o),
(317,1431.5,q),
(369,1454,o),
(428,1454,q),
(487,1454,o),
(539,1431.5,q),
(591,1409,o),
(629.5,1370.5,q),
(668,1332,o),
(690.5,1280,q),
(713,1228,o),
(713,1169,q),
(713,1110,o),
(690.5,1058.5,q),
(668,1007,o),
(629.5,968.5,q),
(591,930,o),
(539,907.5,q),
(487,885,o),
(428,885,q),
(369,885,o),
(317,907.5,q),
(265,930,o),
(226.5,968.5,q),
(188,1007,o),
(165.5,1058.5,q),
(143,1110,o),
(143,1169,q)
);
},
{
closed = 1;
nodes = (
(258,1134,o),
(271.5,1102.5,q),
(285,1071,o),
(308,1047.5,q),
(331,1024,o),
(362,1010.5,q),
(393,997,o),
(428,997,q),
(463,997,o),
(494,1010.5,q),
(525,1024,o),
(548,1047.5,q),
(571,1071,o),
(584.5,1102.5,q),
(598,1134,o),
(598,1169,q),
(598,1205,o),
(584.5,1236,q),
(571,1267,o),
(548,1290.5,q),
(525,1314,o),
(494,1327.5,q),
(463,1341,o),
(428,1341,q),
(393,1341,o),
(362,1327.5,q),
(331,1314,o),
(308,1290.5,q),
(285,1267,o),
(271.5,1236,q),
(258,1205,o),
(258,1169,q)
);
}
);
width = 856;
}
);
unicode = 176;
},
{
glyphname = plusminus;
layers = (
{
layerId = "ac52443d-76b6-4d6b-8b4e-667b68a021e3";
name = Fore;
shapes = (
{
closed = 1;
nodes = (
(528,653,l),
(82,653,l),
(82,782,l),
(528,782,l),
(528,1229,l),
(657,1229,l),
(657,782,l),
(1106,782,l),
(1106,653,l),
(657,653,l),
(657,205,l),
(1106,205,l),
(1106,76,l),
(82,76,l),
(82,205,l),
(528,205,l)
);
}
);
width = 1188;
}
);
unicode = 177;
},
{
glyphname = twosuperior;
layers = (
{
layerId = "ac52443d-76b6-4d6b-8b4e-667b68a021e3";
name = Fore;
shapes = (
{
closed = 1;
nodes = (
(305,1346,o),
(280.5,1321.5,q),
(256,1297,o),
(256,1262,q),
(256,1214,l),
(158,1227,l),
(158,1262,l),
(158,1300,o),
(172.5,1332.5,q),
(187,1365,o),
(211,1389.5,q),
(235,1414,o),
(267.5,1428,q),
(300,1442,o),
(336,1442,q),
(365,1442,l),
(403,1442,o),
(435.5,1428.5,q),
(468,1415,o),
(492,1390.5,q),
(516,1366,o),
(529.5,1331,q),
(543,1296,o),
(543,1253,q),
(543,1220,o),
(533,1184.5,q),
(523,1149,o),
(506.5,1114,q),
(490,1079,o),
(469,1045,q),
(448,1011,o),
(426,981,q),
(374,910,o),
(309,842,q),
(549,842,l),
(549,745,l),
(143,745,l),
(143,823,l),
(228,892,o),
(294,965,q),
(322,996,o),
(349,1031.5,q),
(376,1067,o),
(397,1104,q),
(418,1141,o),
(431,1179,q),
(444,1217,o),
(444,1253,q),
(444,1300,o),
(419.5,1323,q),
(395,1346,o),
(362,1346,q),
(340,1346,l)
);
}
);
width = 692;
}
);
unicode = 178;
},
{
glyphname = threesuperior;
layers = (
{
layerId = "ac52443d-76b6-4d6b-8b4e-667b68a021e3";
name = Fore;
shapes = (
{
closed = 1;
nodes = (
(528,879,o),
(514.5,846.5,q),
(501,814,o),
(477,790,q),
(453,766,o),
(420.5,751.5,q),
(388,737,o),
(350,737,q),
(322,737,l),
(284,737,o),
(251.5,751.5,q),
(219,766,o),
(195,790,q),
(171,814,o),
(157,846.5,q),
(143,879,o),
(143,915,q),
(143,950,l),
(242,965,l),
(242,915,l),
(242,881,o),
(266.5,857.5,q),
(291,834,o),
(326,834,q),
(346,834,l),
(381,834,o),
(405.5,857.5,q),
(430,881,o),
(430,915,q),
(430,969,l),
(430,1004,o),
(405.5,1028.5,q),
(381,1053,o),
(346,1053,q),
(283,1053,l),
(283,1149,l),
(346,1149,l),
(364,1149,o),
(379,1155.5,q),
(394,1162,o),
(405.5,1173,q),
(417,1184,o),
(423.5,1199,q),
(430,1214,o),
(430,1231,q),
(430,1264,l),
(430,1281,o),
(423.5,1296,q),
(417,1311,o),
(405.5,1322,q),
(394,1333,o),
(379,1339.5,q),
(364,1346,o),
(346,1346,q),
(326,1346,l),
(308,1346,o),
(293,1339.5,q),
(278,1333,o),
(266.5,1322,q),
(255,1311,o),
(248.5,1296,q),
(242,1281,o),
(242,1264,q),
(242,1214,l),
(143,1229,l),
(143,1264,l),
(143,1300,o),
(157,1332.5,q),
(171,1365,o),
(195,1389,q),
(219,1413,o),
(251.5,1427.5,q),
(284,1442,o),
(322,1442,q),
(350,1442,l),
(388,1442,o),
(420.5,1427.5,q),
(453,1413,o),
(477,1389,q),
(501,1365,o),
(514.5,1332.5,q),
(528,1300,o),
(528,1264,q),
(528,1241,l),
(528,1150,o),
(463,1100,q),
(491,1075,o),
(509.5,1038,q),
(528,1001,o),
(528,961,q),
(528,915,l),
(528,915,l)
);
}
);
width = 672;
}
);
unicode = 179;
},
{
glyphname = acute;
layers = (
{
layerId = "ac52443d-76b6-4d6b-8b4e-667b68a021e3";
name = Fore;
shapes = (
{
closed = 1;
nodes = (
(205,1188,l),
(369,1434,l),
(573,1434,l),
(297,1188,l)
);
}
);
width = 778;
}
);
unicode = 180;
},
{
glyphname = mu;
layers = (
{
layerId = "ac52443d-76b6-4d6b-8b4e-667b68a021e3";
name = Fore;
shapes = (
{
closed = 1;
nodes = (
(246,1024,l),
(246,274,l),
(246,237,o),
(260,204.5,q),
(274,172,o),
(298,148,q),
(322,124,o),
(354.5,110,q),
(387,96,o),
(424,96,q),
(506,96,l),
(543,96,o),
(575.5,110,q),
(608,124,o),
(632,148,q),
(656,172,o),
(670,204.5,q),
(684,237,o),
(684,274,q),
(684,1024,l),
(807,1024,l),
(807,0,l),
(766,0,l),
(698,104,l),
(656,47,o),
(593,13.5,q),
(530,-20,o),
(455,-20,q),
(424,-20,l),
(373,-20,o),
(328,-4.5,q),
(283,11,o),
(246,39,q),
(246,-295,l),
(123,-295,l),
(123,1024,l)
);
}
);
width = 930;
}
);
unicode = 181;
},
{
glyphname = paragraph;
layers = (
{
layerId = "ac52443d-76b6-4d6b-8b4e-667b68a021e3";
name = Fore;
shapes = (
{
closed = 1;
nodes = (
(557,-410,l),
(557,633,l),
(455,633,l),
(382,633,o),
(317.5,660.5,q),
(253,688,o),
(205,736,q),
(157,784,o),
(129.5,848,q),
(102,912,o),
(102,985,q),
(102,1081,l),
(102,1154,o),
(129.5,1218.5,q),
(157,1283,o),
(205,1331,q),
(253,1379,o),
(317.5,1406.5,q),
(382,1434,o),
(455,1434,q),
(991,1434,l),
(991,-410,l),
(862,-410,l),
(862,1311,l),
(686,1311,l),
(686,-410,l)
);
}
);
width = 1155;
}
);
unicode = 182;
},
{
glyphname = periodcentered;
layers = (
{
layerId = "ac52443d-76b6-4d6b-8b4e-667b68a021e3";
name = Fore;
shapes = (
{
closed = 1;
nodes = (
(143,809,l),
(297,809,l),
(297,655,l),
(143,655,l)
);
}
);
width = 440;
}
);
unicode = 183;
},
{
glyphname = cedilla;
layers = (
{
layerId = "ac52443d-76b6-4d6b-8b4e-667b68a021e3";
name = Fore;
shapes = (
{
closed = 1;
nodes = (
(502,0,l),
(442,-102,l),
(451,-106,o),
(467,-116.5,q),
(483,-127,o),
(498.5,-145,q),
(514,-163,o),
(525.5,-188,q),
(537,-213,o),
(537,-246,q),
(537,-284,o),
(523,-315,q),
(509,-346,o),
(484.5,-367.5,q),
(460,-389,o),
(426,-400.5,q),
(392,-412,o),
(352,-412,q),
(307,-412,o),
(270.5,-394.5,q),
(234,-377,o),
(205,-348,q),
(252,-276,l),
(257,-282,o),
(266,-290,q),
(275,-298,o),
(288.5,-305,q),
(302,-312,o),
(318.5,-317,q),
(335,-322,o),
(354,-322,q),
(391,-322,o),
(416.5,-301,q),
(442,-280,o),
(442,-242,q),
(442,-218,o),
(432.5,-200,q),
(423,-182,o),
(406.5,-170,q),
(390,-158,o),
(369,-153,q),
(348,-148,o),
(324,-150,q),
(416,0,l)
);
}
);
width = 741;
}
);
unicode = 184;
},
{
glyphname = onesuperior;
layers = (
{
layerId = "ac52443d-76b6-4d6b-8b4e-667b68a021e3";
name = Fore;
shapes = (
{
closed = 1;
nodes = (
(143,842,l),
(299,842,l),
(299,1327,l),
(143,1262,l),
(143,1362,l),
(317,1434,l),
(397,1434,l),
(397,842,l),
(551,842,l),
(551,745,l),
(143,745,l)
);
}
);
width = 694;
}
);
unicode = 185;
},
{
glyphname = ordmasculine;
layers = (
{
layerId = "ac52443d-76b6-4d6b-8b4e-667b68a021e3";
name = Fore;
shapes = (
{
closed = 1;
nodes = (
(573,934,o),
(558,899,q),
(543,864,o),
(517.5,838,q),
(492,812,o),
(457.5,797,q),
(423,782,o),
(383,782,q),
(334,782,l),
(294,782,o),
(259,797,q),
(224,812,o),
(198.5,838,q),
(173,864,o),
(158,899,q),
(143,934,o),
(143,973,q),
(143,1251,l),
(143,1290,o),
(158,1325,q),
(173,1360,o),
(198.5,1386,q),
(224,1412,o),
(259,1427,q),
(294,1442,o),
(334,1442,q),
(383,1442,l),
(423,1442,o),
(457.5,1427,q),
(492,1412,o),
(517.5,1386,q),
(543,1360,o),
(558,1325,q),
(573,1290,o),
(573,1251,q),
(573,973,l),
(573,973,l)
);
},
{
closed = 1;
nodes = (
(479,1275,o),
(471.5,1292.5,q),
(464,1310,o),
(451,1323,q),
(438,1336,o),
(420.5,1344,q),
(403,1352,o),
(383,1352,q),
(334,1352,l),
(314,1352,o),
(296.5,1344,q),
(279,1336,o),
(266,1323,q),
(253,1310,o),
(245.5,1292.5,q),
(238,1275,o),
(238,1255,q),
(238,969,l),
(238,950,o),
(245.5,932.5,q),
(253,915,o),
(266,901.5,q),
(279,888,o),
(296.5,880,q),
(314,872,o),
(334,872,q),
(383,872,l),
(403,872,o),
(420.5,880,q),
(438,888,o),
(451,901.5,q),
(464,915,o),
(471.5,932.5,q),
(479,950,o),
(479,969,q),
(479,1255,l)
);
},
{
closed = 1;
nodes = (
(573,631,l),
(573,553,l),
(143,553,l),
(143,631,l)
);
}
);
width = 717;
}
);
unicode = 186;
},
{
glyphname = guillemotright;
layers = (
{
layerId = "ac52443d-76b6-4d6b-8b4e-667b68a021e3";
name = Fore;
shapes = (
{
closed = 1;
nodes = (
(373,467,l),
(123,809,l),
(164,850,l),
(541,467,l),
(164,84,l),
(123,125,l)
);
},
{
closed = 1;
nodes = (
(711,467,l),
(461,809,l),
(502,850,l),
(879,467,l),
(502,84,l),
(461,125,l)
);
}
);
width = 961;
}
);
unicode = 187;
},
{
glyphname = onequarter;
layers = (
{
layerId = "ac52443d-76b6-4d6b-8b4e-667b68a021e3";
name = Fore;
shapes = (
{
closed = 1;
nodes = (
(1165,0,l),
(1075,0,l),
(1075,119,l),
(815,119,l),
(815,166,l),
(1108,686,l),
(1165,686,l),
(1165,207,l),
(1221,207,l),
(1221,119,l),
(1165,119,l)
);
},
{
closed = 1;
nodes = (
(942,207,l),
(1075,207,l),
(1075,449,l)
);
},
{
closed = 1;
nodes = (
(1104,1434,l),
(1219,1434,l),
(401,0,l),
(287,0,l)
);
},
{
closed = 1;
nodes = (
(143,842,l),
(299,842,l),
(299,1327,l),
(143,1262,l),
(143,1362,l),
(317,1434,l),
(397,1434,l),
(397,842,l),
(551,842,l),
(551,745,l),
(143,745,l)
);
}
);
width = 1364;
}
);
unicode = 188;
},
{
glyphname = onehalf;
layers = (
{
layerId = "ac52443d-76b6-4d6b-8b4e-667b68a021e3";
name = Fore;
shapes = (
{
closed = 1;
nodes = (
(143,842,l),
(299,842,l),
(299,1327,l),
(143,1262,l),
(143,1362,l),
(317,1434,l),
(397,1434,l),
(397,842,l),
(551,842,l),
(551,745,l),
(143,745,l)
);
},
{
closed = 1;
nodes = (
(1061,600,o),
(1036.5,575.5,q),
(1012,551,o),
(1012,516,q),
(1012,469,l),
(913,481,l),
(913,516,l),
(913,554,o),
(927.5,586.5,q),
(942,619,o),
(966.5,643.5,q),
(991,668,o),
(1023.5,682,q),
(1056,696,o),
(1092,696,q),
(1120,696,l),
(1158,696,o),
(1190.5,683,q),
(1223,670,o),
(1247,645.5,q),
(1271,621,o),
(1284.5,586,q),
(1298,551,o),
(1298,508,q),
(1298,475,o),
(1288,439.5,q),
(1278,404,o),
(1261.5,368.5,q),
(1245,333,o),
(1224.5,299,q),
(1204,265,o),
(1182,235,q),
(1131,164,o),
(1065,96,q),
(1305,96,l),
(1305,0,l),
(899,0,l),
(899,78,l),
(984,147,o),
(1050,220,q),
(1078,251,o),
(1105,286.5,q),
(1132,322,o),
(1153,359,q),
(1174,396,o),
(1187,434,q),
(1200,472,o),
(1200,508,q),
(1200,554,o),
(1175,577,q),
(1150,600,o),
(1118,600,q),
(1096,600,l)
);
},
{
closed = 1;
nodes = (
(1104,1434,l),
(1219,1434,l),
(401,0,l),
(287,0,l)
);
}
);
width = 1448;
}
);
unicode = 189;
},
{
glyphname = threequarters;
layers = (
{
layerId = "ac52443d-76b6-4d6b-8b4e-667b68a021e3";
name = Fore;
shapes = (
{
closed = 1;
nodes = (
(528,879,o),
(514.5,846.5,q),
(501,814,o),
(477,790,q),
(453,766,o),
(420.5,751.5,q),
(388,737,o),
(350,737,q),
(322,737,l),
(284,737,o),
(251.5,751.5,q),
(219,766,o),
(195,790,q),
(171,814,o),
(157,846.5,q),
(143,879,o),
(143,915,q),
(143,950,l),
(242,965,l),
(242,915,l),
(242,881,o),
(266.5,857.5,q),
(291,834,o),
(326,834,q),
(346,834,l),
(381,834,o),
(405.5,857.5,q),
(430,881,o),
(430,915,q),
(430,969,l),
(430,1004,o),
(405.5,1028.5,q),
(381,1053,o),
(346,1053,q),
(283,1053,l),
(283,1149,l),
(346,1149,l),
(364,1149,o),
(379,1155.5,q),
(394,1162,o),
(405.5,1173,q),
(417,1184,o),
(423.5,1199,q),
(430,1214,o),
(430,1231,q),
(430,1264,l),
(430,1281,o),
(423.5,1296,q),
(417,1311,o),
(405.5,1322,q),
(394,1333,o),
(379,1339.5,q),
(364,1346,o),
(346,1346,q),
(326,1346,l),
(308,1346,o),
(293,1339.5,q),
(278,1333,o),
(266.5,1322,q),
(255,1311,o),
(248.5,1296,q),
(242,1281,o),
(242,1264,q),
(242,1214,l),
(143,1229,l),
(143,1264,l),
(143,1300,o),
(157,1332.5,q),
(171,1365,o),
(195,1389,q),
(219,1413,o),
(251.5,1427.5,q),
(284,1442,o),
(322,1442,q),
(350,1442,l),
(388,1442,o),
(420.5,1427.5,q),
(453,1413,o),
(477,1389,q),
(501,1365,o),
(514.5,1332.5,q),
(528,1300,o),
(528,1264,q),
(528,1241,l),
(528,1150,o),
(463,1100,q),
(491,1075,o),
(509.5,1038,q),
(528,1001,o),
(528,961,q),
(528,915,l),
(528,915,l)
);
},
{
closed = 1;
nodes = (
(1165,0,l),
(1075,0,l),
(1075,119,l),
(815,119,l),
(815,166,l),
(1108,686,l),
(1165,686,l),
(1165,207,l),
(1221,207,l),
(1221,119,l),
(1165,119,l)
);
},
{
closed = 1;
nodes = (
(942,207,l),
(1075,207,l),
(1075,449,l)
);
},
{
closed = 1;
nodes = (
(1104,1434,l),
(1219,1434,l),
(401,0,l),
(287,0,l)
);
}
);
width = 1364;
}
);
unicode = 190;
},
{
glyphname = questiondown;
layers = (
{
layerId = "ac52443d-76b6-4d6b-8b4e-667b68a021e3";
name = Fore;
shapes = (
{
closed = 1;
nodes = (
(618,870,l),
(465,870,l),
(465,1024,l),
(618,1024,l)
);
},
{
closed = 1;
nodes = (
(606,590,l),
(606,551,l),
(606,485,o),
(590,436,q),
(574,387,o),
(547.5,350,q),
(521,313,o),
(487.5,284,q),
(454,255,o),
(418.5,228.5,q),
(383,202,o),
(349.5,175,q),
(316,148,o),
(289.5,115,q),
(263,82,o),
(247,40,q),
(231,-2,o),
(231,-59,q),
(231,-78,l),
(231,-126,o),
(249,-167.5,q),
(267,-209,o),
(298.5,-240,q),
(330,-271,o),
(371.5,-289,q),
(413,-307,o),
(461,-307,q),
(489,-307,l),
(537,-307,o),
(578.5,-289,q),
(620,-271,o),
(651.5,-240,q),
(683,-209,o),
(701,-167.5,q),
(719,-126,o),
(719,-78,q),
(719,-20,l),
(848,-41,l),
(848,-78,l),
(848,-151,o),
(820.5,-215,q),
(793,-279,o),
(745,-327,q),
(697,-375,o),
(633,-402.5,q),
(569,-430,o),
(496,-430,q),
(455,-430,l),
(382,-430,o),
(317.5,-402.5,q),
(253,-375,o),
(205,-327,q),
(157,-279,o),
(129.5,-215,q),
(102,-151,o),
(102,-78,q),
(102,-59,l),
(102,10,o),
(118,62,q),
(134,114,o),
(160.5,154,q),
(187,194,o),
(220.5,225,q),
(254,256,o),
(289.5,283,q),
(325,310,o),
(358.5,336,q),
(392,362,o),
(418.5,393,q),
(445,424,o),
(461,462,q),
(477,500,o),
(477,551,q),
(477,590,l)
);
}
);
width = 950;
}
);
unicode = 191;
},
{
glyphname = Agrave;
layers = (
{
layerId = "ac52443d-76b6-4d6b-8b4e-667b68a021e3";
name = Fore;
shapes = (
{
closed = 1;
nodes = (
(248,334,l),
(154,0,l),
(20,0,l),
(440,1434,l),
(508,1434,l),
(930,0,l),
(797,0,l),
(702,334,l)
);
},
{
closed = 1;
nodes = (
(668,457,l),
(479,1118,l),
(475,1171,l),
(471,1118,l),
(283,457,l)
);
},
{
closed = 1;
nodes = (
(455,1843,l),
(618,1597,l),
(526,1597,l),
(250,1843,l)
);
}
);
width = 950;
}
);
unicode = 192;
},
{
glyphname = Aacute;
layers = (
{
layerId = "ac52443d-76b6-4d6b-8b4e-667b68a021e3";
name = Fore;
shapes = (
{
closed = 1;
nodes = (
(248,334,l),
(154,0,l),
(20,0,l),
(440,1434,l),
(508,1434,l),
(930,0,l),
(797,0,l),
(702,334,l)
);
},
{
closed = 1;
nodes = (
(668,457,l),
(479,1118,l),
(475,1171,l),
(471,1118,l),
(283,457,l)
);
},
{
closed = 1;
nodes = (
(332,1597,l),
(496,1843,l),
(700,1843,l),
(424,1597,l)
);
}
);
width = 950;
}
);
unicode = 193;
},
{
glyphname = Acircumflex;
layers = (
{
layerId = "ac52443d-76b6-4d6b-8b4e-667b68a021e3";
name = Fore;
shapes = (
{
closed = 1;
nodes = (
(248,334,l),
(154,0,l),
(20,0,l),
(440,1434,l),
(508,1434,l),
(930,0,l),
(797,0,l),
(702,334,l)
);
},
{
closed = 1;
nodes = (
(668,457,l),
(479,1118,l),
(475,1171,l),
(471,1118,l),
(283,457,l)
);
},
{
closed = 1;
nodes = (
(618,1597,l),
(475,1761,l),
(332,1597,l),
(209,1597,l),
(414,1843,l),
(537,1843,l),
(741,1597,l)
);
}
);
width = 950;
}
);
unicode = 194;
},
{
glyphname = Atilde;
layers = (
{
layerId = "ac52443d-76b6-4d6b-8b4e-667b68a021e3";
name = Fore;
shapes = (
{
closed = 1;
nodes = (
(248,334,l),
(154,0,l),
(20,0,l),
(440,1434,l),
(508,1434,l),
(930,0,l),
(797,0,l),
(702,334,l)
);
},
{
closed = 1;
nodes = (
(668,457,l),
(479,1118,l),
(475,1171,l),
(471,1118,l),
(283,457,l)
);
},
{
closed = 1;
nodes = (
(654,1729,o),
(676,1760.5,q),
(698,1792,o),
(698,1843,q),
(793,1843,l),
(793,1798,o),
(781.5,1759,q),
(770,1720,o),
(747,1691,q),
(724,1662,o),
(689.5,1645,q),
(655,1628,o),
(610,1628,q),
(562,1628,o),
(525.5,1646,q),
(489,1664,o),
(457.5,1685.5,q),
(426,1707,o),
(397.5,1725,q),
(369,1743,o),
(338,1743,q),
(296,1743,o),
(275,1711.5,q),
(254,1680,o),
(254,1630,q),
(160,1630,l),
(160,1675,o),
(171,1713.5,q),
(182,1752,o),
(204.5,1781,q),
(227,1810,o),
(261.5,1826.5,q),
(296,1843,o),
(342,1843,q),
(387,1843,o),
(421.5,1825,q),
(456,1807,o),
(486.5,1786,q),
(517,1765,o),
(547,1747,q),
(577,1729,o),
(612,1729,q)
);
}
);
width = 950;
}
);
unicode = 195;
},
{
glyphname = Adieresis;
layers = (
{
layerId = "ac52443d-76b6-4d6b-8b4e-667b68a021e3";
name = Fore;
shapes = (
{
closed = 1;
nodes = (
(248,334,l),
(154,0,l),
(20,0,l),
(440,1434,l),
(508,1434,l),
(930,0,l),
(797,0,l),
(702,334,l)
);
},
{
closed = 1;
nodes = (
(668,457,l),
(479,1118,l),
(475,1171,l),
(471,1118,l),
(283,457,l)
);
},
{
closed = 1;
nodes = (
(205,1794,l),
(358,1794,l),
(358,1640,l),
(205,1640,l)
);
},
{
closed = 1;
nodes = (
(592,1794,l),
(745,1794,l),
(745,1640,l),
(592,1640,l)
);
}
);
width = 950;
}
);
unicode = 196;
},
{
glyphname = Aring;
layers = (
{
layerId = "ac52443d-76b6-4d6b-8b4e-667b68a021e3";
name = Fore;
shapes = (
{
closed = 1;
nodes = (
(264,1590,o),
(280.5,1628.5,q),
(297,1667,o),
(325.5,1696,q),
(354,1725,o),
(392.5,1742,q),
(431,1759,o),
(475,1759,q),
(519,1759,o),
(557.5,1742,q),
(596,1725,o),
(625,1696,q),
(654,1667,o),
(671,1628.5,q),
(688,1590,o),
(688,1546,q),
(688,1510,o),
(676.5,1477.5,q),
(665,1445,o),
(644.5,1418,q),
(624,1391,o),
(596,1371.5,q),
(568,1352,o),
(535,1343,q),
(930,0,l),
(797,0,l),
(702,334,l),
(248,334,l),
(154,0,l),
(20,0,l),
(414,1343,l),
(381,1353,o),
(353.5,1372.5,q),
(326,1392,o),
(306,1418.5,q),
(286,1445,o),
(275,1477.5,q),
(264,1510,o),
(264,1546,q)
);
},
{
closed = 1;
nodes = (
(668,457,l),
(479,1118,l),
(475,1171,l),
(471,1118,l),
(283,457,l)
);
},
{
closed = 1;
nodes = (
(367,1524,o),
(375.5,1504,q),
(384,1484,o),
(399,1469,q),
(414,1454,o),
(433.5,1445,q),
(453,1436,o),
(475,1436,q),
(498,1436,o),
(518.5,1445,q),
(539,1454,o),
(554,1469,q),
(569,1484,o),
(577.5,1504,q),
(586,1524,o),
(586,1546,q),
(586,1569,o),
(577.5,1589.5,q),
(569,1610,o),
(554,1625.5,q),
(539,1641,o),
(518.5,1650,q),
(498,1659,o),
(475,1659,q),
(453,1659,o),
(433.5,1650,q),
(414,1641,o),
(399,1625.5,q),
(384,1610,o),
(375.5,1589.5,q),
(367,1569,o),
(367,1546,q)
);
}
);
width = 950;
}
);
unicode = 197;
},
{
glyphname = AE;
layers = (
{
layerId = "ac52443d-76b6-4d6b-8b4e-667b68a021e3";
name = Fore;
shapes = (
{
closed = 1;
nodes = (
(879,334,l),
(352,334,l),
(154,0,l),
(20,0,l),
(879,1434,l),
(1686,1434,l),
(1686,1311,l),
(1008,1311,l),
(1008,778,l),
(1556,778,l),
(1556,655,l),
(1008,655,l),
(1008,123,l),
(1686,123,l),
(1686,0,l),
(879,0,l)
);
},
{
closed = 1;
nodes = (
(879,1229,l),
(858,1176,l),
(426,457,l),
(879,457,l)
);
}
);
width = 1767;
}
);
unicode = 198;
},
{
glyphname = Ccedilla;
layers = (
{
layerId = "ac52443d-76b6-4d6b-8b4e-667b68a021e3";
name = Fore;
shapes = (
{
closed = 1;
nodes = (
(496,-20,l),
(423,-20,o),
(358.5,7.5,q),
(294,35,o),
(246,83,q),
(198,131,o),
(170.5,195,q),
(143,259,o),
(143,332,q),
(143,1102,l),
(143,1175,o),
(170.5,1239,q),
(198,1303,o),
(246,1351,q),
(294,1399,o),
(358.5,1426.5,q),
(423,1454,o),
(496,1454,q),
(598,1454,l),
(671,1454,o),
(735,1426.5,q),
(799,1399,o),
(847,1351,q),
(895,1303,o),
(922.5,1239,q),
(950,1175,o),
(950,1102,q),
(950,1044,l),
(821,1024,l),
(821,1102,l),
(821,1150,o),
(803,1191.5,q),
(785,1233,o),
(754,1264,q),
(723,1295,o),
(681.5,1313,q),
(640,1331,o),
(592,1331,q),
(502,1331,l),
(454,1331,o),
(412.5,1313,q),
(371,1295,o),
(339.5,1264,q),
(308,1233,o),
(290,1191.5,q),
(272,1150,o),
(272,1102,q),
(272,332,l),
(272,284,o),
(290,242.5,q),
(308,201,o),
(339.5,169.5,q),
(371,138,o),
(412.5,120,q),
(454,102,o),
(502,102,q),
(592,102,l),
(640,102,o),
(681.5,120,q),
(723,138,o),
(754,169.5,q),
(785,201,o),
(803,242.5,q),
(821,284,o),
(821,332,q),
(821,410,l),
(950,389,l),
(950,332,l),
(950,259,o),
(922.5,195,q),
(895,131,o),
(847,83,q),
(799,35,o),
(735,7.5,q),
(671,-20,o),
(598,-20,q),
(594,-20,l),
(547,-102,l),
(556,-106,o),
(572,-116.5,q),
(588,-127,o),
(603,-145,q),
(618,-163,o),
(629.5,-188,q),
(641,-213,o),
(641,-246,q),
(641,-284,o),
(627,-315,q),
(613,-346,o),
(588.5,-367.5,q),
(564,-389,o),
(530.5,-400.5,q),
(497,-412,o),
(457,-412,q),
(412,-412,o),
(375,-394.5,q),
(338,-377,o),
(309,-348,q),
(356,-276,l),
(361,-282,o),
(370.5,-290,q),
(380,-298,o),
(393.5,-305,q),
(407,-312,o),
(423.5,-317,q),
(440,-322,o),
(459,-322,q),
(496,-322,o),
(521.5,-301,q),
(547,-280,o),
(547,-242,q),
(547,-218,o),
(537.5,-200,q),
(528,-182,o),
(511.5,-170,q),
(495,-158,o),
(473.5,-153,q),
(452,-148,o),
(428,-150,q),
(508,-20,l)
);
}
);
width = 1073;
}
);
unicode = 199;
},
{
glyphname = Egrave;
layers = (
{
layerId = "ac52443d-76b6-4d6b-8b4e-667b68a021e3";
name = Fore;
shapes = (
{
closed = 1;
nodes = (
(164,1434,l),
(971,1434,l),
(971,1311,l),
(293,1311,l),
(293,778,l),
(842,778,l),
(842,655,l),
(293,655,l),
(293,123,l),
(971,123,l),
(971,0,l),
(164,0,l)
);
},
{
closed = 1;
nodes = (
(506,1843,l),
(670,1597,l),
(578,1597,l),
(301,1843,l)
);
}
);
width = 1053;
}
);
unicode = 200;
},
{
glyphname = Eacute;
layers = (
{
layerId = "ac52443d-76b6-4d6b-8b4e-667b68a021e3";
name = Fore;
shapes = (
{
closed = 1;
nodes = (
(164,1434,l),
(971,1434,l),
(971,1311,l),
(293,1311,l),
(293,778,l),
(842,778,l),
(842,655,l),
(293,655,l),
(293,123,l),
(971,123,l),
(971,0,l),
(164,0,l)
);
},
{
closed = 1;
nodes = (
(424,1597,l),
(588,1843,l),
(793,1843,l),
(516,1597,l)
);
}
);
width = 1053;
}
);
unicode = 201;
},
{
glyphname = Ecircumflex;
layers = (
{
layerId = "ac52443d-76b6-4d6b-8b4e-667b68a021e3";
name = Fore;
shapes = (
{
closed = 1;
nodes = (
(164,1434,l),
(971,1434,l),
(971,1311,l),
(293,1311,l),
(293,778,l),
(842,778,l),
(842,655,l),
(293,655,l),
(293,123,l),
(971,123,l),
(971,0,l),
(164,0,l)
);
},
{
closed = 1;
nodes = (
(711,1597,l),
(567,1761,l),
(424,1597,l),
(301,1597,l),
(506,1843,l),
(629,1843,l),
(834,1597,l)
);
}
);
width = 1053;
}
);
unicode = 202;
},
{
glyphname = Edieresis;
layers = (
{
layerId = "ac52443d-76b6-4d6b-8b4e-667b68a021e3";
name = Fore;
shapes = (
{
closed = 1;
nodes = (
(164,1434,l),
(971,1434,l),
(971,1311,l),
(293,1311,l),
(293,778,l),
(842,778,l),
(842,655,l),
(293,655,l),
(293,123,l),
(971,123,l),
(971,0,l),
(164,0,l)
);
},
{
closed = 1;
nodes = (
(256,1794,l),
(410,1794,l),
(410,1640,l),
(256,1640,l)
);
},
{
closed = 1;
nodes = (
(643,1794,l),
(797,1794,l),
(797,1640,l),
(643,1640,l)
);
}
);
width = 1053;
}
);
unicode = 203;
},
{
glyphname = Igrave;
layers = (
{
layerId = "ac52443d-76b6-4d6b-8b4e-667b68a021e3";
name = Fore;
shapes = (
{
closed = 1;
nodes = (
(164,1434,l),
(293,1434,l),
(293,0,l),
(164,0,l)
);
},
{
closed = 1;
nodes = (
(209,1843,l),
(373,1597,l),
(281,1597,l),
(4,1843,l)
);
}
);
width = 457;
}
);
unicode = 204;
},
{
glyphname = Iacute;
layers = (
{
layerId = "ac52443d-76b6-4d6b-8b4e-667b68a021e3";
name = Fore;
shapes = (
{
closed = 1;
nodes = (
(164,1434,l),
(293,1434,l),
(293,0,l),
(164,0,l)
);
},
{
closed = 1;
nodes = (
(86,1597,l),
(250,1843,l),
(455,1843,l),
(178,1597,l)
);
}
);
width = 457;
}
);
unicode = 205;
},
{
glyphname = Icircumflex;
layers = (
{
layerId = "ac52443d-76b6-4d6b-8b4e-667b68a021e3";
name = Fore;
shapes = (
{
closed = 1;
nodes = (
(164,1434,l),
(293,1434,l),
(293,0,l),
(164,0,l)
);
},
{
closed = 1;
nodes = (
(373,1597,l),
(229,1761,l),
(86,1597,l),
(-37,1597,l),
(168,1843,l),
(291,1843,l),
(496,1597,l)
);
}
);
width = 457;
}
);
unicode = 206;
},
{
glyphname = Idieresis;
layers = (
{
layerId = "ac52443d-76b6-4d6b-8b4e-667b68a021e3";
name = Fore;
shapes = (
{
closed = 1;
nodes = (
(164,1434,l),
(293,1434,l),
(293,0,l),
(164,0,l)
);
},
{
closed = 1;
nodes = (
(-41,1794,l),
(113,1794,l),
(113,1640,l),
(-41,1640,l)
);
},
{
closed = 1;
nodes = (
(346,1794,l),
(500,1794,l),
(500,1640,l),
(346,1640,l)
);
}
);
width = 457;
}
);
unicode = 207;
},
{
glyphname = Eth;
layers = (
{
layerId = "ac52443d-76b6-4d6b-8b4e-667b68a021e3";
name = Fore;
shapes = (
{
closed = 1;
nodes = (
(188,1434,l),
(643,1434,l),
(716,1434,o),
(780,1406.5,q),
(844,1379,o),
(892,1331,q),
(940,1283,o),
(967.5,1218.5,q),
(995,1154,o),
(995,1081,q),
(995,352,l),
(995,279,o),
(967.5,215,q),
(940,151,o),
(892,103,q),
(844,55,o),
(780,27.5,q),
(716,0,o),
(643,0,q),
(188,0,l),
(188,584,l),
(61,584,l),
(61,686,l),
(188,686,l)
);
},
{
closed = 1;
nodes = (
(866,1129,o),
(848,1170.5,q),
(830,1212,o),
(799,1243.5,q),
(768,1275,o),
(726.5,1293,q),
(685,1311,o),
(637,1311,q),
(317,1311,l),
(317,686,l),
(557,686,l),
(557,584,l),
(317,584,l),
(317,123,l),
(637,123,l),
(685,123,o),
(726.5,141,q),
(768,159,o),
(799,190,q),
(830,221,o),
(848,262.5,q),
(866,304,o),
(866,352,q),
(866,1081,l)
);
}
);
width = 1139;
}
);
unicode = 208;
},
{
glyphname = Ntilde;
layers = (
{
layerId = "ac52443d-76b6-4d6b-8b4e-667b68a021e3";
name = Fore;
shapes = (
{
closed = 1;
nodes = (
(305,1044,l),
(293,1106,l),
(293,0,l),
(164,0,l),
(164,1434,l),
(231,1434,l),
(829,389,l),
(842,328,l),
(842,1434,l),
(971,1434,l),
(971,0,l),
(903,0,l)
);
},
{
closed = 1;
nodes = (
(744,1729,o),
(766,1760.5,q),
(788,1792,o),
(788,1843,q),
(883,1843,l),
(883,1798,o),
(871.5,1759,q),
(860,1720,o),
(837,1691,q),
(814,1662,o),
(779.5,1645,q),
(745,1628,o),
(700,1628,q),
(652,1628,o),
(615.5,1646,q),
(579,1664,o),
(547.5,1685.5,q),
(516,1707,o),
(487.5,1725,q),
(459,1743,o),
(428,1743,q),
(386,1743,o),
(365,1711.5,q),
(344,1680,o),
(344,1630,q),
(250,1630,l),
(250,1675,o),
(261,1713.5,q),
(272,1752,o),
(294.5,1781,q),
(317,1810,o),
(351.5,1826.5,q),
(386,1843,o),
(432,1843,q),
(477,1843,o),
(511.5,1825,q),
(546,1807,o),
(576.5,1786,q),
(607,1765,o),
(637,1747,q),
(667,1729,o),
(702,1729,q)
);
}
);
width = 1135;
}
);
unicode = 209;
},
{
glyphname = Ograve;
layers = (
{
layerId = "ac52443d-76b6-4d6b-8b4e-667b68a021e3";
name = Fore;
shapes = (
{
closed = 1;
nodes = (
(950,259,o),
(922.5,195,q),
(895,131,o),
(847,83,q),
(799,35,o),
(735,7.5,q),
(671,-20,o),
(598,-20,q),
(496,-20,l),
(423,-20,o),
(358.5,7.5,q),
(294,35,o),
(246,83,q),
(198,131,o),
(170.5,195,q),
(143,259,o),
(143,332,q),
(143,1102,l),
(143,1175,o),
(170.5,1239,q),
(198,1303,o),
(246,1351,q),
(294,1399,o),
(358.5,1426.5,q),
(423,1454,o),
(496,1454,q),
(598,1454,l),
(671,1454,o),
(735,1426.5,q),
(799,1399,o),
(847,1351,q),
(895,1303,o),
(922.5,1239,q),
(950,1175,o),
(950,1102,q),
(950,332,l),
(950,332,l)
);
},
{
closed = 1;
nodes = (
(821,1150,o),
(803,1191.5,q),
(785,1233,o),
(754,1264,q),
(723,1295,o),
(681.5,1313,q),
(640,1331,o),
(592,1331,q),
(502,1331,l),
(454,1331,o),
(412.5,1313,q),
(371,1295,o),
(339.5,1264,q),
(308,1233,o),
(290,1191.5,q),
(272,1150,o),
(272,1102,q),
(272,332,l),
(272,284,o),
(290,242.5,q),
(308,201,o),
(339.5,169.5,q),
(371,138,o),
(412.5,120,q),
(454,102,o),
(502,102,q),
(592,102,l),
(640,102,o),
(681.5,120,q),
(723,138,o),
(754,169.5,q),
(785,201,o),
(803,242.5,q),
(821,284,o),
(821,332,q),
(821,1102,l)
);
},
{
closed = 1;
nodes = (
(547,1843,l),
(711,1597,l),
(618,1597,l),
(342,1843,l)
);
}
);
width = 1094;
}
);
unicode = 210;
},
{
glyphname = Oacute;
layers = (
{
layerId = "ac52443d-76b6-4d6b-8b4e-667b68a021e3";
name = Fore;
shapes = (
{
closed = 1;
nodes = (
(950,259,o),
(922.5,195,q),
(895,131,o),
(847,83,q),
(799,35,o),
(735,7.5,q),
(671,-20,o),
(598,-20,q),
(496,-20,l),
(423,-20,o),
(358.5,7.5,q),
(294,35,o),
(246,83,q),
(198,131,o),
(170.5,195,q),
(143,259,o),
(143,332,q),
(143,1102,l),
(143,1175,o),
(170.5,1239,q),
(198,1303,o),
(246,1351,q),
(294,1399,o),
(358.5,1426.5,q),
(423,1454,o),
(496,1454,q),
(598,1454,l),
(671,1454,o),
(735,1426.5,q),
(799,1399,o),
(847,1351,q),
(895,1303,o),
(922.5,1239,q),
(950,1175,o),
(950,1102,q),
(950,332,l),
(950,332,l)
);
},
{
closed = 1;
nodes = (
(821,1150,o),
(803,1191.5,q),
(785,1233,o),
(754,1264,q),
(723,1295,o),
(681.5,1313,q),
(640,1331,o),
(592,1331,q),
(502,1331,l),
(454,1331,o),
(412.5,1313,q),
(371,1295,o),
(339.5,1264,q),
(308,1233,o),
(290,1191.5,q),
(272,1150,o),
(272,1102,q),
(272,332,l),
(272,284,o),
(290,242.5,q),
(308,201,o),
(339.5,169.5,q),
(371,138,o),
(412.5,120,q),
(454,102,o),
(502,102,q),
(592,102,l),
(640,102,o),
(681.5,120,q),
(723,138,o),
(754,169.5,q),
(785,201,o),
(803,242.5,q),
(821,284,o),
(821,332,q),
(821,1102,l)
);
},
{
closed = 1;
nodes = (
(424,1597,l),
(588,1843,l),
(793,1843,l),
(516,1597,l)
);
}
);
width = 1094;
}
);
unicode = 211;
},
{
glyphname = Ocircumflex;
layers = (
{
layerId = "ac52443d-76b6-4d6b-8b4e-667b68a021e3";
name = Fore;
shapes = (
{
closed = 1;
nodes = (
(950,259,o),
(922.5,195,q),
(895,131,o),
(847,83,q),
(799,35,o),
(735,7.5,q),
(671,-20,o),
(598,-20,q),
(496,-20,l),
(423,-20,o),
(358.5,7.5,q),
(294,35,o),
(246,83,q),
(198,131,o),
(170.5,195,q),
(143,259,o),
(143,332,q),
(143,1102,l),
(143,1175,o),
(170.5,1239,q),
(198,1303,o),
(246,1351,q),
(294,1399,o),
(358.5,1426.5,q),
(423,1454,o),
(496,1454,q),
(598,1454,l),
(671,1454,o),
(735,1426.5,q),
(799,1399,o),
(847,1351,q),
(895,1303,o),
(922.5,1239,q),
(950,1175,o),
(950,1102,q),
(950,332,l),
(950,332,l)
);
},
{
closed = 1;
nodes = (
(821,1150,o),
(803,1191.5,q),
(785,1233,o),
(754,1264,q),
(723,1295,o),
(681.5,1313,q),
(640,1331,o),
(592,1331,q),
(502,1331,l),
(454,1331,o),
(412.5,1313,q),
(371,1295,o),
(339.5,1264,q),
(308,1233,o),
(290,1191.5,q),
(272,1150,o),
(272,1102,q),
(272,332,l),
(272,284,o),
(290,242.5,q),
(308,201,o),
(339.5,169.5,q),
(371,138,o),
(412.5,120,q),
(454,102,o),
(502,102,q),
(592,102,l),
(640,102,o),
(681.5,120,q),
(723,138,o),
(754,169.5,q),
(785,201,o),
(803,242.5,q),
(821,284,o),
(821,332,q),
(821,1102,l)
);
},
{
closed = 1;
nodes = (
(690,1597,l),
(547,1761,l),
(403,1597,l),
(281,1597,l),
(485,1843,l),
(608,1843,l),
(813,1597,l)
);
}
);
width = 1094;
}
);
unicode = 212;
},
{
glyphname = Otilde;
layers = (
{
layerId = "ac52443d-76b6-4d6b-8b4e-667b68a021e3";
name = Fore;
shapes = (
{
closed = 1;
nodes = (
(950,259,o),
(922.5,195,q),
(895,131,o),
(847,83,q),
(799,35,o),
(735,7.5,q),
(671,-20,o),
(598,-20,q),
(496,-20,l),
(423,-20,o),
(358.5,7.5,q),
(294,35,o),
(246,83,q),
(198,131,o),
(170.5,195,q),
(143,259,o),
(143,332,q),
(143,1102,l),
(143,1175,o),
(170.5,1239,q),
(198,1303,o),
(246,1351,q),
(294,1399,o),
(358.5,1426.5,q),
(423,1454,o),
(496,1454,q),
(598,1454,l),
(671,1454,o),
(735,1426.5,q),
(799,1399,o),
(847,1351,q),
(895,1303,o),
(922.5,1239,q),
(950,1175,o),
(950,1102,q),
(950,332,l),
(950,332,l)
);
},
{
closed = 1;
nodes = (
(821,1150,o),
(803,1191.5,q),
(785,1233,o),
(754,1264,q),
(723,1295,o),
(681.5,1313,q),
(640,1331,o),
(592,1331,q),
(502,1331,l),
(454,1331,o),
(412.5,1313,q),
(371,1295,o),
(339.5,1264,q),
(308,1233,o),
(290,1191.5,q),
(272,1150,o),
(272,1102,q),
(272,332,l),
(272,284,o),
(290,242.5,q),
(308,201,o),
(339.5,169.5,q),
(371,138,o),
(412.5,120,q),
(454,102,o),
(502,102,q),
(592,102,l),
(640,102,o),
(681.5,120,q),
(723,138,o),
(754,169.5,q),
(785,201,o),
(803,242.5,q),
(821,284,o),
(821,332,q),
(821,1102,l)
);
},
{
closed = 1;
nodes = (
(724,1729,o),
(746,1760.5,q),
(768,1792,o),
(768,1843,q),
(862,1843,l),
(862,1798,o),
(850.5,1759,q),
(839,1720,o),
(816.5,1691,q),
(794,1662,o),
(759.5,1645,q),
(725,1628,o),
(680,1628,q),
(632,1628,o),
(595,1646,q),
(558,1664,o),
(526.5,1685.5,q),
(495,1707,o),
(466.5,1725,q),
(438,1743,o),
(408,1743,q),
(366,1743,o),
(345,1711.5,q),
(324,1680,o),
(324,1630,q),
(229,1630,l),
(229,1675,o),
(240.5,1713.5,q),
(252,1752,o),
(274.5,1781,q),
(297,1810,o),
(331.5,1826.5,q),
(366,1843,o),
(412,1843,q),
(456,1843,o),
(490.5,1825,q),
(525,1807,o),
(556,1786,q),
(587,1765,o),
(617,1747,q),
(647,1729,o),
(682,1729,q)
);
}
);
width = 1094;
}
);
unicode = 213;
},
{
glyphname = Odieresis;
layers = (
{
layerId = "ac52443d-76b6-4d6b-8b4e-667b68a021e3";
name = Fore;
shapes = (
{
closed = 1;
nodes = (
(950,259,o),
(922.5,195,q),
(895,131,o),
(847,83,q),
(799,35,o),
(735,7.5,q),
(671,-20,o),
(598,-20,q),
(496,-20,l),
(423,-20,o),
(358.5,7.5,q),
(294,35,o),
(246,83,q),
(198,131,o),
(170.5,195,q),
(143,259,o),
(143,332,q),
(143,1102,l),
(143,1175,o),
(170.5,1239,q),
(198,1303,o),
(246,1351,q),
(294,1399,o),
(358.5,1426.5,q),
(423,1454,o),
(496,1454,q),
(598,1454,l),
(671,1454,o),
(735,1426.5,q),
(799,1399,o),
(847,1351,q),
(895,1303,o),
(922.5,1239,q),
(950,1175,o),
(950,1102,q),
(950,332,l),
(950,332,l)
);
},
{
closed = 1;
nodes = (
(821,1150,o),
(803,1191.5,q),
(785,1233,o),
(754,1264,q),
(723,1295,o),
(681.5,1313,q),
(640,1331,o),
(592,1331,q),
(502,1331,l),
(454,1331,o),
(412.5,1313,q),
(371,1295,o),
(339.5,1264,q),
(308,1233,o),
(290,1191.5,q),
(272,1150,o),
(272,1102,q),
(272,332,l),
(272,284,o),
(290,242.5,q),
(308,201,o),
(339.5,169.5,q),
(371,138,o),
(412.5,120,q),
(454,102,o),
(502,102,q),
(592,102,l),
(640,102,o),
(681.5,120,q),
(723,138,o),
(754,169.5,q),
(785,201,o),
(803,242.5,q),
(821,284,o),
(821,332,q),
(821,1102,l)
);
},
{
closed = 1;
nodes = (
(276,1794,l),
(430,1794,l),
(430,1640,l),
(276,1640,l)
);
},
{
closed = 1;
nodes = (
(664,1794,l),
(817,1794,l),
(817,1640,l),
(664,1640,l)
);
}
);
width = 1094;
}
);
unicode = 214;
},
{
glyphname = multiply;
layers = (
{
layerId = "ac52443d-76b6-4d6b-8b4e-667b68a021e3";
name = Fore;
shapes = (
{
closed = 1;
nodes = (
(598,809,l),
(1001,1212,l),
(1092,1120,l),
(690,719,l),
(1094,313,l),
(1001,223,l),
(598,627,l),
(195,223,l),
(102,313,l),
(506,719,l),
(104,1120,l),
(195,1212,l)
);
}
);
width = 1196;
}
);
unicode = 215;
},
{
glyphname = Oslash;
layers = (
{
layerId = "ac52443d-76b6-4d6b-8b4e-667b68a021e3";
name = Fore;
shapes = (
{
closed = 1;
nodes = (
(201,137,l),
(173,179,o),
(158,228.5,q),
(143,278,o),
(143,332,q),
(143,1102,l),
(143,1175,o),
(170.5,1239,q),
(198,1303,o),
(246,1351,q),
(294,1399,o),
(358.5,1426.5,q),
(423,1454,o),
(496,1454,q),
(598,1454,l),
(661,1454,o),
(718.5,1432.5,q),
(776,1411,o),
(821,1374,q),
(883,1495,l),
(991,1495,l),
(891,1294,l),
(919,1252,o),
(934.5,1204,q),
(950,1156,o),
(950,1102,q),
(950,332,l),
(950,259,o),
(922.5,195,q),
(895,131,o),
(847,83,q),
(799,35,o),
(735,7.5,q),
(671,-20,o),
(598,-20,q),
(496,-20,l),
(431,-20,o),
(374,0.5,q),
(317,21,o),
(270,59,q),
(211,-61,l),
(102,-61,l)
);
},
{
closed = 1;
nodes = (
(821,1113,o),
(820,1124.5,q),
(819,1136,o),
(817,1147,q),
(330,178,l),
(362,143,o),
(405.5,122.5,q),
(449,102,o),
(502,102,q),
(592,102,l),
(640,102,o),
(681.5,120,q),
(723,138,o),
(754,169.5,q),
(785,201,o),
(803,242.5,q),
(821,284,o),
(821,332,q),
(821,1102,l)
);
},
{
closed = 1;
nodes = (
(272,319,o),
(272.5,308.5,q),
(273,298,o),
(276,287,q),
(762,1255,l),
(731,1291,o),
(687,1311,q),
(643,1331,o),
(592,1331,q),
(502,1331,l),
(454,1331,o),
(412.5,1313,q),
(371,1295,o),
(339.5,1264,q),
(308,1233,o),
(290,1191.5,q),
(272,1150,o),
(272,1102,q),
(272,332,l),
(272,332,l)
);
}
);
width = 1094;
}
);
unicode = 216;
},
{
glyphname = Ugrave;
layers = (
{
layerId = "ac52443d-76b6-4d6b-8b4e-667b68a021e3";
name = Fore;
shapes = (
{
closed = 1;
nodes = (
(950,259,o),
(922.5,195,q),
(895,131,o),
(847,83,q),
(799,35,o),
(735,7.5,q),
(671,-20,o),
(598,-20,q),
(496,-20,l),
(423,-20,o),
(358.5,7.5,q),
(294,35,o),
(246,83,q),
(198,131,o),
(170.5,195,q),
(143,259,o),
(143,332,q),
(143,1434,l),
(272,1434,l),
(272,332,l),
(272,284,o),
(290,242.5,q),
(308,201,o),
(339.5,169.5,q),
(371,138,o),
(412.5,120,q),
(454,102,o),
(502,102,q),
(592,102,l),
(640,102,o),
(681.5,120,q),
(723,138,o),
(754,169.5,q),
(785,201,o),
(803,242.5,q),
(821,284,o),
(821,332,q),
(821,1434,l),
(950,1434,l),
(950,332,l),
(950,332,l)
);
},
{
closed = 1;
nodes = (
(506,1843,l),
(670,1597,l),
(578,1597,l),
(301,1843,l)
);
}
);
width = 1094;
}
);
unicode = 217;
},
{
glyphname = Uacute;
layers = (
{
layerId = "ac52443d-76b6-4d6b-8b4e-667b68a021e3";
name = Fore;
shapes = (
{
closed = 1;
nodes = (
(950,259,o),
(922.5,195,q),
(895,131,o),
(847,83,q),
(799,35,o),
(735,7.5,q),
(671,-20,o),
(598,-20,q),
(496,-20,l),
(423,-20,o),
(358.5,7.5,q),
(294,35,o),
(246,83,q),
(198,131,o),
(170.5,195,q),
(143,259,o),
(143,332,q),
(143,1434,l),
(272,1434,l),
(272,332,l),
(272,284,o),
(290,242.5,q),
(308,201,o),
(339.5,169.5,q),
(371,138,o),
(412.5,120,q),
(454,102,o),
(502,102,q),
(592,102,l),
(640,102,o),
(681.5,120,q),
(723,138,o),
(754,169.5,q),
(785,201,o),
(803,242.5,q),
(821,284,o),
(821,332,q),
(821,1434,l),
(950,1434,l),
(950,332,l),
(950,332,l)
);
},
{
closed = 1;
nodes = (
(424,1597,l),
(588,1843,l),
(793,1843,l),
(516,1597,l)
);
}
);
width = 1094;
}
);
unicode = 218;
},
{
glyphname = Ucircumflex;
layers = (
{
layerId = "ac52443d-76b6-4d6b-8b4e-667b68a021e3";
name = Fore;
shapes = (
{
closed = 1;
nodes = (
(950,259,o),
(922.5,195,q),
(895,131,o),
(847,83,q),
(799,35,o),
(735,7.5,q),
(671,-20,o),
(598,-20,q),
(496,-20,l),
(423,-20,o),
(358.5,7.5,q),
(294,35,o),
(246,83,q),
(198,131,o),
(170.5,195,q),
(143,259,o),
(143,332,q),
(143,1434,l),
(272,1434,l),
(272,332,l),
(272,284,o),
(290,242.5,q),
(308,201,o),
(339.5,169.5,q),
(371,138,o),
(412.5,120,q),
(454,102,o),
(502,102,q),
(592,102,l),
(640,102,o),
(681.5,120,q),
(723,138,o),
(754,169.5,q),
(785,201,o),
(803,242.5,q),
(821,284,o),
(821,332,q),
(821,1434,l),
(950,1434,l),
(950,332,l),
(950,332,l)
);
},
{
closed = 1;
nodes = (
(690,1597,l),
(547,1761,l),
(403,1597,l),
(281,1597,l),
(485,1843,l),
(608,1843,l),
(813,1597,l)
);
}
);
width = 1094;
}
);
unicode = 219;
},
{
glyphname = Udieresis;
layers = (
{
layerId = "ac52443d-76b6-4d6b-8b4e-667b68a021e3";
name = Fore;
shapes = (
{
closed = 1;
nodes = (
(950,259,o),
(922.5,195,q),
(895,131,o),
(847,83,q),
(799,35,o),
(735,7.5,q),
(671,-20,o),
(598,-20,q),
(496,-20,l),
(423,-20,o),
(358.5,7.5,q),
(294,35,o),
(246,83,q),
(198,131,o),
(170.5,195,q),
(143,259,o),
(143,332,q),
(143,1434,l),
(272,1434,l),
(272,332,l),
(272,284,o),
(290,242.5,q),
(308,201,o),
(339.5,169.5,q),
(371,138,o),
(412.5,120,q),
(454,102,o),
(502,102,q),
(592,102,l),
(640,102,o),
(681.5,120,q),
(723,138,o),
(754,169.5,q),
(785,201,o),
(803,242.5,q),
(821,284,o),
(821,332,q),
(821,1434,l),
(950,1434,l),
(950,332,l),
(950,332,l)
);
},
{
closed = 1;
nodes = (
(276,1794,l),
(430,1794,l),
(430,1640,l),
(276,1640,l)
);
},
{
closed = 1;
nodes = (
(664,1794,l),
(817,1794,l),
(817,1640,l),
(664,1640,l)
);
}
);
width = 1094;
}
);
unicode = 220;
},
{
glyphname = Yacute;
layers = (
{
layerId = "ac52443d-76b6-4d6b-8b4e-667b68a021e3";
name = Fore;
shapes = (
{
closed = 1;
nodes = (
(541,0,l),
(412,0,l),
(412,684,l),
(41,1434,l),
(180,1434,l),
(475,838,l),
(770,1434,l),
(909,1434,l),
(541,686,l)
);
},
{
closed = 1;
nodes = (
(373,1597,l),
(537,1843,l),
(741,1843,l),
(465,1597,l)
);
}
);
width = 950;
}
);
unicode = 221;
},
{
glyphname = Thorn;
layers = (
{
layerId = "ac52443d-76b6-4d6b-8b4e-667b68a021e3";
name = Fore;
shapes = (
{
closed = 1;
nodes = (
(971,609,o),
(943.5,545,q),
(916,481,o),
(868,433,q),
(820,385,o),
(755.5,357.5,q),
(691,330,o),
(618,330,q),
(293,330,l),
(293,0,l),
(164,0,l),
(164,1434,l),
(293,1434,l),
(293,1151,l),
(618,1151,l),
(691,1151,o),
(755.5,1123.5,q),
(820,1096,o),
(868,1048,q),
(916,1000,o),
(943.5,936,q),
(971,872,o),
(971,799,q),
(971,682,l),
(971,682,l)
);
},
{
closed = 1;
nodes = (
(842,847,o),
(824,888.5,q),
(806,930,o),
(774.5,961,q),
(743,992,o),
(701.5,1010,q),
(660,1028,o),
(612,1028,q),
(293,1028,l),
(293,453,l),
(612,453,l),
(660,453,o),
(701.5,471,q),
(743,489,o),
(774.5,520,q),
(806,551,o),
(824,592.5,q),
(842,634,o),
(842,682,q),
(842,799,l)
);
}
);
width = 1053;
}
);
unicode = 222;
},
{
glyphname = germandbls;
layers = (
{
layerId = "ac52443d-76b6-4d6b-8b4e-667b68a021e3";
name = Fore;
shapes = (
{
closed = 1;
nodes = (
(582,117,l),
(630,117,o),
(671.5,135,q),
(713,153,o),
(744,184,q),
(775,215,o),
(793,256.5,q),
(811,298,o),
(811,346,q),
(811,477,l),
(811,525,o),
(793,566.5,q),
(775,608,o),
(744,639.5,q),
(713,671,o),
(671.5,689,q),
(630,707,o),
(582,707,q),
(471,707,l),
(471,823,l),
(582,823,l),
(630,823,o),
(671.5,841,q),
(713,859,o),
(744,890.5,q),
(775,922,o),
(793,963.5,q),
(811,1005,o),
(811,1053,q),
(811,1108,l),
(811,1156,o),
(793,1197.5,q),
(775,1239,o),
(744,1270,q),
(713,1301,o),
(671.5,1319,q),
(630,1337,o),
(582,1337,q),
(522,1337,l),
(474,1337,o),
(432.5,1319,q),
(391,1301,o),
(360,1270,q),
(329,1239,o),
(311,1197.5,q),
(293,1156,o),
(293,1108,q),
(293,0,l),
(170,0,l),
(170,1102,l),
(170,1175,o),
(197,1239,q),
(224,1303,o),
(270.5,1351,q),
(317,1399,o),
(380,1426.5,q),
(443,1454,o),
(516,1454,q),
(582,1454,l),
(655,1454,o),
(719,1426.5,q),
(783,1399,o),
(831,1351,q),
(879,1303,o),
(906.5,1239,q),
(934,1175,o),
(934,1102,q),
(934,1077,l),
(934,1026,o),
(920.5,979.5,q),
(907,933,o),
(882.5,893,q),
(858,853,o),
(823.5,820.5,q),
(789,788,o),
(748,766,q),
(789,744,o),
(823.5,711.5,q),
(858,679,o),
(882.5,639,q),
(907,599,o),
(920.5,552.5,q),
(934,506,o),
(934,455,q),
(934,352,l),
(934,279,o),
(906.5,215,q),
(879,151,o),
(831,103,q),
(783,55,o),
(719,27.5,q),
(655,0,o),
(582,0,q),
(471,0,l),
(471,117,l)
);
}
);
width = 1053;
}
);
unicode = 223;
},
{
glyphname = agrave;
layers = (
{
layerId = "ac52443d-76b6-4d6b-8b4e-667b68a021e3";
name = Fore;
shapes = (
{
closed = 1;
nodes = (
(698,102,l),
(656,47,o),
(593,13.5,q),
(530,-20,o),
(455,-20,q),
(424,-20,l),
(362,-20,o),
(307,3.5,q),
(252,27,o),
(211,68,q),
(170,109,o),
(146.5,164,q),
(123,219,o),
(123,281,q),
(123,291,l),
(123,353,o),
(146.5,408,q),
(170,463,o),
(211,504,q),
(252,545,o),
(307,568.5,q),
(362,592,o),
(424,592,q),
(684,592,l),
(684,750,l),
(684,787,o),
(670,819.5,q),
(656,852,o),
(632,876,q),
(608,900,o),
(575.5,914,q),
(543,928,o),
(506,928,q),
(434,928,l),
(397,928,o),
(364.5,914,q),
(332,900,o),
(308,876,q),
(284,852,o),
(270,819.5,q),
(256,787,o),
(256,750,q),
(256,713,l),
(133,733,l),
(133,743,l),
(133,805,o),
(156.5,860,q),
(180,915,o),
(221,956,q),
(262,997,o),
(317,1020.5,q),
(372,1044,o),
(434,1044,q),
(506,1044,l),
(568,1044,o),
(623,1020.5,q),
(678,997,o),
(719,956,q),
(760,915,o),
(783.5,860,q),
(807,805,o),
(807,743,q),
(807,0,l),
(766,0,l)
);
},
{
closed = 1;
nodes = (
(424,496,l),
(387,496,o),
(354.5,482,q),
(322,468,o),
(298,443.5,q),
(274,419,o),
(260,386.5,q),
(246,354,o),
(246,317,q),
(246,274,l),
(246,237,o),
(260,204.5,q),
(274,172,o),
(298,148,q),
(322,124,o),
(354.5,110,q),
(387,96,o),
(424,96,q),
(506,96,l),
(543,96,o),
(575.5,110,q),
(608,124,o),
(632,148,q),
(656,172,o),
(670,204.5,q),
(684,237,o),
(684,274,q),
(684,496,l)
);
},
{
closed = 1;
nodes = (
(444,1434,l),
(608,1188,l),
(516,1188,l),
(240,1434,l)
);
}
);
width = 930;
}
);
unicode = 224;
},
{
glyphname = aacute;
layers = (
{
layerId = "ac52443d-76b6-4d6b-8b4e-667b68a021e3";
name = Fore;
shapes = (
{
closed = 1;
nodes = (
(698,102,l),
(656,47,o),
(593,13.5,q),
(530,-20,o),
(455,-20,q),
(424,-20,l),
(362,-20,o),
(307,3.5,q),
(252,27,o),
(211,68,q),
(170,109,o),
(146.5,164,q),
(123,219,o),
(123,281,q),
(123,291,l),
(123,353,o),
(146.5,408,q),
(170,463,o),
(211,504,q),
(252,545,o),
(307,568.5,q),
(362,592,o),
(424,592,q),
(684,592,l),
(684,750,l),
(684,787,o),
(670,819.5,q),
(656,852,o),
(632,876,q),
(608,900,o),
(575.5,914,q),
(543,928,o),
(506,928,q),
(434,928,l),
(397,928,o),
(364.5,914,q),
(332,900,o),
(308,876,q),
(284,852,o),
(270,819.5,q),
(256,787,o),
(256,750,q),
(256,713,l),
(133,733,l),
(133,743,l),
(133,805,o),
(156.5,860,q),
(180,915,o),
(221,956,q),
(262,997,o),
(317,1020.5,q),
(372,1044,o),
(434,1044,q),
(506,1044,l),
(568,1044,o),
(623,1020.5,q),
(678,997,o),
(719,956,q),
(760,915,o),
(783.5,860,q),
(807,805,o),
(807,743,q),
(807,0,l),
(766,0,l)
);
},
{
closed = 1;
nodes = (
(424,496,l),
(387,496,o),
(354.5,482,q),
(322,468,o),
(298,443.5,q),
(274,419,o),
(260,386.5,q),
(246,354,o),
(246,317,q),
(246,274,l),
(246,237,o),
(260,204.5,q),
(274,172,o),
(298,148,q),
(322,124,o),
(354.5,110,q),
(387,96,o),
(424,96,q),
(506,96,l),
(543,96,o),
(575.5,110,q),
(608,124,o),
(632,148,q),
(656,172,o),
(670,204.5,q),
(684,237,o),
(684,274,q),
(684,496,l)
);
},
{
closed = 1;
nodes = (
(322,1188,l),
(485,1434,l),
(690,1434,l),
(414,1188,l)
);
}
);
width = 930;
}
);
unicode = 225;
},
{
glyphname = acircumflex;
layers = (
{
layerId = "ac52443d-76b6-4d6b-8b4e-667b68a021e3";
name = Fore;
shapes = (
{
closed = 1;
nodes = (
(698,102,l),
(656,47,o),
(593,13.5,q),
(530,-20,o),
(455,-20,q),
(424,-20,l),
(362,-20,o),
(307,3.5,q),
(252,27,o),
(211,68,q),
(170,109,o),
(146.5,164,q),
(123,219,o),
(123,281,q),
(123,291,l),
(123,353,o),
(146.5,408,q),
(170,463,o),
(211,504,q),
(252,545,o),
(307,568.5,q),
(362,592,o),
(424,592,q),
(684,592,l),
(684,750,l),
(684,787,o),
(670,819.5,q),
(656,852,o),
(632,876,q),
(608,900,o),
(575.5,914,q),
(543,928,o),
(506,928,q),
(434,928,l),
(397,928,o),
(364.5,914,q),
(332,900,o),
(308,876,q),
(284,852,o),
(270,819.5,q),
(256,787,o),
(256,750,q),
(256,713,l),
(133,733,l),
(133,743,l),
(133,805,o),
(156.5,860,q),
(180,915,o),
(221,956,q),
(262,997,o),
(317,1020.5,q),
(372,1044,o),
(434,1044,q),
(506,1044,l),
(568,1044,o),
(623,1020.5,q),
(678,997,o),
(719,956,q),
(760,915,o),
(783.5,860,q),
(807,805,o),
(807,743,q),
(807,0,l),
(766,0,l)
);
},
{
closed = 1;
nodes = (
(424,496,l),
(387,496,o),
(354.5,482,q),
(322,468,o),
(298,443.5,q),
(274,419,o),
(260,386.5,q),
(246,354,o),
(246,317,q),
(246,274,l),
(246,237,o),
(260,204.5,q),
(274,172,o),
(298,148,q),
(322,124,o),
(354.5,110,q),
(387,96,o),
(424,96,q),
(506,96,l),
(543,96,o),
(575.5,110,q),
(608,124,o),
(632,148,q),
(656,172,o),
(670,204.5,q),
(684,237,o),
(684,274,q),
(684,496,l)
);
},
{
closed = 1;
nodes = (
(629,1188,l),
(485,1352,l),
(342,1188,l),
(219,1188,l),
(424,1434,l),
(547,1434,l),
(752,1188,l)
);
}
);
width = 930;
}
);
unicode = 226;
},
{
glyphname = atilde;
layers = (
{
layerId = "ac52443d-76b6-4d6b-8b4e-667b68a021e3";
name = Fore;
shapes = (
{
closed = 1;
nodes = (
(698,102,l),
(656,47,o),
(593,13.5,q),
(530,-20,o),
(455,-20,q),
(424,-20,l),
(362,-20,o),
(307,3.5,q),
(252,27,o),
(211,68,q),
(170,109,o),
(146.5,164,q),
(123,219,o),
(123,281,q),
(123,291,l),
(123,353,o),
(146.5,408,q),
(170,463,o),
(211,504,q),
(252,545,o),
(307,568.5,q),
(362,592,o),
(424,592,q),
(684,592,l),
(684,750,l),
(684,787,o),
(670,819.5,q),
(656,852,o),
(632,876,q),
(608,900,o),
(575.5,914,q),
(543,928,o),
(506,928,q),
(434,928,l),
(397,928,o),
(364.5,914,q),
(332,900,o),
(308,876,q),
(284,852,o),
(270,819.5,q),
(256,787,o),
(256,750,q),
(256,713,l),
(133,733,l),
(133,743,l),
(133,805,o),
(156.5,860,q),
(180,915,o),
(221,956,q),
(262,997,o),
(317,1020.5,q),
(372,1044,o),
(434,1044,q),
(506,1044,l),
(568,1044,o),
(623,1020.5,q),
(678,997,o),
(719,956,q),
(760,915,o),
(783.5,860,q),
(807,805,o),
(807,743,q),
(807,0,l),
(766,0,l)
);
},
{
closed = 1;
nodes = (
(424,496,l),
(387,496,o),
(354.5,482,q),
(322,468,o),
(298,443.5,q),
(274,419,o),
(260,386.5,q),
(246,354,o),
(246,317,q),
(246,274,l),
(246,237,o),
(260,204.5,q),
(274,172,o),
(298,148,q),
(322,124,o),
(354.5,110,q),
(387,96,o),
(424,96,q),
(506,96,l),
(543,96,o),
(575.5,110,q),
(608,124,o),
(632,148,q),
(656,172,o),
(670,204.5,q),
(684,237,o),
(684,274,q),
(684,496,l)
);
},
{
closed = 1;
nodes = (
(644,1319,o),
(666,1351,q),
(688,1383,o),
(688,1434,q),
(782,1434,l),
(782,1389,o),
(770.5,1350,q),
(759,1311,o),
(736.5,1282,q),
(714,1253,o),
(679.5,1236,q),
(645,1219,o),
(600,1219,q),
(552,1219,o),
(515.5,1237,q),
(479,1255,o),
(447.5,1276,q),
(416,1297,o),
(387.5,1315,q),
(359,1333,o),
(328,1333,q),
(286,1333,o),
(265,1301.5,q),
(244,1270,o),
(244,1221,q),
(150,1221,l),
(150,1265,o),
(161,1304,q),
(172,1343,o),
(194.5,1372,q),
(217,1401,o),
(251.5,1417.5,q),
(286,1434,o),
(332,1434,q),
(377,1434,o),
(411.5,1416,q),
(446,1398,o),
(476.5,1376.5,q),
(507,1355,o),
(537,1337,q),
(567,1319,o),
(602,1319,q)
);
}
);
width = 930;
}
);
unicode = 227;
},
{
glyphname = adieresis;
layers = (
{
layerId = "ac52443d-76b6-4d6b-8b4e-667b68a021e3";
name = Fore;
shapes = (
{
closed = 1;
nodes = (
(698,102,l),
(656,47,o),
(593,13.5,q),
(530,-20,o),
(455,-20,q),
(424,-20,l),
(362,-20,o),
(307,3.5,q),
(252,27,o),
(211,68,q),
(170,109,o),
(146.5,164,q),
(123,219,o),
(123,281,q),
(123,291,l),
(123,353,o),
(146.5,408,q),
(170,463,o),
(211,504,q),
(252,545,o),
(307,568.5,q),
(362,592,o),
(424,592,q),
(684,592,l),
(684,750,l),
(684,787,o),
(670,819.5,q),
(656,852,o),
(632,876,q),
(608,900,o),
(575.5,914,q),
(543,928,o),
(506,928,q),
(434,928,l),
(397,928,o),
(364.5,914,q),
(332,900,o),
(308,876,q),
(284,852,o),
(270,819.5,q),
(256,787,o),
(256,750,q),
(256,713,l),
(133,733,l),
(133,743,l),
(133,805,o),
(156.5,860,q),
(180,915,o),
(221,956,q),
(262,997,o),
(317,1020.5,q),
(372,1044,o),
(434,1044,q),
(506,1044,l),
(568,1044,o),
(623,1020.5,q),
(678,997,o),
(719,956,q),
(760,915,o),
(783.5,860,q),
(807,805,o),
(807,743,q),
(807,0,l),
(766,0,l)
);
},
{
closed = 1;
nodes = (
(424,496,l),
(387,496,o),
(354.5,482,q),
(322,468,o),
(298,443.5,q),
(274,419,o),
(260,386.5,q),
(246,354,o),
(246,317,q),
(246,274,l),
(246,237,o),
(260,204.5,q),
(274,172,o),
(298,148,q),
(322,124,o),
(354.5,110,q),
(387,96,o),
(424,96,q),
(506,96,l),
(543,96,o),
(575.5,110,q),
(608,124,o),
(632,148,q),
(656,172,o),
(670,204.5,q),
(684,237,o),
(684,274,q),
(684,496,l)
);
},
{
closed = 1;
nodes = (
(215,1384,l),
(369,1384,l),
(369,1231,l),
(215,1231,l)
);
},
{
closed = 1;
nodes = (
(602,1384,l),
(756,1384,l),
(756,1231,l),
(602,1231,l)
);
}
);
width = 930;
}
);
unicode = 228;
},
{
glyphname = aring;
layers = (
{
layerId = "ac52443d-76b6-4d6b-8b4e-667b68a021e3";
name = Fore;
shapes = (
{
closed = 1;
nodes = (
(698,102,l),
(656,47,o),
(593,13.5,q),
(530,-20,o),
(455,-20,q),
(424,-20,l),
(362,-20,o),
(307,3.5,q),
(252,27,o),
(211,68,q),
(170,109,o),
(146.5,164,q),
(123,219,o),
(123,281,q),
(123,291,l),
(123,353,o),
(146.5,408,q),
(170,463,o),
(211,504,q),
(252,545,o),
(307,568.5,q),
(362,592,o),
(424,592,q),
(684,592,l),
(684,750,l),
(684,787,o),
(670,819.5,q),
(656,852,o),
(632,876,q),
(608,900,o),
(575.5,914,q),
(543,928,o),
(506,928,q),
(434,928,l),
(397,928,o),
(364.5,914,q),
(332,900,o),
(308,876,q),
(284,852,o),
(270,819.5,q),
(256,787,o),
(256,750,q),
(256,713,l),
(133,733,l),
(133,743,l),
(133,805,o),
(156.5,860,q),
(180,915,o),
(221,956,q),
(262,997,o),
(317,1020.5,q),
(372,1044,o),
(434,1044,q),
(506,1044,l),
(568,1044,o),
(623,1020.5,q),
(678,997,o),
(719,956,q),
(760,915,o),
(783.5,860,q),
(807,805,o),
(807,743,q),
(807,0,l),
(766,0,l)
);
},
{
closed = 1;
nodes = (
(424,496,l),
(387,496,o),
(354.5,482,q),
(322,468,o),
(298,443.5,q),
(274,419,o),
(260,386.5,q),
(246,354,o),
(246,317,q),
(246,274,l),
(246,237,o),
(260,204.5,q),
(274,172,o),
(298,148,q),
(322,124,o),
(354.5,110,q),
(387,96,o),
(424,96,q),
(506,96,l),
(543,96,o),
(575.5,110,q),
(608,124,o),
(632,148,q),
(656,172,o),
(670,204.5,q),
(684,237,o),
(684,274,q),
(684,496,l)
);
},
{
closed = 1;
nodes = (
(258,1402,o),
(274.5,1440.5,q),
(291,1479,o),
(319.5,1508,q),
(348,1537,o),
(386.5,1554,q),
(425,1571,o),
(469,1571,q),
(513,1571,o),
(551.5,1554,q),
(590,1537,o),
(619,1508,q),
(648,1479,o),
(665,1440.5,q),
(682,1402,o),
(682,1358,q),
(682,1314,o),
(665,1275.5,q),
(648,1237,o),
(619,1208.5,q),
(590,1180,o),
(551.5,1163.5,q),
(513,1147,o),
(469,1147,q),
(425,1147,o),
(386.5,1163.5,q),
(348,1180,o),
(319.5,1208.5,q),
(291,1237,o),
(274.5,1275.5,q),
(258,1314,o),
(258,1358,q)
);
},
{
closed = 1;
nodes = (
(360,1336,o),
(368.5,1315.5,q),
(377,1295,o),
(392,1280,q),
(407,1265,o),
(427,1256,q),
(447,1247,o),
(469,1247,q),
(492,1247,o),
(512,1256,q),
(532,1265,o),
(547,1280,q),
(562,1295,o),
(571,1315.5,q),
(580,1336,o),
(580,1358,q),
(580,1381,o),
(571,1401.5,q),
(562,1422,o),
(547,1437,q),
(532,1452,o),
(512,1461,q),
(492,1470,o),
(469,1470,q),
(447,1470,o),
(427,1461,q),
(407,1452,o),
(392,1437,q),
(377,1422,o),
(368.5,1401.5,q),
(360,1381,o),
(360,1358,q)
);
}
);
width = 930;
}
);
unicode = 229;
},
{
glyphname = ae;
layers = (
{
layerId = "ac52443d-76b6-4d6b-8b4e-667b68a021e3";
name = Fore;
shapes = (
{
closed = 1;
nodes = (
(1368,219,o),
(1344.5,164,q),
(1321,109,o),
(1280,68,q),
(1239,27,o),
(1184,3.5,q),
(1129,-20,o),
(1067,-20,q),
(985,-20,l),
(943,-20,o),
(903.5,-9,q),
(864,2,o),
(830,22,q),
(796,42,o),
(768,70.5,q),
(740,99,o),
(721,133,q),
(693,88,o),
(661.5,58.5,q),
(630,29,o),
(595.5,11.5,q),
(561,-6,o),
(525.5,-13,q),
(490,-20,o),
(455,-20,q),
(424,-20,l),
(362,-20,o),
(307,3.5,q),
(252,27,o),
(211,68,q),
(170,109,o),
(146.5,164,q),
(123,219,o),
(123,281,q),
(123,291,l),
(123,353,o),
(146.5,408,q),
(170,463,o),
(211,504,q),
(252,545,o),
(307,568.5,q),
(362,592,o),
(424,592,q),
(684,592,l),
(684,756,l),
(683,791,o),
(668.5,822.5,q),
(654,854,o),
(630,877.5,q),
(606,901,o),
(574,914.5,q),
(542,928,o),
(506,928,q),
(434,928,l),
(397,928,o),
(364.5,914,q),
(332,900,o),
(308,876,q),
(284,852,o),
(270,819.5,q),
(256,787,o),
(256,750,q),
(256,713,l),
(133,733,l),
(133,743,l),
(133,805,o),
(156.5,860,q),
(180,915,o),
(221,956,q),
(262,997,o),
(317,1020.5,q),
(372,1044,o),
(434,1044,q),
(506,1044,l),
(578,1044,o),
(640.5,1011.5,q),
(703,979,o),
(745,924,q),
(787,979,o),
(849,1011.5,q),
(911,1044,o),
(985,1044,q),
(1067,1044,l),
(1129,1044,o),
(1184,1020.5,q),
(1239,997,o),
(1280,956,q),
(1321,915,o),
(1344.5,860,q),
(1368,805,o),
(1368,743,q),
(1368,502,l),
(807,502,l),
(807,274,l),
(807,237,o),
(821,204.5,q),
(835,172,o),
(859,148,q),
(883,124,o),
(915.5,110,q),
(948,96,o),
(985,96,q),
(1067,96,l),
(1104,96,o),
(1136.5,110,q),
(1169,124,o),
(1193,148,q),
(1217,172,o),
(1231,204.5,q),
(1245,237,o),
(1245,274,q),
(1245,342,l),
(1368,322,l),
(1368,281,l),
(1368,281,l)
);
},
{
closed = 1;
nodes = (
(424,496,l),
(387,496,o),
(354.5,482,q),
(322,468,o),
(298,443.5,q),
(274,419,o),
(260,386.5,q),
(246,354,o),
(246,317,q),
(246,274,l),
(246,237,o),
(260,204.5,q),
(274,172,o),
(298,148,q),
(322,124,o),
(354.5,110,q),
(387,96,o),
(424,96,q),
(506,96,l),
(543,96,o),
(575.5,110,q),
(608,124,o),
(632,148,q),
(656,172,o),
(670,204.5,q),
(684,237,o),
(684,274,q),
(684,496,l)
);
},
{
closed = 1;
nodes = (
(1245,787,o),
(1231,819.5,q),
(1217,852,o),
(1193,876,q),
(1169,900,o),
(1136.5,914,q),
(1104,928,o),
(1067,928,q),
(985,928,l),
(949,928,o),
(917,914.5,q),
(885,901,o),
(861,877.5,q),
(837,854,o),
(822.5,822.5,q),
(808,791,o),
(807,756,q),
(807,598,l),
(1245,598,l),
(1245,750,l)
);
}
);
width = 1491;
}
);
unicode = 230;
},
{
glyphname = ccedilla;
layers = (
{
layerId = "ac52443d-76b6-4d6b-8b4e-667b68a021e3";
name = Fore;
shapes = (
{
closed = 1;
nodes = (
(424,-20,l),
(362,-20,o),
(307,3.5,q),
(252,27,o),
(211,68,q),
(170,109,o),
(146.5,164,q),
(123,219,o),
(123,281,q),
(123,743,l),
(123,805,o),
(146.5,860,q),
(170,915,o),
(211,956,q),
(252,997,o),
(307,1020.5,q),
(362,1044,o),
(424,1044,q),
(506,1044,l),
(568,1044,o),
(623,1020.5,q),
(678,997,o),
(719,956,q),
(760,915,o),
(783.5,860,q),
(807,805,o),
(807,743,q),
(807,702,l),
(684,682,l),
(684,750,l),
(684,787,o),
(670,819.5,q),
(656,852,o),
(632,876,q),
(608,900,o),
(575.5,914,q),
(543,928,o),
(506,928,q),
(424,928,l),
(387,928,o),
(354.5,914,q),
(322,900,o),
(298,876,q),
(274,852,o),
(260,819.5,q),
(246,787,o),
(246,750,q),
(246,274,l),
(246,237,o),
(260,204.5,q),
(274,172,o),
(298,148,q),
(322,124,o),
(354.5,110,q),
(387,96,o),
(424,96,q),
(506,96,l),
(543,96,o),
(575.5,110,q),
(608,124,o),
(632,148,q),
(656,172,o),
(670,204.5,q),
(684,237,o),
(684,274,q),
(684,342,l),
(807,322,l),
(807,281,l),
(807,221,o),
(784.5,168,q),
(762,115,o),
(723.5,74.5,q),
(685,34,o),
(633,9,q),
(581,-16,o),
(522,-20,q),
(475,-102,l),
(484,-106,o),
(500,-116.5,q),
(516,-127,o),
(531.5,-145,q),
(547,-163,o),
(558,-188,q),
(569,-213,o),
(569,-246,q),
(569,-284,o),
(555.5,-315,q),
(542,-346,o),
(517.5,-367.5,q),
(493,-389,o),
(459,-400.5,q),
(425,-412,o),
(385,-412,q),
(340,-412,o),
(303.5,-394.5,q),
(267,-377,o),
(238,-348,q),
(285,-276,l),
(290,-282,o),
(299,-290,q),
(308,-298,o),
(321.5,-305,q),
(335,-312,o),
(351.5,-317,q),
(368,-322,o),
(387,-322,q),
(424,-322,o),
(449.5,-301,q),
(475,-280,o),
(475,-242,q),
(475,-218,o),
(465.5,-200,q),
(456,-182,o),
(439.5,-170,q),
(423,-158,o),
(401.5,-153,q),
(380,-148,o),
(356,-150,q),
(436,-20,l)
);
}
);
width = 930;
}
);
unicode = 231;
},
{
glyphname = egrave;
layers = (
{
layerId = "ac52443d-76b6-4d6b-8b4e-667b68a021e3";
name = Fore;
shapes = (
{
closed = 1;
nodes = (
(807,219,o),
(783.5,164,q),
(760,109,o),
(719,68,q),
(678,27,o),
(623,3.5,q),
(568,-20,o),
(506,-20,q),
(424,-20,l),
(362,-20,o),
(307,3.5,q),
(252,27,o),
(211,68,q),
(170,109,o),
(146.5,164,q),
(123,219,o),
(123,281,q),
(123,743,l),
(123,805,o),
(146.5,860,q),
(170,915,o),
(211,956,q),
(252,997,o),
(307,1020.5,q),
(362,1044,o),
(424,1044,q),
(506,1044,l),
(568,1044,o),
(623,1020.5,q),
(678,997,o),
(719,956,q),
(760,915,o),
(783.5,860,q),
(807,805,o),
(807,743,q),
(807,502,l),
(246,502,l),
(246,274,l),
(246,237,o),
(260,204.5,q),
(274,172,o),
(298,148,q),
(322,124,o),
(354.5,110,q),
(387,96,o),
(424,96,q),
(506,96,l),
(543,96,o),
(575.5,110,q),
(608,124,o),
(632,148,q),
(656,172,o),
(670,204.5,q),
(684,237,o),
(684,274,q),
(684,342,l),
(807,322,l),
(807,281,l),
(807,281,l)
);
},
{
closed = 1;
nodes = (
(684,787,o),
(670,819.5,q),
(656,852,o),
(632,876,q),
(608,900,o),
(575.5,914,q),
(543,928,o),
(506,928,q),
(424,928,l),
(387,928,o),
(354.5,914,q),
(322,900,o),
(298,876,q),
(274,852,o),
(260,819.5,q),
(246,787,o),
(246,750,q),
(246,598,l),
(684,598,l),
(684,750,l)
);
},
{
closed = 1;
nodes = (
(444,1434,l),
(608,1188,l),
(516,1188,l),
(240,1434,l)
);
}
);
width = 930;
}
);
unicode = 232;
},
{
glyphname = eacute;
layers = (
{
layerId = "ac52443d-76b6-4d6b-8b4e-667b68a021e3";
name = Fore;
shapes = (
{
closed = 1;
nodes = (
(807,219,o),
(783.5,164,q),
(760,109,o),
(719,68,q),
(678,27,o),
(623,3.5,q),
(568,-20,o),
(506,-20,q),
(424,-20,l),
(362,-20,o),
(307,3.5,q),
(252,27,o),
(211,68,q),
(170,109,o),
(146.5,164,q),
(123,219,o),
(123,281,q),
(123,743,l),
(123,805,o),
(146.5,860,q),
(170,915,o),
(211,956,q),
(252,997,o),
(307,1020.5,q),
(362,1044,o),
(424,1044,q),
(506,1044,l),
(568,1044,o),
(623,1020.5,q),
(678,997,o),
(719,956,q),
(760,915,o),
(783.5,860,q),
(807,805,o),
(807,743,q),
(807,502,l),
(246,502,l),
(246,274,l),
(246,237,o),
(260,204.5,q),
(274,172,o),
(298,148,q),
(322,124,o),
(354.5,110,q),
(387,96,o),
(424,96,q),
(506,96,l),
(543,96,o),
(575.5,110,q),
(608,124,o),
(632,148,q),
(656,172,o),
(670,204.5,q),
(684,237,o),
(684,274,q),
(684,342,l),
(807,322,l),
(807,281,l),
(807,281,l)
);
},
{
closed = 1;
nodes = (
(684,787,o),
(670,819.5,q),
(656,852,o),
(632,876,q),
(608,900,o),
(575.5,914,q),
(543,928,o),
(506,928,q),
(424,928,l),
(387,928,o),
(354.5,914,q),
(322,900,o),
(298,876,q),
(274,852,o),
(260,819.5,q),
(246,787,o),
(246,750,q),
(246,598,l),
(684,598,l),
(684,750,l)
);
},
{
closed = 1;
nodes = (
(322,1188,l),
(485,1434,l),
(690,1434,l),
(414,1188,l)
);
}
);
width = 930;
}
);
unicode = 233;
},
{
glyphname = ecircumflex;
layers = (
{
layerId = "ac52443d-76b6-4d6b-8b4e-667b68a021e3";
name = Fore;
shapes = (
{
closed = 1;
nodes = (
(807,219,o),
(783.5,164,q),
(760,109,o),
(719,68,q),
(678,27,o),
(623,3.5,q),
(568,-20,o),
(506,-20,q),
(424,-20,l),
(362,-20,o),
(307,3.5,q),
(252,27,o),
(211,68,q),
(170,109,o),
(146.5,164,q),
(123,219,o),
(123,281,q),
(123,743,l),
(123,805,o),
(146.5,860,q),
(170,915,o),
(211,956,q),
(252,997,o),
(307,1020.5,q),
(362,1044,o),
(424,1044,q),
(506,1044,l),
(568,1044,o),
(623,1020.5,q),
(678,997,o),
(719,956,q),
(760,915,o),
(783.5,860,q),
(807,805,o),
(807,743,q),
(807,502,l),
(246,502,l),
(246,274,l),
(246,237,o),
(260,204.5,q),
(274,172,o),
(298,148,q),
(322,124,o),
(354.5,110,q),
(387,96,o),
(424,96,q),
(506,96,l),
(543,96,o),
(575.5,110,q),
(608,124,o),
(632,148,q),
(656,172,o),
(670,204.5,q),
(684,237,o),
(684,274,q),
(684,342,l),
(807,322,l),
(807,281,l),
(807,281,l)
);
},
{
closed = 1;
nodes = (
(684,787,o),
(670,819.5,q),
(656,852,o),
(632,876,q),
(608,900,o),
(575.5,914,q),
(543,928,o),
(506,928,q),
(424,928,l),
(387,928,o),
(354.5,914,q),
(322,900,o),
(298,876,q),
(274,852,o),
(260,819.5,q),
(246,787,o),
(246,750,q),
(246,598,l),
(684,598,l),
(684,750,l)
);
},
{
closed = 1;
nodes = (
(629,1188,l),
(485,1352,l),
(342,1188,l),
(219,1188,l),
(424,1434,l),
(547,1434,l),
(752,1188,l)
);
}
);
width = 930;
}
);
unicode = 234;
},
{
glyphname = edieresis;
layers = (
{
layerId = "ac52443d-76b6-4d6b-8b4e-667b68a021e3";
name = Fore;
shapes = (
{
closed = 1;
nodes = (
(807,219,o),
(783.5,164,q),
(760,109,o),
(719,68,q),
(678,27,o),
(623,3.5,q),
(568,-20,o),
(506,-20,q),
(424,-20,l),
(362,-20,o),
(307,3.5,q),
(252,27,o),
(211,68,q),
(170,109,o),
(146.5,164,q),
(123,219,o),
(123,281,q),
(123,743,l),
(123,805,o),
(146.5,860,q),
(170,915,o),
(211,956,q),
(252,997,o),
(307,1020.5,q),
(362,1044,o),
(424,1044,q),
(506,1044,l),
(568,1044,o),
(623,1020.5,q),
(678,997,o),
(719,956,q),
(760,915,o),
(783.5,860,q),
(807,805,o),
(807,743,q),
(807,502,l),
(246,502,l),
(246,274,l),
(246,237,o),
(260,204.5,q),
(274,172,o),
(298,148,q),
(322,124,o),
(354.5,110,q),
(387,96,o),
(424,96,q),
(506,96,l),
(543,96,o),
(575.5,110,q),
(608,124,o),
(632,148,q),
(656,172,o),
(670,204.5,q),
(684,237,o),
(684,274,q),
(684,342,l),
(807,322,l),
(807,281,l),
(807,281,l)
);
},
{
closed = 1;
nodes = (
(684,787,o),
(670,819.5,q),
(656,852,o),
(632,876,q),
(608,900,o),
(575.5,914,q),
(543,928,o),
(506,928,q),
(424,928,l),
(387,928,o),
(354.5,914,q),
(322,900,o),
(298,876,q),
(274,852,o),
(260,819.5,q),
(246,787,o),
(246,750,q),
(246,598,l),
(684,598,l),
(684,750,l)
);
},
{
closed = 1;
nodes = (
(215,1384,l),
(369,1384,l),
(369,1231,l),
(215,1231,l)
);
},
{
closed = 1;
nodes = (
(602,1384,l),
(756,1384,l),
(756,1231,l),
(602,1231,l)
);
}
);
width = 930;
}
);
unicode = 235;
},
{
glyphname = igrave;
layers = (
{
layerId = "ac52443d-76b6-4d6b-8b4e-667b68a021e3";
name = Fore;
shapes = (
{
closed = 1;
nodes = (
(164,1024,l),
(287,1024,l),
(287,0,l),
(164,0,l)
);
},
{
closed = 1;
nodes = (
(205,1434,l),
(369,1188,l),
(276,1188,l),
(0,1434,l)
);
}
);
width = 451;
}
);
unicode = 236;
},
{
glyphname = iacute;
layers = (
{
layerId = "ac52443d-76b6-4d6b-8b4e-667b68a021e3";
name = Fore;
shapes = (
{
closed = 1;
nodes = (
(164,1024,l),
(287,1024,l),
(287,0,l),
(164,0,l)
);
},
{
closed = 1;
nodes = (
(82,1188,l),
(246,1434,l),
(451,1434,l),
(174,1188,l)
);
}
);
width = 451;
}
);
unicode = 237;
},
{
glyphname = icircumflex;
layers = (
{
layerId = "ac52443d-76b6-4d6b-8b4e-667b68a021e3";
name = Fore;
shapes = (
{
closed = 1;
nodes = (
(164,1024,l),
(287,1024,l),
(287,0,l),
(164,0,l)
);
},
{
closed = 1;
nodes = (
(369,1188,l),
(225,1352,l),
(82,1188,l),
(-41,1188,l),
(164,1434,l),
(287,1434,l),
(492,1188,l)
);
}
);
width = 451;
}
);
unicode = 238;
},
{
glyphname = idieresis;
layers = (
{
layerId = "ac52443d-76b6-4d6b-8b4e-667b68a021e3";
name = Fore;
shapes = (
{
closed = 1;
nodes = (
(164,1024,l),
(287,1024,l),
(287,0,l),
(164,0,l)
);
},
{
closed = 1;
nodes = (
(-45,1384,l),
(109,1384,l),
(109,1231,l),
(-45,1231,l)
);
},
{
closed = 1;
nodes = (
(342,1384,l),
(496,1384,l),
(496,1231,l),
(342,1231,l)
);
}
);
width = 451;
}
);
unicode = 239;
},
{
glyphname = eth;
layers = (
{
layerId = "ac52443d-76b6-4d6b-8b4e-667b68a021e3";
name = Fore;
shapes = (
{
closed = 1;
nodes = (
(456,1313,o),
(407.5,1355.5,q),
(359,1398,o),
(309,1434,q),
(457,1434,l),
(536,1382,o),
(608,1296,q),
(827,1360,l),
(848,1294,l),
(651,1237,l),
(720,1137,o),
(763.5,1011.5,q),
(807,886,o),
(807,743,q),
(807,281,l),
(807,219,o),
(783.5,164,q),
(760,109,o),
(719,68,q),
(678,27,o),
(623,3.5,q),
(568,-20,o),
(506,-20,q),
(424,-20,l),
(362,-20,o),
(307,3.5,q),
(252,27,o),
(211,68,q),
(170,109,o),
(146.5,164,q),
(123,219,o),
(123,281,q),
(123,743,l),
(123,805,o),
(146.5,860,q),
(170,915,o),
(211,956,q),
(252,997,o),
(307,1020.5,q),
(362,1044,o),
(424,1044,q),
(506,1044,l),
(572,1044,o),
(633,1016,q),
(604,1118,o),
(543,1206,q),
(315,1141,l),
(297,1206,l),
(498,1264,l)
);
},
{
closed = 1;
nodes = (
(684,787,o),
(670,819.5,q),
(656,852,o),
(632,876,q),
(608,900,o),
(575.5,914,q),
(543,928,o),
(506,928,q),
(424,928,l),
(387,928,o),
(354.5,914,q),
(322,900,o),
(298,876,q),
(274,852,o),
(260,819.5,q),
(246,787,o),
(246,750,q),
(246,274,l),
(246,237,o),
(260,204.5,q),
(274,172,o),
(298,148,q),
(322,124,o),
(354.5,110,q),
(387,96,o),
(424,96,q),
(506,96,l),
(543,96,o),
(575.5,110,q),
(608,124,o),
(632,148,q),
(656,172,o),
(670,204.5,q),
(684,237,o),
(684,274,q),
(684,750,l)
);
}
);
width = 930;
}
);
unicode = 240;
},
{
glyphname = ntilde;
layers = (
{
layerId = "ac52443d-76b6-4d6b-8b4e-667b68a021e3";
name = Fore;
shapes = (
{
closed = 1;
nodes = (
(684,750,l),
(684,787,o),
(670,819.5,q),
(656,852,o),
(632,876,q),
(608,900,o),
(575.5,914,q),
(543,928,o),
(506,928,q),
(424,928,l),
(387,928,o),
(354.5,914,q),
(322,900,o),
(298,876,q),
(274,852,o),
(260,819.5,q),
(246,787,o),
(246,750,q),
(246,0,l),
(123,0,l),
(123,1024,l),
(164,1024,l),
(231,920,l),
(273,977,o),
(336.5,1010.5,q),
(400,1044,o),
(475,1044,q),
(506,1044,l),
(568,1044,o),
(623,1020.5,q),
(678,997,o),
(719,956,q),
(760,915,o),
(783.5,860,q),
(807,805,o),
(807,743,q),
(807,0,l),
(684,0,l)
);
},
{
closed = 1;
nodes = (
(644,1319,o),
(666,1351,q),
(688,1383,o),
(688,1434,q),
(782,1434,l),
(782,1389,o),
(770.5,1350,q),
(759,1311,o),
(736.5,1282,q),
(714,1253,o),
(679.5,1236,q),
(645,1219,o),
(600,1219,q),
(552,1219,o),
(515.5,1237,q),
(479,1255,o),
(447.5,1276,q),
(416,1297,o),
(387.5,1315,q),
(359,1333,o),
(328,1333,q),
(286,1333,o),
(265,1301.5,q),
(244,1270,o),
(244,1221,q),
(150,1221,l),
(150,1265,o),
(161,1304,q),
(172,1343,o),
(194.5,1372,q),
(217,1401,o),
(251.5,1417.5,q),
(286,1434,o),
(332,1434,q),
(377,1434,o),
(411.5,1416,q),
(446,1398,o),
(476.5,1376.5,q),
(507,1355,o),
(537,1337,q),
(567,1319,o),
(602,1319,q)
);
}
);
width = 930;
}
);
unicode = 241;
},
{
glyphname = ograve;
layers = (
{
layerId = "ac52443d-76b6-4d6b-8b4e-667b68a021e3";
name = Fore;
shapes = (
{
closed = 1;
nodes = (
(807,219,o),
(783.5,164,q),
(760,109,o),
(719,68,q),
(678,27,o),
(623,3.5,q),
(568,-20,o),
(506,-20,q),
(424,-20,l),
(362,-20,o),
(307,3.5,q),
(252,27,o),
(211,68,q),
(170,109,o),
(146.5,164,q),
(123,219,o),
(123,281,q),
(123,743,l),
(123,805,o),
(146.5,860,q),
(170,915,o),
(211,956,q),
(252,997,o),
(307,1020.5,q),
(362,1044,o),
(424,1044,q),
(506,1044,l),
(568,1044,o),
(623,1020.5,q),
(678,997,o),
(719,956,q),
(760,915,o),
(783.5,860,q),
(807,805,o),
(807,743,q),
(807,281,l),
(807,281,l)
);
},
{
closed = 1;
nodes = (
(684,787,o),
(670,819.5,q),
(656,852,o),
(632,876,q),
(608,900,o),
(575.5,914,q),
(543,928,o),
(506,928,q),
(424,928,l),
(387,928,o),
(354.5,914,q),
(322,900,o),
(298,876,q),
(274,852,o),
(260,819.5,q),
(246,787,o),
(246,750,q),
(246,274,l),
(246,237,o),
(260,204.5,q),
(274,172,o),
(298,148,q),
(322,124,o),
(354.5,110,q),
(387,96,o),
(424,96,q),
(506,96,l),
(543,96,o),
(575.5,110,q),
(608,124,o),
(632,148,q),
(656,172,o),
(670,204.5,q),
(684,237,o),
(684,274,q),
(684,750,l)
);
},
{
closed = 1;
nodes = (
(444,1434,l),
(608,1188,l),
(516,1188,l),
(240,1434,l)
);
}
);
width = 930;
}
);
unicode = 242;
},
{
glyphname = oacute;
layers = (
{
layerId = "ac52443d-76b6-4d6b-8b4e-667b68a021e3";
name = Fore;
shapes = (
{
closed = 1;
nodes = (
(807,219,o),
(783.5,164,q),
(760,109,o),
(719,68,q),
(678,27,o),
(623,3.5,q),
(568,-20,o),
(506,-20,q),
(424,-20,l),
(362,-20,o),
(307,3.5,q),
(252,27,o),
(211,68,q),
(170,109,o),
(146.5,164,q),
(123,219,o),
(123,281,q),
(123,743,l),
(123,805,o),
(146.5,860,q),
(170,915,o),
(211,956,q),
(252,997,o),
(307,1020.5,q),
(362,1044,o),
(424,1044,q),
(506,1044,l),
(568,1044,o),
(623,1020.5,q),
(678,997,o),
(719,956,q),
(760,915,o),
(783.5,860,q),
(807,805,o),
(807,743,q),
(807,281,l),
(807,281,l)
);
},
{
closed = 1;
nodes = (
(684,787,o),
(670,819.5,q),
(656,852,o),
(632,876,q),
(608,900,o),
(575.5,914,q),
(543,928,o),
(506,928,q),
(424,928,l),
(387,928,o),
(354.5,914,q),
(322,900,o),
(298,876,q),
(274,852,o),
(260,819.5,q),
(246,787,o),
(246,750,q),
(246,274,l),
(246,237,o),
(260,204.5,q),
(274,172,o),
(298,148,q),
(322,124,o),
(354.5,110,q),
(387,96,o),
(424,96,q),
(506,96,l),
(543,96,o),
(575.5,110,q),
(608,124,o),
(632,148,q),
(656,172,o),
(670,204.5,q),
(684,237,o),
(684,274,q),
(684,750,l)
);
},
{
closed = 1;
nodes = (
(322,1188,l),
(485,1434,l),
(690,1434,l),
(414,1188,l)
);
}
);
width = 930;
}
);
unicode = 243;
},
{
glyphname = ocircumflex;
layers = (
{
layerId = "ac52443d-76b6-4d6b-8b4e-667b68a021e3";
name = Fore;
shapes = (
{
closed = 1;
nodes = (
(807,219,o),
(783.5,164,q),
(760,109,o),
(719,68,q),
(678,27,o),
(623,3.5,q),
(568,-20,o),
(506,-20,q),
(424,-20,l),
(362,-20,o),
(307,3.5,q),
(252,27,o),
(211,68,q),
(170,109,o),
(146.5,164,q),
(123,219,o),
(123,281,q),
(123,743,l),
(123,805,o),
(146.5,860,q),
(170,915,o),
(211,956,q),
(252,997,o),
(307,1020.5,q),
(362,1044,o),
(424,1044,q),
(506,1044,l),
(568,1044,o),
(623,1020.5,q),
(678,997,o),
(719,956,q),
(760,915,o),
(783.5,860,q),
(807,805,o),
(807,743,q),
(807,281,l),
(807,281,l)
);
},
{
closed = 1;
nodes = (
(684,787,o),
(670,819.5,q),
(656,852,o),
(632,876,q),
(608,900,o),
(575.5,914,q),
(543,928,o),
(506,928,q),
(424,928,l),
(387,928,o),
(354.5,914,q),
(322,900,o),
(298,876,q),
(274,852,o),
(260,819.5,q),
(246,787,o),
(246,750,q),
(246,274,l),
(246,237,o),
(260,204.5,q),
(274,172,o),
(298,148,q),
(322,124,o),
(354.5,110,q),
(387,96,o),
(424,96,q),
(506,96,l),
(543,96,o),
(575.5,110,q),
(608,124,o),
(632,148,q),
(656,172,o),
(670,204.5,q),
(684,237,o),
(684,274,q),
(684,750,l)
);
},
{
closed = 1;
nodes = (
(608,1188,l),
(465,1352,l),
(322,1188,l),
(199,1188,l),
(403,1434,l),
(526,1434,l),
(731,1188,l)
);
}
);
width = 930;
}
);
unicode = 244;
},
{
glyphname = otilde;
layers = (
{
layerId = "ac52443d-76b6-4d6b-8b4e-667b68a021e3";
name = Fore;
shapes = (
{
closed = 1;
nodes = (
(807,219,o),
(783.5,164,q),
(760,109,o),
(719,68,q),
(678,27,o),
(623,3.5,q),
(568,-20,o),
(506,-20,q),
(424,-20,l),
(362,-20,o),
(307,3.5,q),
(252,27,o),
(211,68,q),
(170,109,o),
(146.5,164,q),
(123,219,o),
(123,281,q),
(123,743,l),
(123,805,o),
(146.5,860,q),
(170,915,o),
(211,956,q),
(252,997,o),
(307,1020.5,q),
(362,1044,o),
(424,1044,q),
(506,1044,l),
(568,1044,o),
(623,1020.5,q),
(678,997,o),
(719,956,q),
(760,915,o),
(783.5,860,q),
(807,805,o),
(807,743,q),
(807,281,l),
(807,281,l)
);
},
{
closed = 1;
nodes = (
(684,787,o),
(670,819.5,q),
(656,852,o),
(632,876,q),
(608,900,o),
(575.5,914,q),
(543,928,o),
(506,928,q),
(424,928,l),
(387,928,o),
(354.5,914,q),
(322,900,o),
(298,876,q),
(274,852,o),
(260,819.5,q),
(246,787,o),
(246,750,q),
(246,274,l),
(246,237,o),
(260,204.5,q),
(274,172,o),
(298,148,q),
(322,124,o),
(354.5,110,q),
(387,96,o),
(424,96,q),
(506,96,l),
(543,96,o),
(575.5,110,q),
(608,124,o),
(632,148,q),
(656,172,o),
(670,204.5,q),
(684,237,o),
(684,274,q),
(684,750,l)
);
},
{
closed = 1;
nodes = (
(644,1319,o),
(666,1351,q),
(688,1383,o),
(688,1434,q),
(782,1434,l),
(782,1389,o),
(770.5,1350,q),
(759,1311,o),
(736.5,1282,q),
(714,1253,o),
(679.5,1236,q),
(645,1219,o),
(600,1219,q),
(552,1219,o),
(515.5,1237,q),
(479,1255,o),
(447.5,1276,q),
(416,1297,o),
(387.5,1315,q),
(359,1333,o),
(328,1333,q),
(286,1333,o),
(265,1301.5,q),
(244,1270,o),
(244,1221,q),
(150,1221,l),
(150,1265,o),
(161,1304,q),
(172,1343,o),
(194.5,1372,q),
(217,1401,o),
(251.5,1417.5,q),
(286,1434,o),
(332,1434,q),
(377,1434,o),
(411.5,1416,q),
(446,1398,o),
(476.5,1376.5,q),
(507,1355,o),
(537,1337,q),
(567,1319,o),
(602,1319,q)
);
}
);
width = 930;
}
);
unicode = 245;
},
{
glyphname = odieresis;
layers = (
{
layerId = "ac52443d-76b6-4d6b-8b4e-667b68a021e3";
name = Fore;
shapes = (
{
closed = 1;
nodes = (
(807,219,o),
(783.5,164,q),
(760,109,o),
(719,68,q),
(678,27,o),
(623,3.5,q),
(568,-20,o),
(506,-20,q),
(424,-20,l),
(362,-20,o),
(307,3.5,q),
(252,27,o),
(211,68,q),
(170,109,o),
(146.5,164,q),
(123,219,o),
(123,281,q),
(123,743,l),
(123,805,o),
(146.5,860,q),
(170,915,o),
(211,956,q),
(252,997,o),
(307,1020.5,q),
(362,1044,o),
(424,1044,q),
(506,1044,l),
(568,1044,o),
(623,1020.5,q),
(678,997,o),
(719,956,q),
(760,915,o),
(783.5,860,q),
(807,805,o),
(807,743,q),
(807,281,l),
(807,281,l)
);
},
{
closed = 1;
nodes = (
(684,787,o),
(670,819.5,q),
(656,852,o),
(632,876,q),
(608,900,o),
(575.5,914,q),
(543,928,o),
(506,928,q),
(424,928,l),
(387,928,o),
(354.5,914,q),
(322,900,o),
(298,876,q),
(274,852,o),
(260,819.5,q),
(246,787,o),
(246,750,q),
(246,274,l),
(246,237,o),
(260,204.5,q),
(274,172,o),
(298,148,q),
(322,124,o),
(354.5,110,q),
(387,96,o),
(424,96,q),
(506,96,l),
(543,96,o),
(575.5,110,q),
(608,124,o),
(632,148,q),
(656,172,o),
(670,204.5,q),
(684,237,o),
(684,274,q),
(684,750,l)
);
},
{
closed = 1;
nodes = (
(195,1384,l),
(348,1384,l),
(348,1231,l),
(195,1231,l)
);
},
{
closed = 1;
nodes = (
(582,1384,l),
(735,1384,l),
(735,1231,l),
(582,1231,l)
);
}
);
width = 930;
}
);
unicode = 246;
},
{
glyphname = divide;
layers = (
{
layerId = "ac52443d-76b6-4d6b-8b4e-667b68a021e3";
name = Fore;
shapes = (
{
closed = 1;
nodes = (
(1106,653,l),
(82,653,l),
(82,782,l),
(1106,782,l)
);
},
{
closed = 1;
nodes = (
(455,1129,o),
(466,1154,q),
(477,1179,o),
(496,1198,q),
(515,1217,o),
(540.5,1228,q),
(566,1239,o),
(594,1239,q),
(623,1239,o),
(648,1228,q),
(673,1217,o),
(692,1198,q),
(711,1179,o),
(722,1154,q),
(733,1129,o),
(733,1100,q),
(733,1072,o),
(722,1046.5,q),
(711,1021,o),
(692,1002,q),
(673,983,o),
(648,972,q),
(623,961,o),
(594,961,q),
(566,961,o),
(540.5,972,q),
(515,983,o),
(496,1002,q),
(477,1021,o),
(466,1046.5,q),
(455,1072,o),
(455,1100,q)
);
},
{
closed = 1;
nodes = (
(455,365,o),
(466,390,q),
(477,415,o),
(496,434,q),
(515,453,o),
(540.5,464,q),
(566,475,o),
(594,475,q),
(623,475,o),
(648,464,q),
(673,453,o),
(692,434,q),
(711,415,o),
(722,390,q),
(733,365,o),
(733,336,q),
(733,308,o),
(722,282.5,q),
(711,257,o),
(692,238,q),
(673,219,o),
(648,208,q),
(623,197,o),
(594,197,q),
(566,197,o),
(540.5,208,q),
(515,219,o),
(496,238,q),
(477,257,o),
(466,282.5,q),
(455,308,o),
(455,336,q)
);
}
);
width = 1188;
}
);
unicode = 247;
},
{
glyphname = oslash;
layers = (
{
layerId = "ac52443d-76b6-4d6b-8b4e-667b68a021e3";
name = Fore;
shapes = (
{
closed = 1;
nodes = (
(170,117,l),
(123,188,o),
(123,281,q),
(123,743,l),
(123,805,o),
(146.5,860,q),
(170,915,o),
(211,956,q),
(252,997,o),
(307,1020.5,q),
(362,1044,o),
(424,1044,q),
(506,1044,l),
(560,1044,o),
(608,1026,q),
(656,1008,o),
(694,977,q),
(762,1085,l),
(870,1085,l),
(760,905,l),
(781,870,o),
(794,829,q),
(807,788,o),
(807,743,q),
(807,281,l),
(807,219,o),
(783.5,164,q),
(760,109,o),
(719,68,q),
(678,27,o),
(623,3.5,q),
(568,-20,o),
(506,-20,q),
(424,-20,l),
(370,-20,o),
(322,-3,q),
(274,14,o),
(236,45,q),
(170,-61,l),
(61,-61,l)
);
},
{
closed = 1;
nodes = (
(246,266,o),
(246,259,q),
(246,252,o),
(248,244,q),
(633,874,l),
(608,899,o),
(575.5,913.5,q),
(543,928,o),
(506,928,q),
(424,928,l),
(387,928,o),
(354.5,914,q),
(322,900,o),
(298,876,q),
(274,852,o),
(260,819.5,q),
(246,787,o),
(246,750,q),
(246,274,l),
(246,274,l)
);
},
{
closed = 1;
nodes = (
(684,756,o),
(683,763,q),
(682,770,o),
(682,776,q),
(297,147,l),
(322,123,o),
(354.5,109.5,q),
(387,96,o),
(424,96,q),
(506,96,l),
(543,96,o),
(575.5,110,q),
(608,124,o),
(632,148,q),
(656,172,o),
(670,204.5,q),
(684,237,o),
(684,274,q),
(684,750,l)
);
}
);
width = 932;
}
);
unicode = 248;
},
{
glyphname = ugrave;
layers = (
{
layerId = "ac52443d-76b6-4d6b-8b4e-667b68a021e3";
name = Fore;
shapes = (
{
closed = 1;
nodes = (
(698,104,l),
(656,47,o),
(593,13.5,q),
(530,-20,o),
(455,-20,q),
(424,-20,l),
(362,-20,o),
(307,3.5,q),
(252,27,o),
(211,68,q),
(170,109,o),
(146.5,164,q),
(123,219,o),
(123,281,q),
(123,1024,l),
(246,1024,l),
(246,274,l),
(246,237,o),
(260,204.5,q),
(274,172,o),
(298,148,q),
(322,124,o),
(354.5,110,q),
(387,96,o),
(424,96,q),
(506,96,l),
(543,96,o),
(575.5,110,q),
(608,124,o),
(632,148,q),
(656,172,o),
(670,204.5,q),
(684,237,o),
(684,274,q),
(684,1024,l),
(807,1024,l),
(807,0,l),
(766,0,l)
);
},
{
closed = 1;
nodes = (
(403,1434,l),
(567,1188,l),
(475,1188,l),
(199,1434,l)
);
}
);
width = 930;
}
);
unicode = 249;
},
{
glyphname = uacute;
layers = (
{
layerId = "ac52443d-76b6-4d6b-8b4e-667b68a021e3";
name = Fore;
shapes = (
{
closed = 1;
nodes = (
(698,104,l),
(656,47,o),
(593,13.5,q),
(530,-20,o),
(455,-20,q),
(424,-20,l),
(362,-20,o),
(307,3.5,q),
(252,27,o),
(211,68,q),
(170,109,o),
(146.5,164,q),
(123,219,o),
(123,281,q),
(123,1024,l),
(246,1024,l),
(246,274,l),
(246,237,o),
(260,204.5,q),
(274,172,o),
(298,148,q),
(322,124,o),
(354.5,110,q),
(387,96,o),
(424,96,q),
(506,96,l),
(543,96,o),
(575.5,110,q),
(608,124,o),
(632,148,q),
(656,172,o),
(670,204.5,q),
(684,237,o),
(684,274,q),
(684,1024,l),
(807,1024,l),
(807,0,l),
(766,0,l)
);
},
{
closed = 1;
nodes = (
(362,1188,l),
(526,1434,l),
(731,1434,l),
(455,1188,l)
);
}
);
width = 930;
}
);
unicode = 250;
},
{
glyphname = ucircumflex;
layers = (
{
layerId = "ac52443d-76b6-4d6b-8b4e-667b68a021e3";
name = Fore;
shapes = (
{
closed = 1;
nodes = (
(698,104,l),
(656,47,o),
(593,13.5,q),
(530,-20,o),
(455,-20,q),
(424,-20,l),
(362,-20,o),
(307,3.5,q),
(252,27,o),
(211,68,q),
(170,109,o),
(146.5,164,q),
(123,219,o),
(123,281,q),
(123,1024,l),
(246,1024,l),
(246,274,l),
(246,237,o),
(260,204.5,q),
(274,172,o),
(298,148,q),
(322,124,o),
(354.5,110,q),
(387,96,o),
(424,96,q),
(506,96,l),
(543,96,o),
(575.5,110,q),
(608,124,o),
(632,148,q),
(656,172,o),
(670,204.5,q),
(684,237,o),
(684,274,q),
(684,1024,l),
(807,1024,l),
(807,0,l),
(766,0,l)
);
},
{
closed = 1;
nodes = (
(608,1188,l),
(465,1352,l),
(322,1188,l),
(199,1188,l),
(403,1434,l),
(526,1434,l),
(731,1188,l)
);
}
);
width = 930;
}
);
unicode = 251;
},
{
glyphname = udieresis;
layers = (
{
layerId = "ac52443d-76b6-4d6b-8b4e-667b68a021e3";
name = Fore;
shapes = (
{
closed = 1;
nodes = (
(698,104,l),
(656,47,o),
(593,13.5,q),
(530,-20,o),
(455,-20,q),
(424,-20,l),
(362,-20,o),
(307,3.5,q),
(252,27,o),
(211,68,q),
(170,109,o),
(146.5,164,q),
(123,219,o),
(123,281,q),
(123,1024,l),
(246,1024,l),
(246,274,l),
(246,237,o),
(260,204.5,q),
(274,172,o),
(298,148,q),
(322,124,o),
(354.5,110,q),
(387,96,o),
(424,96,q),
(506,96,l),
(543,96,o),
(575.5,110,q),
(608,124,o),
(632,148,q),
(656,172,o),
(670,204.5,q),
(684,237,o),
(684,274,q),
(684,1024,l),
(807,1024,l),
(807,0,l),
(766,0,l)
);
},
{
closed = 1;
nodes = (
(195,1384,l),
(348,1384,l),
(348,1231,l),
(195,1231,l)
);
},
{
closed = 1;
nodes = (
(582,1384,l),
(735,1384,l),
(735,1231,l),
(582,1231,l)
);
}
);
width = 930;
}
);
unicode = 252;
},
{
glyphname = yacute;
layers = (
{
layerId = "ac52443d-76b6-4d6b-8b4e-667b68a021e3";
name = Fore;
shapes = (
{
closed = 1;
nodes = (
(170,-410,l),
(352,88,l),
(20,1024,l),
(143,1024,l),
(410,248,l),
(414,195,l),
(418,248,l),
(684,1024,l),
(807,1024,l),
(289,-410,l)
);
},
{
closed = 1;
nodes = (
(301,1188,l),
(465,1434,l),
(670,1434,l),
(393,1188,l)
);
}
);
width = 807;
}
);
unicode = 253;
},
{
glyphname = thorn;
layers = (
{
layerId = "ac52443d-76b6-4d6b-8b4e-667b68a021e3";
name = Fore;
shapes = (
{
closed = 1;
nodes = (
(807,219,o),
(783.5,164,q),
(760,109,o),
(719,68,q),
(678,27,o),
(623,3.5,q),
(568,-20,o),
(506,-20,q),
(475,-20,l),
(406,-20,o),
(347,8,q),
(288,36,o),
(246,86,q),
(246,-410,l),
(123,-410,l),
(123,1434,l),
(246,1434,l),
(246,938,l),
(288,988,o),
(347,1016,q),
(406,1044,o),
(475,1044,q),
(506,1044,l),
(568,1044,o),
(623,1020.5,q),
(678,997,o),
(719,956,q),
(760,915,o),
(783.5,860,q),
(807,805,o),
(807,743,q),
(807,281,l),
(807,281,l)
);
},
{
closed = 1;
nodes = (
(684,787,o),
(670,819.5,q),
(656,852,o),
(632,876,q),
(608,900,o),
(575.5,914,q),
(543,928,o),
(506,928,q),
(424,928,l),
(387,928,o),
(354.5,914,q),
(322,900,o),
(298,876,q),
(274,852,o),
(260,819.5,q),
(246,787,o),
(246,750,q),
(246,274,l),
(246,237,o),
(260,204.5,q),
(274,172,o),
(298,148,q),
(322,124,o),
(354.5,110,q),
(387,96,o),
(424,96,q),
(506,96,l),
(543,96,o),
(575.5,110,q),
(608,124,o),
(632,148,q),
(656,172,o),
(670,204.5,q),
(684,237,o),
(684,274,q),
(684,750,l)
);
}
);
width = 930;
}
);
unicode = 254;
},
{
glyphname = ydieresis;
layers = (
{
layerId = "ac52443d-76b6-4d6b-8b4e-667b68a021e3";
name = Fore;
shapes = (
{
closed = 1;
nodes = (
(170,-410,l),
(352,88,l),
(20,1024,l),
(143,1024,l),
(410,248,l),
(414,195,l),
(418,248,l),
(684,1024,l),
(807,1024,l),
(289,-410,l)
);
},
{
closed = 1;
nodes = (
(154,1384,l),
(307,1384,l),
(307,1231,l),
(154,1231,l)
);
},
{
closed = 1;
nodes = (
(541,1384,l),
(694,1384,l),
(694,1231,l),
(541,1231,l)
);
}
);
width = 807;
}
);
unicode = 255;
},
{
glyphname = hbar;
layers = (
{
layerId = "ac52443d-76b6-4d6b-8b4e-667b68a021e3";
name = Fore;
shapes = (
{
closed = 1;
nodes = (
(684,750,l),
(684,787,o),
(670,819.5,q),
(656,852,o),
(632,876,q),
(608,900,o),
(575.5,914,q),
(543,928,o),
(506,928,q),
(424,928,l),
(387,928,o),
(354.5,914,q),
(322,900,o),
(298,876,q),
(274,852,o),
(260,819.5,q),
(246,787,o),
(246,750,q),
(246,0,l),
(123,0,l),
(123,1188,l),
(0,1188,l),
(0,1290,l),
(123,1290,l),
(123,1434,l),
(246,1434,l),
(246,1290,l),
(616,1290,l),
(616,1188,l),
(246,1188,l),
(246,938,l),
(288,988,o),
(347,1016,q),
(406,1044,o),
(475,1044,q),
(506,1044,l),
(568,1044,o),
(623,1020.5,q),
(678,997,o),
(719,956,q),
(760,915,o),
(783.5,860,q),
(807,805,o),
(807,743,q),
(807,0,l),
(684,0,l)
);
}
);
width = 930;
}
);
unicode = 295;
},
{
glyphname = Itilde;
layers = (
{
layerId = "ac52443d-76b6-4d6b-8b4e-667b68a021e3";
name = Fore;
shapes = (
{
closed = 1;
nodes = (
(164,1434,l),
(293,1434,l),
(293,0,l),
(164,0,l)
);
},
{
closed = 1;
nodes = (
(407,1729,o),
(429,1760.5,q),
(451,1792,o),
(451,1843,q),
(545,1843,l),
(545,1798,o),
(533.5,1759,q),
(522,1720,o),
(499,1691,q),
(476,1662,o),
(441.5,1645,q),
(407,1628,o),
(362,1628,q),
(315,1628,o),
(278,1646,q),
(241,1664,o),
(209.5,1685.5,q),
(178,1707,o),
(149.5,1725,q),
(121,1743,o),
(90,1743,q),
(48,1743,o),
(27,1711.5,q),
(6,1680,o),
(6,1630,q),
(-88,1630,l),
(-88,1675,o),
(-77,1713.5,q),
(-66,1752,o),
(-43.5,1781,q),
(-21,1810,o),
(13.5,1826.5,q),
(48,1843,o),
(94,1843,q),
(139,1843,o),
(173.5,1825,q),
(208,1807,o),
(238.5,1786,q),
(269,1765,o),
(299,1747,q),
(329,1729,o),
(365,1729,q)
);
}
);
width = 457;
}
);
unicode = 296;
},
{
glyphname = itilde;
layers = (
{
layerId = "ac52443d-76b6-4d6b-8b4e-667b68a021e3";
name = Fore;
shapes = (
{
closed = 1;
nodes = (
(164,1024,l),
(287,1024,l),
(287,0,l),
(164,0,l)
);
},
{
closed = 1;
nodes = (
(404,1319,o),
(426.5,1351,q),
(449,1383,o),
(449,1434,q),
(543,1434,l),
(543,1389,o),
(531.5,1350,q),
(520,1311,o),
(497,1282,q),
(474,1253,o),
(439.5,1236,q),
(405,1219,o),
(360,1219,q),
(312,1219,o),
(275.5,1237,q),
(239,1255,o),
(207.5,1276,q),
(176,1297,o),
(147.5,1315,q),
(119,1333,o),
(88,1333,q),
(46,1333,o),
(25,1301.5,q),
(4,1270,o),
(4,1221,q),
(-90,1221,l),
(-90,1265,o),
(-79,1304,q),
(-68,1343,o),
(-45.5,1372,q),
(-23,1401,o),
(11.5,1417.5,q),
(46,1434,o),
(92,1434,q),
(137,1434,o),
(171.5,1416,q),
(206,1398,o),
(236.5,1376.5,q),
(267,1355,o),
(297,1337,q),
(327,1319,o),
(362,1319,q)
);
}
);
width = 451;
}
);
unicode = 297;
},
{
glyphname = dotlessi;
layers = (
{
layerId = "ac52443d-76b6-4d6b-8b4e-667b68a021e3";
name = Fore;
shapes = (
{
closed = 1;
nodes = (
(164,1024,l),
(287,1024,l),
(287,0,l),
(164,0,l)
);
}
);
width = 451;
}
);
unicode = 305;
},
{
glyphname = IJ;
layers = (
{
layerId = "ac52443d-76b6-4d6b-8b4e-667b68a021e3";
name = Fore;
shapes = (
{
closed = 1;
nodes = (
(164,1434,l),
(293,1434,l),
(293,0,l),
(164,0,l)
);
},
{
closed = 1;
nodes = (
(1264,259,o),
(1236.5,195,q),
(1209,131,o),
(1161,83,q),
(1113,35,o),
(1048.5,7.5,q),
(984,-20,o),
(911,-20,q),
(870,-20,l),
(797,-20,o),
(733,7.5,q),
(669,35,o),
(621,83,q),
(573,131,o),
(545.5,195,q),
(518,259,o),
(518,332,q),
(518,389,l),
(647,410,l),
(647,332,l),
(647,284,o),
(665,242.5,q),
(683,201,o),
(714.5,169.5,q),
(746,138,o),
(787.5,120,q),
(829,102,o),
(877,102,q),
(905,102,l),
(953,102,o),
(994.5,120,q),
(1036,138,o),
(1067.5,169.5,q),
(1099,201,o),
(1117,242.5,q),
(1135,284,o),
(1135,332,q),
(1135,1434,l),
(1264,1434,l),
(1264,332,l),
(1264,332,l)
);
}
);
width = 1386;
}
);
unicode = 306;
},
{
glyphname = ij;
layers = (
{
layerId = "ac52443d-76b6-4d6b-8b4e-667b68a021e3";
name = Fore;
shapes = (
{
closed = 1;
nodes = (
(154,1434,l),
(297,1434,l),
(297,1270,l),
(154,1270,l)
);
},
{
closed = 1;
nodes = (
(164,1024,l),
(287,1024,l),
(287,0,l),
(164,0,l)
);
},
{
closed = 1;
nodes = (
(604,1434,l),
(748,1434,l),
(748,1270,l),
(604,1270,l)
);
},
{
closed = 1;
nodes = (
(737,-171,o),
(713.5,-225.5,q),
(690,-280,o),
(649,-321,q),
(608,-362,o),
(553,-386,q),
(498,-410,o),
(436,-410,q),
(436,-293,l),
(473,-293,o),
(505.5,-279,q),
(538,-265,o),
(562,-241,q),
(586,-217,o),
(600,-184.5,q),
(614,-152,o),
(614,-115,q),
(614,1024,l),
(737,1024,l),
(737,-109,l),
(737,-109,l)
);
}
);
width = 901;
}
);
unicode = 307;
},
{
glyphname = Jcircumflex;
layers = (
{
layerId = "ac52443d-76b6-4d6b-8b4e-667b68a021e3";
name = Fore;
shapes = (
{
closed = 1;
nodes = (
(807,259,o),
(779.5,195,q),
(752,131,o),
(704,83,q),
(656,35,o),
(592,7.5,q),
(528,-20,o),
(455,-20,q),
(414,-20,l),
(341,-20,o),
(276.5,7.5,q),
(212,35,o),
(164,83,q),
(116,131,o),
(88.5,195,q),
(61,259,o),
(61,332,q),
(61,389,l),
(190,410,l),
(190,332,l),
(190,284,o),
(208,242.5,q),
(226,201,o),
(257.5,169.5,q),
(289,138,o),
(330.5,120,q),
(372,102,o),
(420,102,q),
(449,102,l),
(496,102,o),
(538,120,q),
(580,138,o),
(611,169.5,q),
(642,201,o),
(660,242.5,q),
(678,284,o),
(678,332,q),
(678,1434,l),
(807,1434,l),
(807,332,l),
(807,332,l)
);
},
{
closed = 1;
nodes = (
(885,1597,l),
(741,1761,l),
(598,1597,l),
(475,1597,l),
(680,1843,l),
(803,1843,l),
(1008,1597,l)
);
}
);
width = 930;
}
);
unicode = 308;
},
{
glyphname = jcircumflex;
layers = (
{
layerId = "ac52443d-76b6-4d6b-8b4e-667b68a021e3";
name = Fore;
shapes = (
{
closed = 1;
nodes = (
(287,-171,o),
(263.5,-225.5,q),
(240,-280,o),
(199,-321,q),
(158,-362,o),
(103,-386,q),
(48,-410,o),
(-14,-410,q),
(-14,-293,l),
(23,-293,o),
(55.5,-279,q),
(88,-265,o),
(112,-241,q),
(136,-217,o),
(150,-184.5,q),
(164,-152,o),
(164,-115,q),
(164,1024,l),
(287,1024,l),
(287,-109,l),
(287,-109,l)
);
},
{
closed = 1;
nodes = (
(369,1188,l),
(225,1352,l),
(82,1188,l),
(-41,1188,l),
(164,1434,l),
(287,1434,l),
(492,1188,l)
);
}
);
width = 451;
}
);
unicode = 309;
},
{
glyphname = kcommaaccent;
layers = (
{
layerId = "ac52443d-76b6-4d6b-8b4e-667b68a021e3";
name = Fore;
shapes = (
{
closed = 1;
nodes = (
(311,512,l),
(729,1024,l),
(889,1024,l),
(461,512,l),
(889,0,l),
(729,0,l)
);
},
{
closed = 1;
nodes = (
(164,1434,l),
(287,1434,l),
(287,0,l),
(164,0,l)
);
},
{
closed = 1;
nodes = (
(410,-604,l),
(410,-164,l),
(563,-164,l),
(461,-604,l)
);
}
);
width = 930;
}
);
unicode = 311;
},
{
glyphname = kgreenlandic;
layers = (
{
layerId = "ac52443d-76b6-4d6b-8b4e-667b68a021e3";
name = Fore;
shapes = (
{
closed = 1;
nodes = (
(311,512,l),
(729,1024,l),
(889,1024,l),
(461,512,l),
(889,0,l),
(729,0,l)
);
},
{
closed = 1;
nodes = (
(164,1024,l),
(287,1024,l),
(287,0,l),
(164,0,l)
);
}
);
width = 930;
}
);
unicode = 312;
},
{
glyphname = Ldotaccent;
layers = (
{
layerId = "ac52443d-76b6-4d6b-8b4e-667b68a021e3";
name = Fore;
shapes = (
{
closed = 1;
nodes = (
(143,1434,l),
(272,1434,l),
(272,123,l),
(821,123,l),
(821,0,l),
(143,0,l)
);
},
{
closed = 1;
nodes = (
(510,809,l),
(664,809,l),
(664,655,l),
(510,655,l)
);
}
);
width = 842;
}
);
unicode = 319;
},
{
glyphname = ldot;
layers = (
{
layerId = "ac52443d-76b6-4d6b-8b4e-667b68a021e3";
name = Fore;
shapes = (
{
closed = 1;
nodes = (
(164,1434,l),
(287,1434,l),
(287,0,l),
(164,0,l)
);
},
{
closed = 1;
nodes = (
(451,809,l),
(604,809,l),
(604,655,l),
(451,655,l)
);
}
);
width = 666;
}
);
unicode = 320;
},
{
glyphname = Lslash;
layers = (
{
layerId = "ac52443d-76b6-4d6b-8b4e-667b68a021e3";
name = Fore;
shapes = (
{
closed = 1;
nodes = (
(143,539,l),
(16,467,l),
(16,584,l),
(143,655,l),
(143,1434,l),
(272,1434,l),
(272,727,l),
(653,944,l),
(653,827,l),
(272,610,l),
(272,123,l),
(821,123,l),
(821,0,l),
(143,0,l)
);
}
);
width = 842;
}
);
unicode = 321;
},
{
glyphname = lslash;
layers = (
{
layerId = "ac52443d-76b6-4d6b-8b4e-667b68a021e3";
name = Fore;
shapes = (
{
closed = 1;
nodes = (
(231,578,l),
(61,487,l),
(61,604,l),
(231,694,l),
(231,1434,l),
(354,1434,l),
(354,760,l),
(524,850,l),
(524,733,l),
(354,643,l),
(354,0,l),
(231,0,l)
);
}
);
width = 586;
}
);
unicode = 322;
},
{
glyphname = Nacute;
layers = (
{
layerId = "ac52443d-76b6-4d6b-8b4e-667b68a021e3";
name = Fore;
shapes = (
{
closed = 1;
nodes = (
(305,1044,l),
(293,1106,l),
(293,0,l),
(164,0,l),
(164,1434,l),
(231,1434,l),
(829,389,l),
(842,328,l),
(842,1434,l),
(971,1434,l),
(971,0,l),
(903,0,l)
);
},
{
closed = 1;
nodes = (
(465,1597,l),
(629,1843,l),
(834,1843,l),
(557,1597,l)
);
}
);
width = 1135;
}
);
unicode = 323;
},
{
glyphname = nacute;
layers = (
{
layerId = "ac52443d-76b6-4d6b-8b4e-667b68a021e3";
name = Fore;
shapes = (
{
closed = 1;
nodes = (
(684,750,l),
(684,787,o),
(670,819.5,q),
(656,852,o),
(632,876,q),
(608,900,o),
(575.5,914,q),
(543,928,o),
(506,928,q),
(424,928,l),
(387,928,o),
(354.5,914,q),
(322,900,o),
(298,876,q),
(274,852,o),
(260,819.5,q),
(246,787,o),
(246,750,q),
(246,0,l),
(123,0,l),
(123,1024,l),
(164,1024,l),
(231,920,l),
(273,977,o),
(336.5,1010.5,q),
(400,1044,o),
(475,1044,q),
(506,1044,l),
(568,1044,o),
(623,1020.5,q),
(678,997,o),
(719,956,q),
(760,915,o),
(783.5,860,q),
(807,805,o),
(807,743,q),
(807,0,l),
(684,0,l)
);
},
{
closed = 1;
nodes = (
(322,1188,l),
(485,1434,l),
(690,1434,l),
(414,1188,l)
);
}
);
width = 930;
}
);
unicode = 324;
},
{
glyphname = OE;
layers = (
{
layerId = "ac52443d-76b6-4d6b-8b4e-667b68a021e3";
name = Fore;
shapes = (
{
closed = 1;
nodes = (
(950,273,o),
(931.5,219.5,q),
(913,166,o),
(881,123,q),
(1526,123,l),
(1526,0,l),
(715,0,l),
(687,-9,o),
(658,-14.5,q),
(629,-20,o),
(598,-20,q),
(496,-20,l),
(423,-20,o),
(358.5,7.5,q),
(294,35,o),
(246,83,q),
(198,131,o),
(170.5,195,q),
(143,259,o),
(143,332,q),
(143,1102,l),
(143,1175,o),
(170.5,1239,q),
(198,1303,o),
(246,1351,q),
(294,1399,o),
(358.5,1426.5,q),
(423,1454,o),
(496,1454,q),
(598,1454,l),
(629,1454,o),
(658,1448.5,q),
(687,1443,o),
(715,1434,q),
(1526,1434,l),
(1526,1311,l),
(881,1311,l),
(913,1266,o),
(931.5,1213.5,q),
(950,1161,o),
(950,1102,q),
(950,778,l),
(1397,778,l),
(1397,655,l),
(950,655,l),
(950,332,l),
(950,332,l)
);
},
{
closed = 1;
nodes = (
(821,1150,o),
(803,1191.5,q),
(785,1233,o),
(754,1264,q),
(723,1295,o),
(681.5,1313,q),
(640,1331,o),
(592,1331,q),
(502,1331,l),
(454,1331,o),
(412.5,1313,q),
(371,1295,o),
(339.5,1264,q),
(308,1233,o),
(290,1191.5,q),
(272,1150,o),
(272,1102,q),
(272,332,l),
(272,284,o),
(290,242.5,q),
(308,201,o),
(339.5,169.5,q),
(371,138,o),
(412.5,120,q),
(454,102,o),
(502,102,q),
(592,102,l),
(640,102,o),
(681.5,120,q),
(723,138,o),
(754,169.5,q),
(785,201,o),
(803,242.5,q),
(821,284,o),
(821,332,q),
(821,1102,l)
);
}
);
width = 1608;
}
);
unicode = 338;
},
{
glyphname = oe;
layers = (
{
layerId = "ac52443d-76b6-4d6b-8b4e-667b68a021e3";
name = Fore;
shapes = (
{
closed = 1;
nodes = (
(1370,219,o),
(1346.5,164,q),
(1323,109,o),
(1282,68,q),
(1241,27,o),
(1186,3.5,q),
(1131,-20,o),
(1069,-20,q),
(987,-20,l),
(913,-20,o),
(850,12.5,q),
(787,45,o),
(745,100,q),
(703,45,o),
(641.5,12.5,q),
(580,-20,o),
(506,-20,q),
(424,-20,l),
(362,-20,o),
(307,3.5,q),
(252,27,o),
(211,68,q),
(170,109,o),
(146.5,164,q),
(123,219,o),
(123,281,q),
(123,743,l),
(123,805,o),
(146.5,860,q),
(170,915,o),
(211,956,q),
(252,997,o),
(307,1020.5,q),
(362,1044,o),
(424,1044,q),
(506,1044,l),
(580,1044,o),
(641.5,1011,q),
(703,978,o),
(745,924,q),
(787,978,o),
(850,1011,q),
(913,1044,o),
(987,1044,q),
(1069,1044,l),
(1131,1044,o),
(1186,1020.5,q),
(1241,997,o),
(1282,956,q),
(1323,915,o),
(1346.5,860,q),
(1370,805,o),
(1370,743,q),
(1370,502,l),
(809,502,l),
(809,274,l),
(809,237,o),
(823,204.5,q),
(837,172,o),
(861,148,q),
(885,124,o),
(917.5,110,q),
(950,96,o),
(987,96,q),
(1069,96,l),
(1106,96,o),
(1138.5,110,q),
(1171,124,o),
(1195,148,q),
(1219,172,o),
(1233,204.5,q),
(1247,237,o),
(1247,274,q),
(1247,342,l),
(1370,322,l),
(1370,281,l),
(1370,281,l)
);
},
{
closed = 1;
nodes = (
(684,787,o),
(670,819.5,q),
(656,852,o),
(632,876,q),
(608,900,o),
(575.5,914,q),
(543,928,o),
(506,928,q),
(424,928,l),
(387,928,o),
(354.5,914,q),
(322,900,o),
(298,876,q),
(274,852,o),
(260,819.5,q),
(246,787,o),
(246,750,q),
(246,274,l),
(246,237,o),
(260,204.5,q),
(274,172,o),
(298,148,q),
(322,124,o),
(354.5,110,q),
(387,96,o),
(424,96,q),
(506,96,l),
(543,96,o),
(575.5,110,q),
(608,124,o),
(632,148,q),
(656,172,o),
(670,204.5,q),
(684,237,o),
(684,274,q),
(684,750,l)
);
},
{
closed = 1;
nodes = (
(1247,787,o),
(1233,819.5,q),
(1219,852,o),
(1195,876,q),
(1171,900,o),
(1138.5,914,q),
(1106,928,o),
(1069,928,q),
(987,928,l),
(950,928,o),
(917.5,914,q),
(885,900,o),
(861,876,q),
(837,852,o),
(823,819.5,q),
(809,787,o),
(809,750,q),
(809,598,l),
(1247,598,l),
(1247,750,l)
);
}
);
width = 1493;
}
);
unicode = 339;
},
{
glyphname = Racute;
layers = (
{
layerId = "ac52443d-76b6-4d6b-8b4e-667b68a021e3";
name = Fore;
shapes = (
{
closed = 1;
nodes = (
(449,612,l),
(272,612,l),
(272,0,l),
(143,0,l),
(143,1434,l),
(598,1434,l),
(671,1434,o),
(735,1406.5,q),
(799,1379,o),
(847,1331,q),
(895,1283,o),
(922.5,1218.5,q),
(950,1154,o),
(950,1081,q),
(950,965,l),
(950,892,o),
(922.5,827.5,q),
(895,763,o),
(847,715,q),
(799,667,o),
(735,639.5,q),
(671,612,o),
(598,612,q),
(987,0,l),
(838,0,l)
);
},
{
closed = 1;
nodes = (
(821,1129,o),
(803,1170.5,q),
(785,1212,o),
(754,1243.5,q),
(723,1275,o),
(681.5,1293,q),
(640,1311,o),
(592,1311,q),
(272,1311,l),
(272,735,l),
(592,735,l),
(640,735,o),
(681.5,753,q),
(723,771,o),
(754,802.5,q),
(785,834,o),
(803,875.5,q),
(821,917,o),
(821,965,q),
(821,1081,l)
);
},
{
closed = 1;
nodes = (
(371,1597,l),
(535,1843,l),
(739,1843,l),
(463,1597,l)
);
}
);
width = 1069;
}
);
unicode = 340;
},
{
glyphname = Rcommaaccent;
layers = (
{
layerId = "ac52443d-76b6-4d6b-8b4e-667b68a021e3";
name = Fore;
shapes = (
{
closed = 1;
nodes = (
(449,612,l),
(272,612,l),
(272,0,l),
(143,0,l),
(143,1434,l),
(598,1434,l),
(671,1434,o),
(735,1406.5,q),
(799,1379,o),
(847,1331,q),
(895,1283,o),
(922.5,1218.5,q),
(950,1154,o),
(950,1081,q),
(950,965,l),
(950,892,o),
(922.5,827.5,q),
(895,763,o),
(847,715,q),
(799,667,o),
(735,639.5,q),
(671,612,o),
(598,612,q),
(987,0,l),
(838,0,l)
);
},
{
closed = 1;
nodes = (
(821,1129,o),
(803,1170.5,q),
(785,1212,o),
(754,1243.5,q),
(723,1275,o),
(681.5,1293,q),
(640,1311,o),
(592,1311,q),
(272,1311,l),
(272,735,l),
(592,735,l),
(640,735,o),
(681.5,753,q),
(723,771,o),
(754,802.5,q),
(785,834,o),
(803,875.5,q),
(821,917,o),
(821,965,q),
(821,1081,l)
);
},
{
closed = 1;
nodes = (
(465,-604,l),
(465,-164,l),
(618,-164,l),
(516,-604,l)
);
}
);
width = 1069;
}
);
unicode = 342;
},
{
glyphname = rcommaaccent;
layers = (
{
layerId = "ac52443d-76b6-4d6b-8b4e-667b68a021e3";
name = Fore;
shapes = (
{
closed = 1;
nodes = (
(387,907,o),
(354.5,893,q),
(322,879,o),
(298,855,q),
(274,831,o),
(260,798.5,q),
(246,766,o),
(246,729,q),
(246,0,l),
(123,0,l),
(123,1024,l),
(164,1024,l),
(231,920,l),
(273,977,o),
(336.5,1010.5,q),
(400,1044,o),
(475,1044,q),
(547,1044,l),
(547,907,l),
(424,907,l)
);
},
{
closed = 1;
nodes = (
(123,-604,l),
(123,-164,l),
(276,-164,l),
(174,-604,l)
);
}
);
width = 588;
}
);
unicode = 343;
},
{
glyphname = Rcaron;
layers = (
{
layerId = "ac52443d-76b6-4d6b-8b4e-667b68a021e3";
name = Fore;
shapes = (
{
closed = 1;
nodes = (
(449,612,l),
(272,612,l),
(272,0,l),
(143,0,l),
(143,1434,l),
(598,1434,l),
(671,1434,o),
(735,1406.5,q),
(799,1379,o),
(847,1331,q),
(895,1283,o),
(922.5,1218.5,q),
(950,1154,o),
(950,1081,q),
(950,965,l),
(950,892,o),
(922.5,827.5,q),
(895,763,o),
(847,715,q),
(799,667,o),
(735,639.5,q),
(671,612,o),
(598,612,q),
(987,0,l),
(838,0,l)
);
},
{
closed = 1;
nodes = (
(821,1129,o),
(803,1170.5,q),
(785,1212,o),
(754,1243.5,q),
(723,1275,o),
(681.5,1293,q),
(640,1311,o),
(592,1311,q),
(272,1311,l),
(272,735,l),
(592,735,l),
(640,735,o),
(681.5,753,q),
(723,771,o),
(754,802.5,q),
(785,834,o),
(803,875.5,q),
(821,917,o),
(821,965,q),
(821,1081,l)
);
},
{
closed = 1;
nodes = (
(453,1597,l),
(248,1843,l),
(371,1843,l),
(514,1679,l),
(657,1843,l),
(780,1843,l),
(575,1597,l)
);
}
);
width = 1069;
}
);
unicode = 344;
},
{
glyphname = rcaron;
layers = (
{
layerId = "ac52443d-76b6-4d6b-8b4e-667b68a021e3";
name = Fore;
shapes = (
{
closed = 1;
nodes = (
(387,907,o),
(354.5,893,q),
(322,879,o),
(298,855,q),
(274,831,o),
(260,798.5,q),
(246,766,o),
(246,729,q),
(246,0,l),
(123,0,l),
(123,1024,l),
(164,1024,l),
(231,920,l),
(273,977,o),
(336.5,1010.5,q),
(400,1044,o),
(475,1044,q),
(547,1044,l),
(547,907,l),
(424,907,l)
);
},
{
closed = 1;
nodes = (
(254,1188,l),
(49,1434,l),
(172,1434,l),
(315,1270,l),
(459,1434,l),
(582,1434,l),
(377,1188,l)
);
}
);
width = 588;
}
);
unicode = 345;
},
{
glyphname = Scaron;
layers = (
{
layerId = "ac52443d-76b6-4d6b-8b4e-667b68a021e3";
name = Fore;
shapes = (
{
closed = 1;
nodes = (
(950,259,o),
(920.5,195,q),
(891,131,o),
(841.5,83,q),
(792,35,o),
(726.5,7.5,q),
(661,-20,o),
(588,-20,q),
(485,-20,l),
(412,-20,o),
(346.5,7.5,q),
(281,35,o),
(231.5,83,q),
(182,131,o),
(152.5,195,q),
(123,259,o),
(123,332,q),
(123,389,l),
(252,410,l),
(252,332,l),
(252,284,o),
(271.5,242.5,q),
(291,201,o),
(324,169.5,q),
(357,138,o),
(400.5,120,q),
(444,102,o),
(492,102,q),
(582,102,l),
(630,102,o),
(673,120,q),
(716,138,o),
(749,169.5,q),
(782,201,o),
(801.5,242.5,q),
(821,284,o),
(821,332,q),
(821,375,l),
(821,449,o),
(792,498,q),
(763,547,o),
(715,581.5,q),
(667,616,o),
(606.5,640,q),
(546,664,o),
(482,688,q),
(418,712,o),
(357.5,741,q),
(297,770,o),
(249,813.5,q),
(201,857,o),
(172,920,q),
(143,983,o),
(143,1075,q),
(143,1102,l),
(143,1175,o),
(170.5,1239,q),
(198,1303,o),
(246,1351,q),
(294,1399,o),
(358.5,1426.5,q),
(423,1454,o),
(496,1454,q),
(588,1454,l),
(661,1454,o),
(725,1426.5,q),
(789,1399,o),
(837,1351,q),
(885,1303,o),
(912.5,1239,q),
(940,1175,o),
(940,1102,q),
(940,1065,l),
(811,1044,l),
(811,1102,l),
(811,1150,o),
(793,1191.5,q),
(775,1233,o),
(744,1264,q),
(713,1295,o),
(671.5,1313,q),
(630,1331,o),
(582,1331,q),
(502,1331,l),
(454,1331,o),
(412.5,1313,q),
(371,1295,o),
(339.5,1264,q),
(308,1233,o),
(290,1191.5,q),
(272,1150,o),
(272,1102,q),
(272,1075,l),
(272,1006,o),
(301,959,q),
(330,912,o),
(378,878.5,q),
(426,845,o),
(486.5,820.5,q),
(547,796,o),
(611,770.5,q),
(675,745,o),
(735.5,714.5,q),
(796,684,o),
(844,639.5,q),
(892,595,o),
(921,531,q),
(950,467,o),
(950,375,q),
(950,332,l)
);
},
{
closed = 1;
nodes = (
(475,1597,l),
(270,1843,l),
(393,1843,l),
(537,1679,l),
(680,1843,l),
(803,1843,l),
(598,1597,l)
);
}
);
width = 1073;
}
);
unicode = 352;
},
{
glyphname = scaron;
layers = (
{
layerId = "ac52443d-76b6-4d6b-8b4e-667b68a021e3";
name = Fore;
shapes = (
{
closed = 1;
nodes = (
(827,198,o),
(802,146.5,q),
(777,95,o),
(734,58,q),
(691,21,o),
(634.5,0.5,q),
(578,-20,o),
(516,-20,q),
(434,-20,l),
(372,-20,o),
(315.5,3.5,q),
(259,27,o),
(216.5,68,q),
(174,109,o),
(148.5,164,q),
(123,219,o),
(123,281,q),
(123,322,l),
(246,342,l),
(246,274,l),
(246,237,o),
(261.5,204.5,q),
(277,172,o),
(303,148,q),
(329,124,o),
(363,110,q),
(397,96,o),
(434,96,q),
(516,96,l),
(553,96,o),
(587,107,q),
(621,118,o),
(647.5,138.5,q),
(674,159,o),
(689.5,188,q),
(705,217,o),
(705,254,q),
(705,309,o),
(681,344,q),
(657,379,o),
(617.5,402.5,q),
(578,426,o),
(527.5,441.5,q),
(477,457,o),
(424,472.5,q),
(371,488,o),
(320.5,508,q),
(270,528,o),
(230.5,560.5,q),
(191,593,o),
(167,642,q),
(143,691,o),
(143,764,q),
(143,826,o),
(167,877.5,q),
(191,929,o),
(232,966,q),
(273,1003,o),
(327.5,1023.5,q),
(382,1044,o),
(444,1044,q),
(516,1044,l),
(578,1044,o),
(633,1020.5,q),
(688,997,o),
(729,956,q),
(770,915,o),
(793.5,860,q),
(817,805,o),
(817,743,q),
(817,739,l),
(694,719,l),
(694,750,l),
(694,787,o),
(680,819.5,q),
(666,852,o),
(642,876,q),
(618,900,o),
(585.5,914,q),
(553,928,o),
(516,928,q),
(444,928,l),
(407,928,o),
(374.5,917,q),
(342,906,o),
(318,885.5,q),
(294,865,o),
(280,836,q),
(266,807,o),
(266,770,q),
(266,717,o),
(290,683.5,q),
(314,650,o),
(353.5,627,q),
(393,604,o),
(443.5,588.5,q),
(494,573,o),
(546.5,556.5,q),
(599,540,o),
(649.5,519,q),
(700,498,o),
(739.5,465,q),
(779,432,o),
(803,382.5,q),
(827,333,o),
(827,260,q)
);
},
{
closed = 1;
nodes = (
(414,1188,l),
(209,1434,l),
(332,1434,l),
(475,1270,l),
(618,1434,l),
(741,1434,l),
(537,1188,l)
);
}
);
width = 950;
}
);
unicode = 353;
},
{
glyphname = Ydieresis;
layers = (
{
layerId = "ac52443d-76b6-4d6b-8b4e-667b68a021e3";
name = Fore;
shapes = (
{
closed = 1;
nodes = (
(541,0,l),
(412,0,l),
(412,684,l),
(41,1434,l),
(180,1434,l),
(475,838,l),
(770,1434,l),
(909,1434,l),
(541,686,l)
);
},
{
closed = 1;
nodes = (
(205,1794,l),
(358,1794,l),
(358,1640,l),
(205,1640,l)
);
},
{
closed = 1;
nodes = (
(592,1794,l),
(745,1794,l),
(745,1640,l),
(592,1640,l)
);
}
);
width = 950;
}
);
unicode = 376;
},
{
glyphname = Zcaron;
layers = (
{
layerId = "ac52443d-76b6-4d6b-8b4e-667b68a021e3";
name = Fore;
shapes = (
{
closed = 1;
nodes = (
(82,61,l),
(721,1311,l),
(102,1311,l),
(102,1434,l),
(889,1434,l),
(889,1372,l),
(250,123,l),
(889,123,l),
(889,0,l),
(82,0,l)
);
},
{
closed = 1;
nodes = (
(424,1597,l),
(219,1843,l),
(342,1843,l),
(485,1679,l),
(629,1843,l),
(752,1843,l),
(547,1597,l)
);
}
);
width = 971;
}
);
unicode = 381;
},
{
glyphname = zcaron;
layers = (
{
layerId = "ac52443d-76b6-4d6b-8b4e-667b68a021e3";
name = Fore;
shapes = (
{
closed = 1;
nodes = (
(82,55,l),
(598,907,l),
(102,907,l),
(102,1024,l),
(766,1024,l),
(766,969,l),
(250,117,l),
(766,117,l),
(766,0,l),
(82,0,l)
);
},
{
closed = 1;
nodes = (
(362,1188,l),
(158,1434,l),
(281,1434,l),
(424,1270,l),
(567,1434,l),
(690,1434,l),
(485,1188,l)
);
}
);
width = 848;
}
);
unicode = 382;
},
{
glyphname = florin;
layers = (
{
layerId = "ac52443d-76b6-4d6b-8b4e-667b68a021e3";
name = Fore;
shapes = (
{
closed = 1;
nodes = (
(133,743,l),
(150,860,l),
(334,860,l),
(377,1163,l),
(385,1219,o),
(413,1268.5,q),
(441,1318,o),
(483,1355,q),
(525,1392,o),
(577.5,1413,q),
(630,1434,o),
(686,1434,q),
(799,1434,l),
(782,1317,l),
(670,1317,l),
(639,1317,o),
(610.5,1305.5,q),
(582,1294,o),
(559,1274,q),
(536,1254,o),
(521,1227,q),
(506,1200,o),
(502,1169,q),
(457,860,l),
(696,860,l),
(680,743,l),
(440,743,l),
(317,-139,l),
(310,-195,o),
(281.5,-244.5,q),
(253,-294,o),
(211.5,-331,q),
(170,-368,o),
(118,-389,q),
(66,-410,o),
(10,-410,q),
(-102,-410,l),
(-86,-293,l),
(27,-293,l),
(57,-293,o),
(85,-281.5,q),
(113,-270,o),
(135.5,-250,q),
(158,-230,o),
(173.5,-203,q),
(189,-176,o),
(193,-145,q),
(317,743,l)
);
}
);
width = 752;
}
);
unicode = 402;
},
{
glyphname = circumflex;
layers = (
{
layerId = "ac52443d-76b6-4d6b-8b4e-667b68a021e3";
name = Fore;
shapes = (
{
closed = 1;
nodes = (
(614,1188,l),
(471,1352,l),
(328,1188,l),
(205,1188,l),
(410,1434,l),
(532,1434,l),
(737,1188,l)
);
}
);
width = 942;
}
);
unicode = 710;
},
{
glyphname = caron;
layers = (
{
layerId = "ac52443d-76b6-4d6b-8b4e-667b68a021e3";
name = Fore;
shapes = (
{
closed = 1;
nodes = (
(410,1188,l),
(205,1434,l),
(328,1434,l),
(471,1270,l),
(614,1434,l),
(737,1434,l),
(532,1188,l)
);
}
);
width = 942;
}
);
unicode = 711;
},
{
glyphname = breve;
layers = (
{
layerId = "ac52443d-76b6-4d6b-8b4e-667b68a021e3";
name = Fore;
shapes = (
{
closed = 1;
nodes = (
(299,1412,o),
(312.5,1386,q),
(326,1360,o),
(350,1343,q),
(374,1326,o),
(406,1317.5,q),
(438,1309,o),
(475,1309,q),
(512,1309,o),
(544.5,1317.5,q),
(577,1326,o),
(601,1343,q),
(625,1360,o),
(639,1386,q),
(653,1412,o),
(653,1446,q),
(748,1446,l),
(748,1389,o),
(726.5,1345.5,q),
(705,1302,o),
(668.5,1273,q),
(632,1244,o),
(582,1229,q),
(532,1214,o),
(475,1214,q),
(418,1214,o),
(369,1229,q),
(320,1244,o),
(283.5,1273,q),
(247,1302,o),
(226,1345.5,q),
(205,1389,o),
(205,1446,q),
(299,1446,l)
);
}
);
width = 952;
}
);
unicode = 728;
},
{
glyphname = dotaccent;
layers = (
{
layerId = "ac52443d-76b6-4d6b-8b4e-667b68a021e3";
name = Fore;
shapes = (
{
closed = 1;
nodes = (
(205,1384,l),
(358,1384,l),
(358,1231,l),
(205,1231,l)
);
}
);
width = 563;
}
);
unicode = 729;
},
{
glyphname = ring;
layers = (
{
layerId = "ac52443d-76b6-4d6b-8b4e-667b68a021e3";
name = Fore;
shapes = (
{
closed = 1;
nodes = (
(205,1402,o),
(221.5,1440.5,q),
(238,1479,o),
(266.5,1508,q),
(295,1537,o),
(333.5,1554,q),
(372,1571,o),
(416,1571,q),
(460,1571,o),
(498.5,1554,q),
(537,1537,o),
(566,1508,q),
(595,1479,o),
(612,1440.5,q),
(629,1402,o),
(629,1358,q),
(629,1314,o),
(612,1275.5,q),
(595,1237,o),
(566,1208.5,q),
(537,1180,o),
(498.5,1163.5,q),
(460,1147,o),
(416,1147,q),
(372,1147,o),
(333.5,1163.5,q),
(295,1180,o),
(266.5,1208.5,q),
(238,1237,o),
(221.5,1275.5,q),
(205,1314,o),
(205,1358,q)
);
},
{
closed = 1;
nodes = (
(307,1336,o),
(315.5,1315.5,q),
(324,1295,o),
(339,1280,q),
(354,1265,o),
(374,1256,q),
(394,1247,o),
(416,1247,q),
(439,1247,o),
(459,1256,q),
(479,1265,o),
(494,1280,q),
(509,1295,o),
(517.5,1315.5,q),
(526,1336,o),
(526,1358,q),
(526,1381,o),
(517.5,1401.5,q),
(509,1422,o),
(494,1437,q),
(479,1452,o),
(459,1461,q),
(439,1470,o),
(416,1470,q),
(394,1470,o),
(374,1461,q),
(354,1452,o),
(339,1437,q),
(324,1422,o),
(315.5,1401.5,q),
(307,1381,o),
(307,1358,q)
);
}
);
width = 834;
}
);
unicode = 730;
},
{
glyphname = ogonek;
layers = (
{
layerId = "ac52443d-76b6-4d6b-8b4e-667b68a021e3";
name = Fore;
shapes = (
{
closed = 1;
nodes = (
(347,-32,o),
(332,-66,q),
(319,-95,o),
(309,-131.5,q),
(299,-168,o),
(299,-203,q),
(299,-263,o),
(327.5,-292.5,q),
(356,-322,o),
(406,-322,q),
(428,-322,o),
(446,-315.5,q),
(464,-309,o),
(478,-301,q),
(494,-291,o),
(508,-279,q),
(508,-350,l),
(492,-366,o),
(472,-377,q),
(455,-387,o),
(430.5,-395,q),
(406,-403,o),
(375,-403,q),
(340,-403,o),
(309,-391.5,q),
(278,-380,o),
(255,-358,q),
(232,-336,o),
(218.5,-303.5,q),
(205,-271,o),
(205,-229,q),
(205,-182,o),
(218,-141,q),
(231,-100,o),
(247,-68,q),
(265,-31,o),
(289,0,q),
(365,0,l)
);
}
);
width = 713;
}
);
unicode = 731;
},
{
glyphname = tilde;
layers = (
{
layerId = "ac52443d-76b6-4d6b-8b4e-667b68a021e3";
name = Fore;
shapes = (
{
closed = 1;
nodes = (
(699,1319,o),
(721,1351,q),
(743,1383,o),
(743,1434,q),
(838,1434,l),
(838,1389,o),
(826.5,1350,q),
(815,1311,o),
(792,1282,q),
(769,1253,o),
(734.5,1236,q),
(700,1219,o),
(655,1219,q),
(607,1219,o),
(570.5,1237,q),
(534,1255,o),
(502.5,1276,q),
(471,1297,o),
(442.5,1315,q),
(414,1333,o),
(383,1333,q),
(341,1333,o),
(320,1301.5,q),
(299,1270,o),
(299,1221,q),
(205,1221,l),
(205,1265,o),
(216,1304,q),
(227,1343,o),
(249.5,1372,q),
(272,1401,o),
(306.5,1417.5,q),
(341,1434,o),
(387,1434,q),
(432,1434,o),
(466.5,1416,q),
(501,1398,o),
(531.5,1376.5,q),
(562,1355,o),
(592,1337,q),
(622,1319,o),
(657,1319,q)
);
}
);
width = 1042;
}
);
unicode = 732;
},
{
glyphname = hungarumlaut;
layers = (
{
layerId = "ac52443d-76b6-4d6b-8b4e-667b68a021e3";
name = Fore;
shapes = (
{
closed = 1;
nodes = (
(205,1188,l),
(369,1434,l),
(573,1434,l),
(297,1188,l)
);
},
{
closed = 1;
nodes = (
(524,1188,l),
(688,1434,l),
(893,1434,l),
(616,1188,l)
);
}
);
width = 1098;
}
);
unicode = 733;
},
{
glyphname = dotaccentcmb;
layers = (
{
layerId = "ac52443d-76b6-4d6b-8b4e-667b68a021e3";
name = Fore;
shapes = (
{
closed = 1;
nodes = (
(205,1384,l),
(358,1384,l),
(358,1231,l),
(205,1231,l)
);
}
);
width = 563;
}
);
unicode = 775;
},
{
glyphname = endash;
layers = (
{
layerId = "ac52443d-76b6-4d6b-8b4e-667b68a021e3";
name = Fore;
shapes = (
{
closed = 1;
nodes = (
(1024,627,l),
(102,627,l),
(102,743,l),
(1024,743,l)
);
}
);
width = 1126;
}
);
unicode = 8211;
},
{
glyphname = emdash;
layers = (
{
layerId = "ac52443d-76b6-4d6b-8b4e-667b68a021e3";
name = Fore;
shapes = (
{
closed = 1;
nodes = (
(1946,627,l),
(102,627,l),
(102,743,l),
(1946,743,l)
);
}
);
width = 2048;
}
);
unicode = 8212;
},
{
glyphname = quoteleft;
layers = (
{
layerId = "ac52443d-76b6-4d6b-8b4e-667b68a021e3";
name = Fore;
shapes = (
{
closed = 1;
nodes = (
(297,1434,l),
(297,993,l),
(143,993,l),
(246,1434,l)
);
}
);
width = 399;
}
);
unicode = 8216;
},
{
glyphname = quoteright;
layers = (
{
layerId = "ac52443d-76b6-4d6b-8b4e-667b68a021e3";
name = Fore;
shapes = (
{
closed = 1;
nodes = (
(143,993,l),
(143,1434,l),
(297,1434,l),
(195,993,l)
);
}
);
width = 399;
}
);
unicode = 8217;
},
{
glyphname = quotesinglbase;
layers = (
{
layerId = "ac52443d-76b6-4d6b-8b4e-667b68a021e3";
name = Fore;
shapes = (
{
closed = 1;
nodes = (
(143,-287,l),
(143,154,l),
(297,154,l),
(195,-287,l)
);
}
);
width = 440;
}
);
unicode = 8218;
},
{
glyphname = quotedblleft;
layers = (
{
layerId = "ac52443d-76b6-4d6b-8b4e-667b68a021e3";
name = Fore;
shapes = (
{
closed = 1;
nodes = (
(502,1434,l),
(502,993,l),
(348,993,l),
(451,1434,l)
);
},
{
closed = 1;
nodes = (
(256,1434,l),
(256,993,l),
(102,993,l),
(205,1434,l)
);
}
);
width = 645;
}
);
unicode = 8220;
},
{
glyphname = quotedblright;
layers = (
{
layerId = "ac52443d-76b6-4d6b-8b4e-667b68a021e3";
name = Fore;
shapes = (
{
closed = 1;
nodes = (
(143,993,l),
(143,1434,l),
(297,1434,l),
(195,993,l)
);
},
{
closed = 1;
nodes = (
(389,993,l),
(389,1434,l),
(543,1434,l),
(440,993,l)
);
}
);
width = 645;
}
);
unicode = 8221;
},
{
glyphname = quotedblbase;
layers = (
{
layerId = "ac52443d-76b6-4d6b-8b4e-667b68a021e3";
name = Fore;
shapes = (
{
closed = 1;
nodes = (
(143,-287,l),
(143,154,l),
(297,154,l),
(195,-287,l)
);
},
{
closed = 1;
nodes = (
(389,-287,l),
(389,154,l),
(543,154,l),
(440,-287,l)
);
}
);
width = 645;
}
);
unicode = 8222;
},
{
glyphname = dagger;
layers = (
{
layerId = "ac52443d-76b6-4d6b-8b4e-667b68a021e3";
name = Fore;
shapes = (
{
closed = 1;
nodes = (
(391,1434,l),
(535,1434,l),
(528,1010,l),
(844,1032,l),
(844,887,l),
(526,909,l),
(510,-410,l),
(416,-410,l),
(397,909,l),
(82,887,l),
(82,1032,l),
(397,1010,l)
);
}
);
width = 926;
}
);
unicode = 8224;
},
{
glyphname = daggerdbl;
layers = (
{
layerId = "ac52443d-76b6-4d6b-8b4e-667b68a021e3";
name = Fore;
shapes = (
{
closed = 1;
nodes = (
(391,1434,l),
(535,1434,l),
(524,1010,l),
(844,1032,l),
(844,887,l),
(522,909,l),
(512,510,l),
(520,115,l),
(844,137,l),
(844,-8,l),
(524,12,l),
(535,-410,l),
(391,-410,l),
(401,14,l),
(82,-8,l),
(82,137,l),
(403,115,l),
(414,508,l),
(403,909,l),
(82,887,l),
(82,1032,l),
(401,1010,l)
);
}
);
width = 926;
}
);
unicode = 8225;
},
{
glyphname = bullet;
layers = (
{
layerId = "ac52443d-76b6-4d6b-8b4e-667b68a021e3";
name = Fore;
shapes = (
{
closed = 1;
nodes = (
(123,783,o),
(151,847.5,q),
(179,912,o),
(227.5,960.5,q),
(276,1009,o),
(341,1037,q),
(406,1065,o),
(479,1065,q),
(553,1065,o),
(618,1037,q),
(683,1009,o),
(731.5,960.5,q),
(780,912,o),
(808,847.5,q),
(836,783,o),
(836,709,q),
(836,635,o),
(808,570,q),
(780,505,o),
(731.5,456.5,q),
(683,408,o),
(618,380,q),
(553,352,o),
(479,352,q),
(406,352,o),
(341,380,q),
(276,408,o),
(227.5,456.5,q),
(179,505,o),
(151,570,q),
(123,635,o),
(123,709,q)
);
}
);
width = 958;
}
);
unicode = 8226;
},
{
glyphname = ellipsis;
layers = (
{
layerId = "ac52443d-76b6-4d6b-8b4e-667b68a021e3";
name = Fore;
shapes = (
{
closed = 1;
nodes = (
(143,154,l),
(297,154,l),
(297,0,l),
(143,0,l)
);
},
{
closed = 1;
nodes = (
(666,154,l),
(819,154,l),
(819,0,l),
(666,0,l)
);
},
{
closed = 1;
nodes = (
(1188,154,l),
(1341,154,l),
(1341,0,l),
(1188,0,l)
);
}
);
width = 1485;
}
);
unicode = 8230;
},
{
glyphname = guilsinglleft;
layers = (
{
layerId = "ac52443d-76b6-4d6b-8b4e-667b68a021e3";
name = Fore;
shapes = (
{
closed = 1;
nodes = (
(82,467,l),
(459,850,l),
(500,809,l),
(250,467,l),
(500,125,l),
(459,84,l)
);
}
);
width = 623;
}
);
unicode = 8249;
},
{
glyphname = guilsinglright;
layers = (
{
layerId = "ac52443d-76b6-4d6b-8b4e-667b68a021e3";
name = Fore;
shapes = (
{
closed = 1;
nodes = (
(373,467,l),
(123,809,l),
(164,850,l),
(541,467,l),
(164,84,l),
(123,125,l)
);
}
);
width = 623;
}
);
unicode = 8250;
},
{
glyphname = fraction;
layers = (
{
layerId = "ac52443d-76b6-4d6b-8b4e-667b68a021e3";
name = Fore;
shapes = (
{
closed = 1;
nodes = (
(819,1434,l),
(934,1434,l),
(117,0,l),
(2,0,l)
);
}
);
width = 936;
}
);
unicode = 8260;
},
{
glyphname = Euro;
layers = (
{
layerId = "ac52443d-76b6-4d6b-8b4e-667b68a021e3";
name = Fore;
shapes = (
{
closed = 1;
nodes = (
(354,332,l),
(354,284,o),
(372,242.5,q),
(390,201,o),
(421.5,169.5,q),
(453,138,o),
(494.5,120,q),
(536,102,o),
(584,102,q),
(674,102,l),
(722,102,o),
(763.5,120,q),
(805,138,o),
(836,169.5,q),
(867,201,o),
(885,242.5,q),
(903,284,o),
(903,332,q),
(903,389,l),
(1032,369,l),
(1032,332,l),
(1032,259,o),
(1004.5,195,q),
(977,131,o),
(929,83,q),
(881,35,o),
(817,7.5,q),
(753,-20,o),
(680,-20,q),
(578,-20,l),
(505,-20,o),
(440.5,7.5,q),
(376,35,o),
(328,83,q),
(280,131,o),
(252.5,195,q),
(225,259,o),
(225,332,q),
(225,553,l),
(82,553,l),
(82,655,l),
(225,655,l),
(225,778,l),
(82,778,l),
(82,881,l),
(225,881,l),
(225,1102,l),
(225,1175,o),
(252.5,1239,q),
(280,1303,o),
(328,1351,q),
(376,1399,o),
(440.5,1426.5,q),
(505,1454,o),
(578,1454,q),
(680,1454,l),
(753,1454,o),
(817,1426.5,q),
(881,1399,o),
(929,1351,q),
(977,1303,o),
(1004.5,1239,q),
(1032,1175,o),
(1032,1102,q),
(1032,1065,l),
(903,1044,l),
(903,1102,l),
(903,1150,o),
(885,1191.5,q),
(867,1233,o),
(836,1264,q),
(805,1295,o),
(763.5,1313,q),
(722,1331,o),
(674,1331,q),
(584,1331,l),
(536,1331,o),
(494.5,1313,q),
(453,1295,o),
(421.5,1264,q),
(390,1233,o),
(372,1191.5,q),
(354,1150,o),
(354,1102,q),
(354,881,l),
(827,881,l),
(768,778,l),
(354,778,l),
(354,655,l),
(696,655,l),
(637,553,l),
(354,553,l)
);
}
);
width = 1155;
}
);
unicode = 8364;
},
{
glyphname = trademark;
layers = (
{
layerId = "ac52443d-76b6-4d6b-8b4e-667b68a021e3";
name = Fore;
shapes = (
{
closed = 1;
nodes = (
(1227,1137,l),
(1042,758,l),
(987,758,l),
(803,1135,l),
(803,758,l),
(696,758,l),
(696,1434,l),
(760,1434,l),
(1014,915,l),
(1270,1434,l),
(1331,1434,l),
(1331,758,l),
(1227,758,l)
);
},
{
closed = 1;
nodes = (
(393,758,l),
(287,758,l),
(287,1339,l),
(82,1339,l),
(82,1434,l),
(598,1434,l),
(598,1339,l),
(393,1339,l)
);
}
);
width = 1475;
}
);
unicode = 8482;
},
{
glyphname = minus;
layers = (
{
layerId = "ac52443d-76b6-4d6b-8b4e-667b68a021e3";
name = Fore;
shapes = (
{
closed = 1;
nodes = (
(1106,653,l),
(82,653,l),
(82,782,l),
(1106,782,l)
);
}
);
width = 1188;
}
);
unicode = 8722;
},
{
glyphname = dotlessj;
layers = (
{
layerId = "ac52443d-76b6-4d6b-8b4e-667b68a021e3";
name = Fore;
shapes = (
{
closed = 1;
nodes = (
(287,-171,o),
(263.5,-225.5,q),
(240,-280,o),
(199,-321,q),
(158,-362,o),
(103,-386,q),
(48,-410,o),
(-14,-410,q),
(-14,-293,l),
(23,-293,o),
(55.5,-279,q),
(88,-265,o),
(112,-241,q),
(136,-217,o),
(150,-184.5,q),
(164,-152,o),
(164,-115,q),
(164,1024,l),
(287,1024,l),
(287,-109,l),
(287,-109,l)
);
}
);
width = 451;
}
);
unicode = 63166;
},
{
glyphname = commaaccent;
layers = (
{
layerId = "ac52443d-76b6-4d6b-8b4e-667b68a021e3";
name = Fore;
shapes = (
{
closed = 1;
nodes = (
(143,-604,l),
(143,-164,l),
(297,-164,l),
(195,-604,l)
);
}
);
width = 440;
}
);
unicode = 63171;
},
